<svg xmlns="http://www.w3.org/2000/svg" width="800" height="700"><path d="m-885.622 512.455-242.95 100.633-242.949-100.633-100.633-242.95 100.633-242.95 242.95-100.633 242.95 100.633 100.632 242.95-100.633 242.95z" style="fill:#fff;fill-opacity:1;stroke:#000;stroke-width:3.38125634;stroke-linecap:butt;stroke-linejoin:miter;stroke-miterlimit:4;stroke-opacity:1;stroke-dasharray:none" transform="scale(.88724) rotate(-22.5 -24.723 -3638.112)"/><path d="M-244.898 2926.874c3.915-7.315 5.834-14.584 4.265-16.154-4.806-4.806-89.298-4.754-121.245.075-39.243 5.933-64.46-2.914-61.79-21.677 1.626-11.424 7.57-14.472 39.234-20.12 20.525-3.661 57.65-14.072 82.5-23.135 34.59-12.616 45.182-19.15 45.182-27.87 0-15.55-16.392-14.641-75 4.16-46.513 14.92-48.6 15.076-67.374 5.046-18.449-9.857-30.745-29.478-23.201-37.022 1.936-1.936 25.807-5.624 53.048-8.195 27.24-2.57 75.177-8.864 106.527-13.985 78.443-12.813 94.74-12.196 108.339 4.104 6.194 7.425 11.352 18.225 11.462 24 .168 8.856-5.44 10.5-35.8 10.5-37.305 0-43.598 5.26-26.615 22.243 13.604 13.604 3.229 20.625-36.946 25.002-18.959 2.066-35.518 6.918-36.798 10.783-1.48 4.47 2.168 5.853 10.018 3.8 6.79-1.776 33.033 1.643 58.317 7.598 77.607 18.276 98.986 53.02 33.222 53.99-15.51.229-38.608 2.607-51.33 5.286-22.558 4.75-22.956 4.54-16.015-8.43zm-130.797-163.615c-3.881-3.882-7.057-11.918-7.057-17.858 0-14.88-9.213-13.536-33.339 4.866-11.5 8.772-24.586 14.112-29.736 12.136-18.814-7.22-16.638-22.639 8.297-58.773 26.192-37.957 26.976-47.029 4.066-47.029-17.405 0-24.84-17.02-12.726-29.133 4.95-4.95 20.575-10.547 34.72-12.434 22.614-3.018 25.948-5.432 27.623-20.001 1.048-9.113-2.117-24.632-7.033-34.487-8.372-16.782-8.123-18.49 3.93-26.931 29.31-20.53 58.198-3.178 58.198 34.959 0 18.14 2.15 22.027 12.188 22.027 19.844 0 21.897 18.106 3.817 33.658-28.132 24.198-18.588 26.95 26.383 7.603 29.052-12.498 29.612-13.237 29.612-39.081 0-14.488-3.375-31.882-7.5-38.652-6.508-10.68-5.565-13.894 7.12-24.288 10.218-8.37 19.244-10.818 29.967-8.127 24.995 6.274 29.15 13.016 25.883 42-1.667 14.788-.654 27.126 2.25 27.417 2.904.292 18.163 1.518 33.908 2.725 34.17 2.62 40.372 5.82 40.372 20.827 0 11.67-13.023 15.871-60 19.36-20.24 1.502-21 2.427-21 25.558v24l45 3.612c67.011 5.378 93.066 19.6 88.96 48.558-1.798 12.686-4.939 13.83-37.96 13.83-33.217 0-35.865-.982-34.257-12.708 1.43-10.428-2.811-13.865-23.638-19.151-30.174-7.66-32.995-6.407-38.12 16.928-2.166 9.862-7.099 18.313-10.962 18.78-20.754 2.507-37.867-1.783-44.775-11.223-5.305-7.251-15.789-10.626-33.01-10.626-21.113 0-25.533-2.07-27.047-12.672-.995-6.97 5.005-20.77 13.333-30.668 17.431-20.715 15.414-26.2-7.403-20.131-14.084 3.746-16.529 8.026-19.349 33.88-4.841 44.389-25.898 76.065-40.715 61.248zm-18.03-62.588c13.236-11.977 14.116-20.07 2.184-20.07-7.679 0-21.21 16.974-21.21 26.606 0 6.226 7.938 3.5 19.027-6.536zm142.973-14.07c0-13.213-.743-13.64-14.51-8.358-13.595 5.218-11.73 20.358 2.51 20.358 8 0 12-4 12-12z" style="fill:#a3a4ea" transform="translate(676.846 -2379.467)"/><path d="M-242.682 2927.629c13.973-15.44 13.155-16.804-17.011-28.324-30.227-11.544-112.208-9.954-124.578 2.416-9.573 9.572-25.595 8.587-34.48-2.12-11.586-13.96 1.717-24.821 35.266-28.794 38.326-4.54 124.618-38.039 129.28-50.187 4.462-11.63-6.466-26.013-19.782-26.034-22.069-.035-94.266 20.293-100.824 28.389-8.44 10.42-26.106 6.018-40.737-10.149-14.866-16.426-6.652-24.212 25.65-24.313 15.48-.05 44.346-3.784 64.146-8.3 19.8-4.517 62.788-11.635 95.529-15.82l59.528-7.608 13.972 16.243c16.724 19.443 18.358 30.168 3.471 22.795-5.775-2.861-23.325-4.034-39-2.607-22.334 2.032-28.5 4.9-28.5 13.255 0 5.863 4.05 14.022 9 18.13 13.011 10.799 11.058 16.73-4.527 13.75-15.651-2.991-70.473 18.819-70.473 28.037 0 3.484 13.836 6.252 31.5 6.302 29.023.08 87.209 14.38 105 25.804 12.361 7.937 8.974 21.37-4.5 17.846-6.709-1.755-12-.184-12 3.561 0 3.685-4.05 6.7-9 6.7s-9-2.7-9-6c0-10.226-24.333-6.609-40.363 6-19.097 15.022-30.854 15.71-17.567 1.028zm-139.17-181.028c-7.872-22.58-25.712-23.733-46.445-3-18.245 18.246-26.455 19.054-26.455 2.606 0-15.327 8.547-31.984 31.314-61.031l17.577-22.426-13.946-5.586c-7.67-3.073-18.786-7.116-24.704-8.986-8.747-2.763-9.549-5.658-4.288-15.488 4.528-8.461 12.56-12.089 26.768-12.089 33.647 0 39.28-4.651 39.28-32.442 0-13.837-3.06-28.216-6.798-31.954-10.11-10.11-2.368-23.508 16.287-28.19 21.744-5.458 41.51 13.565 41.51 39.95 0 15.29 2.918 19.684 15 22.58 21.166 5.076 18.631 19.353-4.5 25.346-21.351 5.533-23.277 9.434-12 24.312 6.91 9.117 10.093 8.852 40.5-3.375l33-13.27 1.848-28.944c1.045-16.378-1.268-32.7-5.328-37.591-10.074-12.139 9.116-32.422 30.675-32.422 21.532 0 28.58 9.609 30.893 42.118l1.912 26.882 29.848 1.884c28.898 1.824 45.152 8.97 45.152 19.851 0 2.896-19.961 5.265-44.358 5.265-45.598 0-56.847 6.112-45.179 24.544 2.945 4.651 5.395 15.881 5.445 24.956.09 16.079.974 16.5 34.632 16.5 43.061 0 71.278 7.858 89.42 24.903 17.092 16.056 17.821 23.097 2.394 23.097-6.405 0-13.314 2.7-15.354 6-2.04 3.3-13.18 6-24.758 6-17.775 0-20.5-1.732-17.516-11.135 2.814-8.867-1.727-13.144-22.297-21-35.247-13.461-45.75-12.433-52.429 5.135-3.137 8.25-8.47 15-11.851 15-3.382 0-6.149 4.05-6.149 9 0 14.6-16.617 10.339-35.097-9-19.809-20.728-23.875-21.7-33.831-8.083-3.988 5.454-10.361 7.995-14.162 5.646-11.32-6.996-7.9-24.741 8.09-41.996 21.15-22.82 18.876-28.537-10.5-26.412l-25.5 1.845 2.02 33.665c1.797 29.963.642 34.024-10.5 36.938-7.664 2.004-12.52 8.146-12.52 15.836 0 18.44-9.87 15.301-17.1-5.439zm-10.328-45.428c11.655-11.655 12.283-26.572 1.118-26.572-7.302 0-27.69 24.143-27.69 32.79 0 6.859 17.617 2.736 26.572-6.218zm139.963-12.042c.843-6.341-1.084-15.58-4.284-20.53-5.125-7.93-6.982-7.835-15.62.8-7.949 7.947-8.48 12.27-2.81 22.865 8.14 15.21 20.5 13.504 22.714-3.135z" style="fill:#6063e0" transform="translate(676.846 -2379.467)"/><path d="M-244.752 2934.924c0-3.258 2.612-8.534 5.804-11.726s4.304-11.537 2.471-18.545c-2.876-10.999-9.208-13.262-46.303-16.549-24.228-2.146-58.675-.879-78.972 2.907-52.465 9.785-60 9.733-60-.41 0-5.992 11.027-11.526 33-16.56 65.47-15.001 127.8-37.79 134.935-49.335 1.888-3.054 1.707-12.427-.402-20.829-4.46-17.771-18.6-19.628-54.278-7.13-12.79 4.481-36.08 10.047-51.755 12.368-15.675 2.322-28.5 6.756-28.5 9.854 0 9.406-11.3 6.332-24.219-6.587-17.52-17.519-9.854-23.78 29.113-23.78 18.802 0 42.916-2.505 53.587-5.565 10.67-3.06 51-10.135 89.62-15.722l70.219-10.158 11.564 14.222 11.565 14.222-37.61 3c-28.37 2.263-39.236 5.77-44.225 14.272-4.826 8.224-4.816 11.932.036 13.716 3.657 1.345 11.757 6.44 18 11.32 10.77 8.423 10.584 8.724-3.65 5.894-16.526-3.287-66.916 19.023-70.692 31.298-1.63 5.296 6.36 7.5 27.182 7.5 36.108 0 107.266 21.497 112 33.835 2.937 7.654-1.601 8.39-29.912 4.853-31.139-3.89-34.553-3.04-50.976 12.694-9.681 9.275-17.602 14.198-17.602 10.94zm-205.847-180.17c-8.447-8.447-3.57-22.55 19.469-56.303 12.992-19.033 21.767-36.46 19.5-38.728-2.267-2.267-4.122-6.597-4.122-9.622 0-5.731-6.556-6.061-19.759-.995-11.623 4.46-16.665-3.726-9.42-15.293 3.828-6.109 17-11.417 32.789-13.212l26.39-3-.295-30c-.163-16.5-2.353-34.403-4.868-39.785-7.001-14.984 26.557-25.271 43.57-13.355 14.574 10.209 16.765 26.14 3.593 26.14-4.95 0-9 2.7-9 6s4.05 6 9 6 9 3.66 9 8.132c0 4.473 8.775 10.843 19.5 14.156 17.116 5.287 18.033 6.553 7.5 10.356-33.852 12.222-39 15.863-39 27.582 0 6.865 2.47 10.956 5.488 9.091 3.018-1.865 6.599-.058 7.957 4.017 1.79 5.37 12.237 3.24 37.955-7.735 33.068-14.112 35.76-16.76 39.512-38.871 2.812-16.564 1.329-27.957-4.913-37.735-8.04-12.596-7.893-15.165 1.46-25.5 11.677-12.902 38.406-15.228 49.341-4.293 9.8 9.8 9.05 16.8-1.8 16.8-5.655 0-9 5.706-9 15.354 0 8.445 2.393 13.876 5.318 12.068 2.925-1.808 6.722 2.083 8.438 8.646 2.58 9.863 8.222 11.932 32.536 11.932 16.575 0 34.499 3.846 41.061 8.81 10.578 8 7.487 8.826-33.653 9-26.986.113-48.21 3.101-52.5 7.39-8.436 8.436-9.901 55.178-1.569 50.028 3.098-1.914 7.823.228 10.5 4.76 3.066 5.19 21.127 9.563 48.775 11.812 46.198 3.757 80.62 18.398 83.954 35.71 1.568 8.141-1.808 9.258-19.374 6.407-16.284-2.643-22.152-1.161-25.021 6.316-2.062 5.372-7.425 9.767-11.918 9.767-4.885 0-6.747-3.708-4.63-9.223 1.946-5.073-1.257-14.523-7.12-21-13.472-14.888-74.797-17.443-74.797-3.117 0 4.763-5.693 12.647-12.65 17.52-6.958 4.874-10.849 11.777-8.646 15.34 9.993 16.17-9.79 4.257-24.11-14.52-17.727-23.24-28.976-26.355-37.922-10.5-4.45 7.889-7.648 8.795-12.854 3.645-7.84-7.758 1.687-31.455 16.058-39.943 19.37-11.44 4.73-28.202-24.632-28.202-19.836 0-27.347 12.281-33.31 54.462-6.245 44.185-14.663 56.393-20.109 29.163-3.572-17.858-5.116-18.876-23.325-15.363-10.725 2.068-25.056 10.574-31.847 18.902-6.791 8.328-14.216 13.273-16.5 10.99zm68.478-73.31c2.755-13.47 1.62-18.843-3.98-18.843-11.488 0-34.375 34.854-30.137 45.896 5.718 14.9 29.373-3.857 34.117-27.053zm132.895 15.657c6.593-17.599.38-37.522-12.284-39.39-9.523-1.403-13.81 2.063-16.677 13.487-2.122 8.457-2.303 19.433-.4 24.39 4.183 10.9 25.434 11.996 29.36 1.513z" style="fill:#1419cf" transform="translate(676.846 -2379.467)"/><path d="M-237.033 2918.38c4.005-8.627 9.306-15.706 11.781-15.732 8.19-.085 4.675 9.935-7.28 20.755-11.52 10.425-11.62 10.314-4.5-5.023zm31.281-16.75c-13.2-3.076-32.1-6.962-42-8.636-37.33-6.312-45-8.784-45-14.507 0-10.335 62.601-6.318 103.99 6.673 22.005 6.907 40.01 15.007 40.01 18 0 6.645-24.762 5.98-57-1.53zm-216-5.029c-6.765-10.945 2.847-17.119 37.605-24.154 77.375-15.662 129.527-38.8 132.358-58.724 2.408-16.95 15.315-14.097 17.97 3.973 1.525 10.371-2.919 15.152-21 22.588-12.613 5.189-30.024 16.117-38.69 24.286-11.446 10.79-27.042 16.556-57 21.075-22.684 3.421-45.931 8.636-51.661 11.589-13.165 6.782-15.037 6.722-19.582-.633zm3.463-89.135c-8.518-15.915-3.058-18.86 35.037-18.898 18.425-.018 42.95-2.613 54.5-5.766 33.31-9.093 150.687-25.221 159.351-21.896 4.325 1.66 10.456 7.895 13.623 13.856 5.372 10.112 1.196 10.951-62.208 12.506-37.381.916-80.97 5.612-96.866 10.435-15.895 4.823-39.202 8.798-51.794 8.833-12.592.036-28.004 2.8-34.248 6.142-8.911 4.769-12.654 3.647-17.395-5.211zm41.537-60.865c0-6.6 2.447-12 5.438-12 2.991 0 4.027 5.4 2.3 12-1.725 6.6-4.173 12-5.438 12-1.265 0-2.3-5.4-2.3-12zm-78-3.483c0-5.216 10.125-24.737 22.5-43.38 12.375-18.645 22.5-36.427 22.5-39.518 0-3.09 3.713-6.856 8.25-8.369 8.92-2.973 8.945-3.071-8.046 30.31-7.505 14.745-9.445 24.599-5.6 28.445 8.332 8.331 32.396-9.752 32.396-24.345 0-13.948 15.2-15.61 20.337-2.225 7.657 19.953-12.225 38.565-41.198 38.565-7.634 0-20.238 6.704-28.01 14.897-16.402 17.292-23.129 18.927-23.129 5.62zm317.62-13.19c6.26-21.828 4.485-22.909-47.215-28.758-23.885-2.702-36.405-6.818-36.405-11.967 0-5.356 6.19-7.07 19.5-5.397 10.725 1.348 34.528 4.01 52.896 5.917 33.664 3.494 71.604 21.12 71.604 33.267 0 4.211-6.628 5.109-18.49 2.503-14.492-3.182-21.596-1.145-32.838 9.417l-14.346 13.477 5.294-18.46zm-182.264-6.752c-4.635-7.498 6.975-31.555 18.52-38.373 4.468-2.639 8.124-10.064 8.124-16.5 0-9.488-4.256-11.738-22.5-11.893-22.122-.188-21.846-.468 16.424-16.657 36.847-15.587 39.14-17.738 42.97-40.309 2.83-16.683 1.361-28.049-4.895-37.85-8.04-12.596-7.893-15.165 1.46-25.5 12.412-13.715 40.096-15.079 50.543-2.49 6.298 7.588 4.71 9.555-10.11 12.519-17.384 3.477-17.554 3.908-15.077 38.158 2.945 40.71-4.86 58.868-28.903 67.25-19.896 6.936-31.256 38.729-17.053 47.728 15.36 9.733 28.835 5.65 32.743-9.919 4.998-19.915 17.398-15.562 17.398 6.107 0 24.84-16.5 32.858-39.99 19.43-18.303-10.461-19.09-10.413-32.252 1.952-8.49 7.976-14.942 10.33-17.402 6.347zm-129.356-80.84c0-13.012 13.145-20.677 39.076-22.788l23.924-1.947-.295-30c-.163-16.5-2.354-34.403-4.868-39.785-7.001-14.984 26.557-25.271 43.57-13.355 16.615 11.638 15.972 20.14-1.526 20.14-13.271 0-13.951 1.75-11.32 29.125 4.153 43.233-4.421 54.875-40.418 54.875-16.189 0-31.103 2.7-33.143 6-5.421 8.772-15 7.326-15-2.265zm241.5-31.708c-4.125-1.665-7.5-8.742-7.5-15.727 0-9.877 1.6-11.1 7.2-5.5 3.96 3.96 18.59 7.2 32.51 7.2 28.233 0 44.29 4.583 44.29 12.642 0 5.562-63.309 6.707-76.5 1.385zm-136.5-8.027c-7.44-12.04 3.138-17.327 21.711-10.853 13.547 4.723 16.3 7.79 10.367 11.55-10.993 6.967-27.564 6.607-32.078-.697z" style="fill:#0507a1" transform="translate(676.846 -2379.467)"/><path d="M-199.752 2899.853c-16.5-4.378-41.46-9.835-55.468-12.128-36.018-5.894-37.785-15.124-2.896-15.124 31.744 0 109.364 21.69 109.364 30.56 0 7.26-14.778 6.301-51-3.308zm-223.756-10.119c1.467-4.473 17.312-11.535 35.211-15.694 80.581-18.72 131.716-39.796 135.963-56.037 3.925-15.01 13.582-14.67 13.582.476 0 7.947-8.44 16.158-25.5 24.806-14.025 7.11-26.944 15.16-28.71 17.89-5.264 8.135-42.893 21.803-71.79 26.076-14.85 2.196-34.745 5.483-44.21 7.304-12.783 2.46-16.526 1.22-14.546-4.82zm2.514-86.322c-4.67-12.171 2.062-14.81 37.782-14.81 18.447 0 42.27-2.505 52.94-5.565 10.671-3.06 50.562-10.072 88.646-15.581 54.723-7.916 71.093-8.483 78.06-2.701 13.461 11.172 10.567 17.44-7.686 16.643-28.488-1.243-110.865 7.572-151.5 16.212-59.526 12.657-94.812 14.741-98.242 5.802zm-33.758-59.171c0-11.435 41.753-77.887 46.165-73.474 1.467 1.466-.647 7.971-4.696 14.455-4.05 6.484-5.627 16.314-3.505 21.843 3.169 8.258 6.146 8.83 16.664 3.2 7.044-3.77 14.178-12.096 15.853-18.504 3.158-12.073 14.081-12.473 18.02-.66 3.704 11.115-21.323 31.5-38.673 31.5-9.375 0-23.244 6.776-33 16.123-14.01 13.422-16.828 14.346-16.828 5.517zm132-25.034c0-6.748 13.157-27.763 24.454-39.06 11.141-11.14 11.546-11.153 11.546-.355 0 12.356-21.65 42.81-30.435 42.81-3.06 0-5.565-1.528-5.565-3.395zm207-5.909c-13.2-4.827-39.609-10.502-58.686-12.61-54.981-6.079-50.174-16.477 5.842-12.638 46.128 3.162 85.844 16.442 85.844 28.705 0 7.56-4.03 7.137-33-3.457zm-156-2.697c-2.04-3.3 1.67-6 8.242-6 6.68 0 13.629-5.291 15.758-12 4.363-13.747 15-16.222 15-3.49 0 17.526-7.716 27.49-21.288 27.49-7.702 0-15.672-2.7-17.712-6zm-36-58.438c-9.383-2.383-5.292-6.011 18.766-16.64 28.1-12.417 31.027-15.603 33.776-36.758 1.903-14.643-.207-28.317-5.737-37.171-7.803-12.497-7.625-15.247 1.654-25.5 10.894-12.037 41.252-15.67 47.429-5.674 1.978 3.2-6.441 10.012-18.708 15.137-17.106 7.148-20.659 10.966-15.242 16.382 3.884 3.884 7.062 19.83 7.062 35.434 0 30.293-8.764 44.014-34.322 53.73-15.29 5.814-15.88 5.832-34.678 1.06zm-141-13.564c0-9.387 15.964-17.17 39.076-19.05l23.924-1.948-.295-30c-.163-16.5-2.353-34.403-4.868-39.785-5.842-12.503 24.702-24.867 40.118-16.24 14.66 8.204 12.276 17.025-4.6 17.025-15.969 0-25.194 8.92-15.453 14.94 3.354 2.073 6.098 15.697 6.098 30.276 0 20.982-2.814 28.271-13.5 34.969-14.837 9.299-70.5 17.047-70.5 9.813zm244-33.998c-9.363-9.363-1.938-11.245 31.692-8.03 47.915 4.582 53.059 12.03 8.308 12.03-19.8 0-37.8-1.8-40-4zm-130-8c0-7.586 12.26-7.586 24 0 7.013 4.533 5.358 5.837-7.5 5.908-9.075.051-16.5-2.608-16.5-5.908z" style="fill:#0a0b5a" transform="translate(676.846 -2379.467)"/><path d="M-196.752 2896.676c-4.95-3.158-24.525-7.515-43.5-9.683-35.099-4.01-48.07-14.392-17.98-14.392 16.665 0 96.369 20.889 102.288 26.808 5.684 5.684-31.519 3.193-40.808-2.733zm-222-9.15c0-4.865 11.848-9.406 31.5-12.071 26.946-3.655 55.122-12.395 115.5-35.828 6.6-2.562-.207 3.655-15.126 13.814-14.92 10.16-39.22 21.265-54 24.68-72.708 16.793-77.874 17.417-77.874 9.405zm166.172-62.582c1.775-6.788 5.81-12.343 8.968-12.343 7.965 0 3.462 19.473-5.168 22.346-4.47 1.488-5.853-2.152-3.8-10.003zm-166.172-24.392c0-7.675 17.217-11.95 48.119-11.95 16.025 0 46.18-3.878 67.009-8.617 51.59-11.737 136.872-18.587 136.872-10.994 0 6.274-46.397 13.47-87.41 13.558-13.427.03-37.727 3.836-54 8.46-34.46 9.793-110.59 16.362-110.59 9.543zm-36-57.742c0-2.086 6.038-13.561 13.417-25.5 9.984-16.153 13.927-19.065 15.408-11.377 1.094 5.682-2.918 17.072-8.917 25.311-10.367 14.237-19.908 19.78-19.908 11.566zm66.87-40.944c7.772-8.105 15.06-12.064 16.197-8.799 2.928 8.408-10.847 23.534-21.431 23.534-6.44 0-4.994-4.068 5.234-14.735zm71.13 9.4c0-2.934 5.31-11.71 11.8-19.5 9.491-11.392 11.84-12.193 12-4.093.11 5.539-4.043 14.314-9.228 19.5-10.705 10.705-14.572 11.79-14.572 4.093zm51.205-.333c-2.152-3.482.162-6.332 5.143-6.332 4.98 0 11.963-4.725 15.516-10.5 5.594-9.092 6.237-8.497 4.798 4.439-1.715 15.415-18.53 23.601-25.457 12.394zm149.795-1.615c-9.9-3.07-32.85-7.732-51-10.362l-33-4.781 36-.33c19.8-.182 45.301 3.03 56.669 7.137 24.75 8.942 17.08 16.317-8.669 8.336zm-183-65.744c40.01-16.578 44.953-21.504 46.852-46.688 1.929-25.586 13.148-28.328 13.148-3.213 0 34.39-23.925 57.395-58.782 56.522l-16.218-.406 15-6.215zm-150-4.55c0-9.542 21.372-18.423 44.334-18.423 19.313 0 21.454-1.765 24.989-20.61 2.127-11.336 1.832-23.903-.655-27.927-2.888-4.672-2.018-5.77 2.405-3.036 9.123 5.639 8.922 47.178-.273 56.373-3.96 3.96-16.287 7.2-27.394 7.2s-25.417 2.795-31.8 6.211c-7.597 4.066-11.606 4.139-11.606.211zm249-36.423c-4.378-7.084 28.88-7.084 51 0 11.848 3.795 8.455 4.93-16.146 5.402-17.13.33-32.814-2.102-34.854-5.402zm-127.375-3.625c1.994-1.993 7.169-2.207 11.5-.473 4.787 1.915 3.365 3.337-3.625 3.625-6.325.26-9.869-1.158-7.875-3.152zm-64.61-50.35c-5.194-8.405 23.963-20.48 37.103-15.365 9.125 3.553 7.622 5.618-9.307 12.789-24.033 10.18-23.147 10.098-27.795 2.577zm128.985-1.581c0-11.692 23.263-23.486 37.445-18.985 11.393 3.616 10.322 5.184-10.446 15.285-27.462 13.358-26.999 13.295-26.999 3.7z" style="fill:#000131" transform="translate(676.846 -2379.467)"/></svg>