<svg xmlns="http://www.w3.org/2000/svg" width="800" height="700"><path d="m-885.622 512.455-242.95 100.633-242.949-100.633-100.633-242.95 100.633-242.95 242.95-100.633 242.95 100.633 100.632 242.95-100.633 242.95z" style="fill:#fff;fill-opacity:1;stroke:#000;stroke-width:3.97135067;stroke-linecap:butt;stroke-linejoin:miter;stroke-miterlimit:4;stroke-opacity:1;stroke-dasharray:none" transform="rotate(-22.5 141.76 -2871.665) scale(.75541)"/><path d="M-214.696 2257.991c-16.197-8.869-28.842-10.84-55.283-8.616-39.42 3.314-60.962-1.684-46.549-10.799 4.858-3.072 18.82-5.627 31.026-5.677l22.194-.092-8.866-21.22c-27.009-64.64 45.938-114.619 90.316-61.879 18.764 22.3 18.834 28.013.674 54.774-7.968 11.742-12.918 22.919-11 24.837 1.918 1.918 13.96 3.488 26.76 3.488 49.932 0 71.539-55.614 34.903-89.836-16.806-15.7-56.836-30.164-83.478-30.164-22.655 0-19.958-12.47 4.8-22.196 23.526-9.24 24.043-9.997 12.404-18.148-9.683-6.783-16.3-7.135-32.655-1.737-29.478 9.728-63.246-9.159-63.246-35.374 0-6.654 162.337-.766 181.5 6.583 21.05 8.072 21.139 21.405.197 29.367-34.956 13.29-35.077 18.855-.768 35.213 41.85 19.954 57.893 48.422 46.638 82.756-10.994 33.542-22.921 48.963-47.613 61.56-35.148 17.93-76.926 20.865-101.954 7.16zm1.028-53.114c14.155-12.81 13.939-27.525-.598-40.68-17.7-16.02-36.43-7.374-36.43 16.814 0 31.254 16.858 42.12 37.028 23.866zm120.906-188.818c5.979-22.863-53.982-33.638-114.826-20.633-64.652 13.818-105.693 12.545-120.874-3.75-6.729-7.223-12.234-17.45-12.234-22.727 0-8.484 10.94-9.33 94.5-7.302 51.975 1.26 112.173-.127 133.774-3.084 64.476-8.827 95.736 7.201 95.719 49.079l-.008 18.165-39.331.12c-33.771.104-38.963-1.291-36.72-9.868z" style="fill:#a1a2eb" transform="translate(578.7 -1761.396)"/><path d="M-227.956 2243.714c-8.188-7.101-15.38-8.88-21.958-5.43-16.43 8.616-59.29 13.79-63.105 7.618-1.956-3.165 8.771-7.6 23.858-9.862 22.73-3.408 26.645-5.829 22.918-14.172-2.472-5.533-5.606-20.891-6.964-34.129-3.504-34.147 14.934-56.932 46.07-56.932 41.644 0 71.97 46.166 42.441 64.608-17.198 10.74-16.156 37.188 1.5 38.056 46.766 2.3 71.241-14.908 72.259-50.804.461-16.289-3.716-26.246-16.694-39.793-9.52-9.937-20.855-18.067-25.188-18.067-4.332 0-7.877-4.426-7.877-9.836 0-8.223-4.726-9.276-28.828-6.421-39.95 4.731-49.912-3.275-19.122-15.37 22.616-8.884 23.917-10.588 16.79-22.001-6.015-9.63-13.944-12.372-35.783-12.372-16.764 0-29.04 2.95-30.5 7.33-1.556 4.667-8.392 1.38-18.823-9.05-9.01-9.01-15.022-18.579-13.361-21.265 1.66-2.686 20.03-2.817 40.823-.29 20.792 2.528 56.704 3.25 79.804 1.607 28.274-2.012 46.786-.43 56.645 4.84 18.203 9.73 14.81 18.408-7.896 20.194-9.488.746-19.283 4.643-21.765 8.66-6.644 10.75.026 29.974 10.399 29.974 15.958 0 54.19 25.095 61 40.04 8.93 19.6 7.999 43.799-2.383 61.96-4.716 8.25-8.67 12.66-8.787 9.802-.117-2.86-11.02 4.566-24.23 16.5-13.21 11.934-30.085 22.168-37.5 22.742-50.103 3.88-72.385 1.714-83.743-8.137zm18.06-36.107c17.276-17.276.667-58.8-23.519-58.8-19.7 0-24.977 22.154-13.936 58.5 2.903 9.555 27.999 9.756 37.455.3zm119.275-190.086c1.892-7.235-2.996-15.752-14.09-24.55-16.17-12.826-20.297-13.274-85.985-9.335-37.95 2.276-82.5 6.701-99 9.834-27.155 5.156-30.996 4.478-40.5-7.148-5.775-7.064-10.5-15.286-10.5-18.27 0-3.039 44.49-5.212 101.136-4.94 55.624.268 117.684-1.386 137.91-3.674 48.982-5.542 70.732 3.363 78.7 32.222 6.523 23.624 3.892 31.185-7.046 20.247-8.636-8.636-32.597-9.356-37.68-1.132-2.029 3.282-8.673 8.635-14.765 11.896-9.173 4.909-10.58 4.024-8.18-5.15z" style="fill:#5f62df" transform="translate(578.7 -1761.396)"/><path d="M-210.926 2240.993c-11.26-6.1-23.732-7.961-36-5.372-10.323 2.178-30.92 4.894-45.77 6.034-14.85 1.14-18.9.9-9-.533 45.336-6.563 45.06-6.35 34.84-26.837-11.797-23.649-6.667-58.831 10.642-72.978 27.727-22.661 72.741-6.822 80.998 28.5 2.315 9.9 2.07 16.017-.543 13.593-7.133-6.617-20.529 14.21-20.746 32.257-.384 31.909 59.784 27.126 79.543-6.323 13.277-22.475 12.92-35.101-1.668-59.027-6.54-10.725-10.372-19.5-8.517-19.5 1.854 0-5.216-7.226-15.711-16.057-17.871-15.038-20.966-15.672-48.717-9.987-35.535 7.279-44.013-.08-14.363-12.468 22.473-9.39 24.514-13.046 15.343-27.488-4.222-6.649-17.096-9-49.278-9-35.31 0-43.925-1.836-45.477-9.69-1.702-8.616 7.809-9.529 85.909-8.246 71.719 1.177 89.61 3.23 97.57 11.189 8.995 8.996 7.855 9.747-14.805 9.747-47.887 0-50.047 30.99-3.248 46.59 13.703 4.568 31.735 16.411 40.071 26.318 16.94 20.132 21.167 50.682 6.218 44.946-6.133-2.354-10.18 1.682-12.895 12.858-12.626 51.98-75.463 77.982-124.396 51.474zm-9.513-26.323c18.825-10.075 24.81-26.877 16.393-46.02-12.23-27.817-26.63-33.006-43.837-15.799-11.045 11.046-9.019 44.25 3.631 59.491 8.389 10.108 9.138 10.181 23.813 2.327zm131.184-202.363c-.518-7.425-1.279-16.875-1.691-21-.983-9.83-80.53-12.539-168.75-5.748-66.769 5.14-74.694 3.428-74.908-16.176-.077-7.015 13.21-7.746 79.408-4.37 49.98 2.55 101.326 1.421 138.28-3.038 55.548-6.703 59.672-6.43 75 4.963 8.921 6.63 17.017 18.622 17.992 26.647 1.661 13.687.246 14.445-22.854 12.243-18.832-1.796-26.613.277-33.08 8.815-8.092 10.682-8.497 10.581-9.397-2.336z" style="fill:#191dcd" transform="translate(578.7 -1761.396)"/><path d="M-198.459 2242.187c-4.74-4.74-20.458-9.707-34.928-11.035-20.269-1.862-28.085-5.737-34.044-16.88-10.957-20.49-4.994-59.935 11.022-72.904 24.785-20.07 69.387-8.345 79.655 20.939 5.006 14.278.01 13.209-21.036-4.5-20.629-17.358-32.94-18.709-51.571-5.66-10.348 7.248-13.229 14.975-12.861 34.5.26 13.838 1.898 21.596 3.64 17.24 2.307-5.772 5.528-4.55 11.867 4.5 11.285 16.111 17.327 15.657 35.664-2.68 10.813-10.813 13.96-18.692 11.085-27.751-2.869-9.039-1.946-11.373 3.232-8.173 6.975 4.312 5.663 23.658-3.152 46.44-3.006 7.772.316 12.08 13.08 16.963 41.195 15.759 85.503-20.751 77.427-63.801-4.08-21.742 2.18-26.642 14.725-11.527 9.778 11.781 3.887 48.663-10.271 64.307-24.634 27.22-75.456 38.1-93.534 20.022zm-110.807-1.503c5.737-1.501 16.537-1.556 24-.12 7.464 1.435 2.77 2.663-10.43 2.73-13.2.067-19.306-1.108-13.57-2.61zm213.279-96.64c-10.84-9.22-27.134-21.433-36.209-27.139-25.25-15.877-19.644-22.441 10.418-12.198 14.804 5.045 33.704 17.238 42 27.096 26.779 31.825 16.204 39.81-16.21 12.24zm-130.709-40.157c0-1.605 9.45-6.867 21-11.693s21-11.613 21-15.08c0-3.47 4.05-6.307 9-6.307 17.353 0 9.764 22.56-9.895 29.413-19.596 6.831-41.105 8.75-41.105 3.668zm-10.5-49.544c-36.05-1.472-49.5-4.18-49.5-9.963 0-6.287 17.99-7.647 86.332-6.524 84.258 1.383 99.668 3.75 99.668 15.305 0 5.408-27.231 5.644-136.5 1.182zm148.974-46.036c-.26-6.325 1.157-9.869 3.151-7.875 1.994 1.994 2.207 7.169.474 11.5-1.916 4.786-3.337 3.365-3.625-3.625zm52.997-12.543c-16.005-16.102-83.902-22.322-170.471-15.62-101.014 7.822-125.311 6.387-127.997-7.558-1.927-10.007 4.331-10.597 92.966-8.754 52.267 1.086 115.488-.323 140.49-3.132 43.034-4.835 46.352-4.34 62.177 9.272 9.544 8.21 15.783 18.884 14.54 24.879-1.993 9.616-2.977 9.693-11.705.913z" style="fill:#090c9c" transform="translate(578.7 -1761.396)"/><path d="M-189.196 2246.833c-14.45-5.83-7.674-15.37 8.104-11.41 36.482 9.156 74.278-21.564 74.488-60.542.071-13.229 1.402-15.047 5.908-8.074 26.269 40.648-39.254 99.898-88.5 80.026zm-123-6c4.125-1.664 10.875-1.664 15 0 4.125 1.665.75 3.027-7.5 3.027s-11.625-1.362-7.5-3.027zm70.5-12.073c-26.698-5.908-30.686-8.977-18-13.856 6.6-2.538 15.202-2.06 19.116 1.06 8.598 6.857 28.652-2.64 37.445-17.73 4.926-8.456 6.109-8.695 6.257-1.262.25 12.54-16.875 35.993-25.658 35.139-3.938-.383-12.56-1.89-19.16-3.351zm-30.26-49.892c4.141-44.554 46.055-63.318 81.17-36.338 18.403 14.14 12.13 23.187-6.857 9.889-30.133-21.106-61.108-6.561-71.642 33.642-4.63 17.667-4.91 16.91-2.67-7.193zm168.096-48.288c-16.41-9.656-32.536-18.585-35.836-19.843-3.3-1.258-4.156-4.276-1.902-6.707 6.67-7.193 44.03 7.947 59.043 23.927 20.32 21.629 12.608 22.578-21.305 2.623zm-122.836-26.693c0-1.605 10.125-7.15 22.5-12.32s23.625-9.932 25-10.58c1.375-.65 3.567 2.022 4.872 5.935 1.35 4.05-7.482 9.852-20.5 13.467-25.508 7.083-31.872 7.782-31.872 3.498zm41.5-47.565c-1.375-1.366-24.774-3.391-51.997-4.5-31.168-1.269-49.498-4.49-49.5-8.7-.002-4.668 26.03-6.257 86.33-5.266 85.718 1.407 113.977 6.28 90.269 15.564-12.327 4.828-70.888 7.09-75.102 2.902zm132.5-76.394c-9.75-3.976-61.73-4.636-148.5-1.886-125.485 3.979-133.5 3.593-133.5-6.425 0-9.879 5.815-10.362 79.5-6.604 49.677 2.534 101.33 1.42 137.693-2.967 51.823-6.253 59.869-5.924 73.5 3.008 8.419 5.516 15.307 12.667 15.307 15.891 0 7.128-4.5 6.937-24-1.017z" style="fill:#0f105b" transform="translate(578.7 -1761.396)"/><path d="M-192.77 2240.307c-1.529-2.475 8.467-3.604 22.214-2.51 30.383 2.42 54.963-14.24 63.245-42.868l5.533-19.122.35 18c.617 31.71-23.786 51-64.52 51-13.222 0-25.291-2.025-26.821-4.5zm-55.323-20.143c-2.783-4.502.141-5.295 9.076-2.459 8.895 2.823 17.274.594 25.768-6.857 12.166-10.67 12.453-10.673 8.57-.05-2.21 6.044-4.017 12.12-4.017 13.5 0 5.715-35.62 1.978-39.397-4.134zm-20.196-56.357c-.553-14.88 24.999-33 46.534-33 12.52 0 44.967 23.464 32.913 23.8-3.93.11-8.814-2.5-10.854-5.8-2.04-3.3-14.02-6-26.622-6-16.973 0-25.356 3.5-32.331 13.5-5.18 7.425-9.518 10.8-9.64 7.5zm153.506-42.693c-32.335-16.823-34.603-25.936-3.062-12.299 22.565 9.756 47.38 27.658 38.149 27.522-3.3-.05-19.09-6.899-35.087-15.223zm-84.913-28.198c9.9-4.624 19.125-7.44 20.5-6.258 4.327 3.72-1.928 7.05-20.512 10.92l-17.988 3.745 18-8.407zm-67.5-44.923c-10.725-1.07-19.5-3.986-19.5-6.478 0-6.415 169.759-.587 176.834 6.07 5.376 5.059-107.812 5.352-157.334.408zm-54-71.642c-7.425-1.308-13.5-4.56-13.5-7.225 0-2.666 41.175-3.487 91.5-1.826 51.86 1.713 109.119.255 132.17-3.364 38.578-6.058 76.395-1.122 76.295 9.958-.038 4.185-263.817 6.447-286.465 2.457z" style="fill:#010132" transform="translate(578.7 -1761.396)"/></svg>