<svg xmlns="http://www.w3.org/2000/svg" width="800" height="700"><path d="m-885.622 512.455-242.95 100.633-242.949-100.633-100.633-242.95 100.633-242.95 242.95-100.633 242.95 100.633 100.632 242.95-100.633 242.95z" style="fill:#fff;fill-opacity:1;stroke:#000;stroke-width:5.00327635;stroke-linecap:butt;stroke-linejoin:miter;stroke-miterlimit:4;stroke-opacity:1;stroke-dasharray:none" transform="scale(.5996) rotate(-22.5 559.088 -4087.123)"/><path d="M-1109.883 686.788c-22.402-28.48-18.091-32.88 32.21-32.88 48.685 0 47.585.785 52.974-37.814 4.092-29.31-3.162-32.186-56.022-22.212-45.956 8.67-59.73 3.704-75.84-27.346-10.897-21.004-15.698-19.136 61.762-24.037 81.006-5.126 113.147-41.184 61.397-68.88-24.636-13.185.354-41.711 36.54-41.711 33.194 0 49.143 15.882 47.704 47.503-2.097 46.052-3.29 44.57 32.515 40.363 41.13-4.834 68.58 4.254 73.63 24.378 5.385 21.454-4.963 25.558-64.706 25.664-58.288.103-59.142.761-59.142 45.583 0 26.509 0 26.509 35.789 26.509 37.78 0 48.21 7.565 48.21 34.964 0 16.144-11.51 19.272-68.162 18.52-26.86-.357-70.672 1.274-97.36 3.623-47.979 4.224-48.667 4.087-61.5-12.227z" style="fill:#9d9ee9" transform="translate(1402.217 -216.628)"/><path d="M-1109.392 688.408c-22.505-28.13-16.654-36.455 23.089-32.852 48.14 4.365 57.687-.85 62.696-34.25 7.455-49.719-39.047-64.858-95.133-30.971-8.932 5.397-13.495 3.56-25.5-10.262-24.833-28.592-20.23-34.108 28.879-34.61 99.91-1.021 123.698-19.23 88.073-67.416-16.549-22.383-10.544-34.82 20.629-42.725 35.364-8.969 55.32 9.61 53.16 49.487-2.008 37.07 2.364 40.345 50.618 37.919 31.19-1.568 38.975.135 49.719 10.88 19.447 19.446 11.252 22.992-47.664 20.624-58.39-2.346-79.987 6.8-74.92 31.73 1.222 6.02 3.844 21.07 5.826 33.446 3.574 22.323 3.826 22.5 31.995 22.5 30.943 0 55.076 12.644 55.043 28.84-.018 9.106-10.1 10.214-97.175 10.685-68.076.368-97.85 2.613-99.48 7.5-3.084 9.255-22.301 8.917-29.855-.525z" style="fill:#5d60de" transform="translate(1402.217 -216.628)"/><path d="M-1113.22 680.417c-9.54-24.864-5.44-27.657 34.34-23.397 49.183 5.267 56.299-1.081 56.608-50.506.26-41.785-6.756-47.566-44.883-36.978-12.489 3.468-31.481 6.32-42.206 6.338-10.725.019-19.5 2.734-19.5 6.034 0 12.185-11.968 5.467-20.846-11.702-5.035-9.736-9.154-19.186-9.154-21s23.625-3.618 52.5-4.008c90.332-1.221 122.534-29.91 79.048-70.423-16.805-15.656-11.862-27.853 14.861-36.672 35.489-11.712 78.485 20.635 49.207 37.02-11.364 6.36-12.969 28.785-2.06 28.785 4.157 0 10.777 5.156 14.712 11.457 6.144 9.838 12.145 11.005 42.45 8.257 37.366-3.388 61.282 4.18 61.282 19.391 0 7.169-9.294 8.12-53.273 5.451-49.54-3.006-54.36-2.263-68.796 10.606-16.014 14.275-24.659 53.347-12.931 58.448 3.3 1.435 8.784 8.185 12.186 15 5.065 10.143 11.983 12.432 38.154 12.622 24.232.177 33.971 2.974 40.251 11.562 11.083 15.157 18.074 13.874-96.638 17.747-59.577 2.011-102.78 5.939-103.95 9.45-3.124 9.372-17.317 7.058-21.361-3.482z" style="fill:#1015ce" transform="translate(1402.217 -216.628)"/><path d="M-1113.97 678.799c-16.163-16.163-1.28-25.687 34.609-22.15 50.886 5.015 56.883-.073 58.04-49.241.314-13.311 3.376-19.5 9.648-19.5 22.388 0 14.37 70.877-9.255 81.819-15.407 7.135-87.91 14.205-93.042 9.072zm169.609-11.69c-32.123-1.676-34.5-2.813-34.5-16.5 0-15.28 8.268-19.593 15.408-8.04 2.435 3.94 12.558 5.292 24.776 3.309 21.707-3.523 49.816 3.915 49.816 13.182 0 7.79-15.992 10.11-55.5 8.049zm-207.559-100.53c-3.817-8.38-6.941-16.459-6.941-17.953 0-1.495 23.625-3.037 52.5-3.428 85.303-1.153 88.548-2.622 88.244-39.928-.27-33.099 9.164-41.956 21.045-19.756 26.695 49.88 2.895 75.76-74.79 81.322-33 2.363-62.95 6.7-66.558 9.637-4.264 3.473-8.986.013-13.5-9.894zm187.228-29.671c-6.593-17.182 2.77-30.632 13.708-19.694 7.233 7.232 17.461 8.71 43.786 6.322 33.697-3.055 60.337 4.266 60.337 16.583 0 10.364-113.811 7.263-117.83-3.211zm-67.745-68.738c-25.36-15.673 28.892-42.996 57.832-29.125 29.057 13.926 25.076 27.99-6.903 24.385-15.335-1.728-30.646-.259-35.006 3.36-4.484 3.722-11.193 4.303-15.923 1.38z" style="fill:#0105a0" transform="translate(1402.217 -216.628)"/><path d="M-1116.861 665.02c0-11.197 2.705-11.8 37.5-8.371 45.638 4.498 53.073.113 56.86-33.531 3.412-30.332 5.427-33.823 14.364-24.885 7.983 7.983 1.803 49.926-9.669 65.614-12.738 17.42-99.055 18.442-99.055 1.173zm151.2-6.312c-12.39-12.389-8.235-14.388 27.956-13.456 36.907.95 51.361 5.729 45.587 15.07-5.04 8.155-65.092 6.837-73.543-1.614zm-189.945-99.298c-1.79-4.666-3.255-9.613-3.255-10.993 0-1.38 23.625-2.829 52.5-3.219 82.197-1.111 88.14-3.364 90.366-34.25 1.567-21.755 3.248-24.755 10.5-18.736 11.4 9.46 11.05 44.422-.56 56.032-16.715 16.715-143.78 26.203-149.55 11.166zm207.637-21.01c-3.79-3.79-6.892-10.942-6.892-15.892 0-6.722 1.726-7.273 6.82-2.18 4.24 4.24 17.67 5.535 35.498 3.424 32.845-3.89 61.546 1.562 58.37 11.089-3.044 9.135-85.106 12.25-93.796 3.56zm-90.892-79.156c0-12.736 38.562-29.187 55.94-23.866 31.783 9.732 30.882 17.438-2.456 21.023-17.867 1.921-37.21 5.585-42.984 8.142-7.648 3.386-10.5 1.946-10.5-5.3z" style="fill:#0b0c5a" transform="translate(1402.217 -216.628)"/><path d="M-1116.861 665.908c0-3.412 17.6-6 40.8-6 46.251 0 55.2-5.544 55.2-34.2 0-10.89 3.055-19.8 6.79-19.8 10.65 0 1.735 49.315-10.54 58.29-12.53 9.163-92.25 10.64-92.25 1.71zm153-12c-2.3-3.722 8.82-6 29.291-6 18.15 0 34.67 2.7 36.709 6 2.3 3.722-8.82 6-29.292 6-18.15 0-34.669-2.7-36.708-6zm-190.953-94.305c-3.937-6.37 48.306-13.695 97.686-13.695 38.248 0 51.26-10.307 46.205-36.6-2.762-14.366-2.176-17.738 1.978-11.4 10.416 15.89 7.186 46.988-5.591 53.826-16.43 8.793-135.576 15.477-140.278 7.87zm209.453-24.886c-4.032-6.523 54.82-13.749 73-8.963 7.425 1.954 13.5 5.939 13.5 8.854 0 6.853-82.268 6.957-86.5.109zm-93.5-75.948c0-9.876 22.153-20.49 43.146-20.67 29.77-.257 34.482 9.808 6.32 13.5-12.356 1.621-28.541 4.918-35.966 7.328-7.425 2.41-13.5 2.338-13.5-.158z" style="fill:#000132" transform="translate(1402.217 -216.628)"/></svg>