<svg xmlns="http://www.w3.org/2000/svg" width="800" height="700"><path d="m-885.622 512.455-242.95 100.633-242.949-100.633-100.633-242.95 100.633-242.95 242.95-100.633 242.95 100.633 100.632 242.95-100.633 242.95z" style="fill:#fff;fill-opacity:1;stroke:#000;stroke-width:3.97135067;stroke-linecap:butt;stroke-linejoin:miter;stroke-miterlimit:4;stroke-opacity:1;stroke-dasharray:none" transform="rotate(-22.5 141.76 -2871.665) scale(.75541)"/><path d="M-319.293 2549.702c-29.442-10.787-63.544-36.432-63.544-47.785 0-9.837 32.267-24.691 71.949-33.12 14.878-3.161 33.126-7.128 40.55-8.815 8.425-1.915 13.5-7.538 13.5-14.955 0-10.951-4.17-11.885-53.07-11.885-43.793 0-54.805-1.918-63-10.973-5.461-6.035-9.93-13.233-9.93-15.996s12.15-24.518 27-48.344 27-44.977 27-47.003c0-2.027-14.89-3.684-33.088-3.684-30.891 0-33.877-1.295-44.977-19.5-6.54-10.725-11.902-20.85-11.917-22.5-.015-1.65 25.44-2.071 56.568-.935l56.594 2.065 12.41-24.326c6.826-13.38 12.41-30.846 12.41-38.815 0-11.428 3.962-15.282 18.75-18.24 30.857-6.17 35.02-4.64 45.149 16.6 7.166 15.028 17.732 23.791 40.403 33.509 118.3 50.71 116.23 55.626-26.775 63.585l-69.473 3.867-24.734 39.837c-13.604 21.91-22.533 42.039-19.842 44.73 2.69 2.69 16.734 4.044 31.207 3.007l26.316-1.884-1.545-24c-.849-13.2.877-27.727 3.837-32.281 15.242-23.456 117.708 22.855 117.708 53.2 0 12.783-4.978 16.368-37.381 26.914-40.204 13.085-40.34 13.232-32.179 34.696 4.3 11.311 12.79 15.913 40.5 21.956 40.264 8.78 86.06 33.023 86.06 45.556 0 11.13-17.295 20.068-51.026 26.37-29.18 5.451-38.948.016-26.636-14.82 9.356-11.272 7.65-12.761-26.318-22.984l-28.02-8.433v20.413c0 30.033-17.281 44.512-52.5 43.99-15.675-.233-39.055-4.29-51.956-9.017zm59.456-41.56c0-8.758-4.657-12.532-17.231-13.97-20.144-2.301-30.923 6.096-25.607 19.95 5.79 15.09 42.838 9.92 42.838-5.98zm71.013-127.013c5.336-5.337-13.69-25.987-23.943-25.987-8.801 0-10.06 5.832-4.429 20.509 3.673 9.571 20.944 12.905 28.372 5.478zm-.045-119.956c4.091-4.09-33.143-32.031-42.687-32.031-4.598 0-19.281 25.346-19.281 33.282 0 4.313 57.566 3.151 61.968-1.25z" style="fill:#a2a3ea" transform="translate(637.588 -2026.23)"/><path d="M-325.659 2543.563c-26.026-9.514-58.649-37.188-53.555-45.43 5.334-8.63 39.127-20.661 81.877-29.15 38.228-7.592 40.5-8.968 40.5-24.538 0-18.013-3.657-19.935-49.875-26.223-18.532-2.521-31.861-1.45-37.212 2.991-4.586 3.806-13.867 5.165-20.625 3.02-15.412-4.891-15.379-23.88.084-48.091 6.322-9.9 13.335-22.05 15.583-27 2.248-4.95 9.078-15.503 15.177-23.45 10.822-14.102 10.803-14.718-.77-25.5-12.53-11.674-42.362-15.23-42.362-5.05 0 13.42-22.148 4.757-32.457-12.697l-11.045-18.696 53.251 3.904c29.288 2.147 56.263 1.786 59.945-.804 11.045-7.768 33.38-56.253 29.986-65.097-3.831-9.984-.733-11.945 26.68-16.88 19.983-3.599 22.01-2.486 31.423 17.252 10.17 21.327 24.527 30.156 89.634 55.121 41.055 15.742 42.33 26.648 3 25.656-66.178-1.67-148.165 4.561-157.05 11.935-17.13 14.218-43.608 66.803-40.864 81.158 2.17 11.355 7.733 14.72 29.806 18.03 14.926 2.239 29.35 1.83 32.054-.906 2.704-2.737 5.754-18.476 6.777-34.976l1.86-30 21 1.71c24.397 1.987 63.933 19.883 82.84 37.497 14.641 13.64 17.08 23.85 5.66 23.682-4.125-.06-22.998 4.665-41.939 10.5l-34.438 10.61 3.726 21c5.052 28.471 3.261 26.95 42.37 35.977 37.797 8.722 64.836 20.258 81.28 34.677 15.585 13.665 13.081 16.62-14.083 16.62-16.364 0-27.117 3.464-32.161 10.363-4.168 5.7-12.006 10.364-17.417 10.364-10.874 0-13.228-9.197-3.838-15 10.995-6.796 6.194-15.557-12-21.9-9.9-3.45-18-8.71-18-11.687 0-7.769-28.5-6.696-33.415 1.257-2.268 3.67-.788 8.732 3.288 11.251 12.388 7.656 1.3 27.27-19.398 34.313-34.653 11.792-60.96 13.083-85.297 4.187zm72.096-26.866c6.74-10.906-21.725-36.2-35.873-31.877-23.75 7.258-28.718 14.921-17.623 27.182 11.02 12.178 46.924 15.329 53.496 4.695zm68.726-137.487c0-10.536-20.354-30.068-31.334-30.068-12.422 0-12.51.372-4.815 20.609 4.149 10.912 10.26 15.39 21 15.39 8.332 0 15.149-2.669 15.149-5.93zm0-117.268c0-7.327-42.315-44.8-50.59-44.8-12.109 0-21.579 19.06-17.403 35.03 2.947 11.267 7.633 12.97 35.692 12.97 17.765 0 32.3-1.44 32.3-3.2z" style="fill:#6265e1" transform="translate(637.588 -2026.23)"/><path d="M-315.703 2530.496c-15.425-7.67-20.894-8.215-24.465-2.438-3.454 5.588-8.589 4.3-20.634-5.174-8.82-6.937-16.035-16.174-16.035-20.526 0-9.657 32.778-23.195 81-33.456 44.06-9.374 47.229-11.952 42.299-34.398-3.85-17.53-4.678-17.874-50.107-20.861-36.17-2.379-47.274-1.172-51.177 5.563-3.882 6.7-6.867 7.039-13.5 1.534-4.683-3.887-8.515-10.747-8.515-15.243 0-8.497 31.638-63.848 46.543-81.425 5.04-5.945 6.922-15.162 4.593-22.5-3.288-10.36-8.873-12.43-33.54-12.43-19.57 0-29.664 2.54-29.796 7.5-.214 8.046-23.8-17.497-23.8-25.775 0-2.72 23.75-3.407 52.78-1.527 59.435 3.851 62.184 2.151 79.552-49.198 10.215-30.203 10.666-30.666 34.095-35.042 16.891-3.156 19.894-1.767 23.007 10.637 5.392 21.485 25.006 36.052 72.627 53.942 70.892 26.632 66.806 30.297-35.354 31.71-103.295 1.43-100.678.301-129.89 56.031-18.968 36.184-23.437 51.285-13.33 45.038 3.018-1.865 6.55-.201 7.85 3.697 1.363 4.089 14.912 7.279 32.013 7.538l29.65.449 3-33c2.816-30.982 3.917-32.897 18-31.316 33.948 3.811 59.157 14.34 81.436 34.01 20.65 18.234 21.954 20.837 10.55 21.056-7.158.137-20.658 4.043-30 8.679-9.343 4.636-25.086 10.766-34.986 13.62-19.804 5.712-30.001 31.95-12.418 31.95 5.18 0 9.418 4.959 9.418 11.018 0 8.678 8.94 13.176 42.103 21.18 67.956 16.402 109.169 45.803 64.206 45.803-11.666 0-27.404 5.28-36.08 12.105-8.545 6.72-16.955 9.574-18.908 6.415-1.934-3.13-.814-7.362 2.489-9.403 3.303-2.042 5.47-10.198 4.813-18.124-.988-11.944-6.123-15.595-29.978-21.318-37.355-8.962-46.645-4.991-46.645 19.936 0 10.994-3.24 23.229-7.2 27.189-10.168 10.167-52.132 8.256-75.666-3.446zm61.444-13.908c3.409-3.18 2.431-11.086-2.514-20.325-9.457-17.672-32.194-20.165-52.73-5.781-15.352 10.753-17.43 20.66-4.334 20.66 4.95 0 9 2.502 9 5.56 0 12.178 37.492 12.094 50.578-.113zm69.422-138.474c0-3.865-4.469-11.965-9.93-18-12.109-13.38-38.07-14.725-38.07-1.972 0 4.95 2.7 9 6 9s6 4.05 6 9c0 6 6 9 18 9 9.9 0 18-3.163 18-7.028zm-.052-117.472c-.096-8.253-42.581-49.5-50.986-49.5-4.555 0-12.485 6-17.622 13.335-10.358 14.788-12.752 37.481-3.34 31.665 3.3-2.04 6-.85 6 2.646 0 3.701 13.774 6.354 33 6.354 18.15 0 32.976-2.025 32.948-4.5z" style="fill:#191dcf" transform="translate(637.588 -2026.23)"/><path d="M-305.673 2529.341c-15.872-13.223-13.259-14.98 9.445-6.348 22.1 8.402 47.756-2.16 43.624-17.958-1.922-7.352-.133-11.893 4.686-11.893 12.706 0 16.05 18.625 6.078 33.845-11.768 17.962-43.685 19.139-63.833 2.354zm143.273 8.238c-3.958-3.958 6.935-26.804 15.873-33.293 7.352-5.336-11.48-14.19-48.81-22.95-29.67-6.962-40.152-18.14-25.5-27.194 3.3-2.04 6-1.28 6 1.687 0 2.968 15.525 8.956 34.5 13.306 38.596 8.85 82.836 26.843 88.49 35.99 2.194 3.551-4.284 6.017-15.808 6.017-12.681 0-25.045 5.287-35.27 15.084-8.66 8.296-17.423 13.405-19.475 11.353zm-207.198-21.598c-3.982-3.982-7.24-10.526-7.24-14.543 0-8.67 37.007-23.236 87-34.247 32.175-7.086 36.202-9.635 37.9-23.989 2.365-20.015 11.663-20.879 16.518-1.535 7.464 29.74 1.893 36.255-33.748 39.475-18.267 1.65-40.42 7.725-49.23 13.5-8.81 5.775-20.028 10.5-24.93 10.5-4.902 0-11.19 4.067-13.972 9.039-3.95 7.058-6.645 7.453-12.298 1.8zm-5.013-103.692c-4.096-10.675 3.447-26.754 34.692-73.948 9.395-14.19 17.082-28.366 17.082-31.5 0-3.135 4.232-5.7 9.404-5.7 11.631 0 7.073 17.128-13.042 49.002-7.636 12.1-15.584 28.777-17.663 37.059-2.078 8.28-8.88 19.673-15.114 25.315-10.7 9.684-11.56 9.67-15.359-.227zm56.274-1.207c-9.075-1.506-16.5-6.577-16.5-11.27 0-6.62 8.407-8.213 37.5-7.102l37.5 1.432 1.86-30c1.023-16.5 3.777-31.945 6.12-34.321 12.597-12.774 109.02 31.432 109.02 49.98 0 3.327-2.82 4.307-6.264 2.178-3.445-2.13-13.57.954-22.5 6.852-23.743 15.683-108.683 28.563-146.736 22.25zm97.5-32.675c0 3.704 8.1 6.735 18 6.735 20.945 0 23.295-10.132 7.012-30.24-8.506-10.504-14.605-12.662-27-9.55-13.047 3.274-16.012 7.467-16.012 22.639 0 15.87 1.328 17.517 9 11.15 6.218-5.16 9-5.387 9-.734zm-184.748-95.489c-3.989-6.387-7.252-12.825-7.252-14.305 0-1.48 23.75-1.153 52.78.727 59.435 3.851 62.184 2.151 79.552-49.198 10.166-30.056 10.764-30.687 32.997-34.823 16.11-2.996 19.131-1.286 24.947 14.122 6.068 16.077 5.704 17.042-4.395 11.637-17.88-9.569-27.46-1.328-39.444 33.93-14.592 42.93-26.477 49.428-78.858 43.122-23.323-2.807-42.382-2.472-46.344.816-4.434 3.68-9.205 1.623-13.983-6.028zm150.21-3.442c-16.263-7.248.987-14.334 34.892-14.334 19.605 0 35.646-1.609 35.646-3.574 0-1.966-5.97-12.09-13.266-22.5s-9.321-15.938-4.5-12.287c4.821 3.652 28.323 14.007 52.226 23.01 23.904 9.003 44.881 18.667 46.616 21.475 1.736 2.808-13.772 4.955-34.46 4.77-20.69-.183-53.816 1.271-73.616 3.233-19.8 1.961-39.392 2.054-43.538.207z" style="fill:#0609a1" transform="translate(637.588 -2026.23)"/><path d="M-297.337 2533.819c-18.413-8.88-17.163-17.773 1.5-10.677 18.594 7.07 45-1.853 45-15.206 0-5.226 2.7-7.834 6-5.794 16.191 10.007-3.483 39.29-25.929 38.594-7.19-.224-19.146-3.336-26.571-6.917zm137.892-10.677c7.57-12.123 16.608-16.04 16.608-7.2 0 6.234-13 19.2-19.251 19.2-2.668 0-1.479-5.4 2.643-12zm-217.392-20.349c0-10.303 33.86-24.26 83.961-34.609 26.964-5.569 38.69-10.885 40.664-18.434 4.437-16.965 14.36-12.237 12.273 5.848-1.674 14.509-5.093 16.925-28.898 20.422-14.85 2.18-41.85 10.95-60 19.485-37.489 17.63-48 19.226-48 7.288zm243-2.695c-13.2-5.928-36.825-14.32-52.5-18.647-15.675-4.328-28.5-10.218-28.5-13.09 0-2.87 2.568-5.22 5.707-5.22 11.903 0 76.1 18.475 94.538 27.208 41.862 19.825 23.687 29.033-19.245 9.75zm-243-93.656c0-8.254 26.95-55.814 49.362-87.107 5.699-7.958 12.403-12.428 14.899-9.932 3.98 3.98-32.102 78.012-47.88 98.239-7.884 10.106-16.381 9.484-16.381-1.2zm54-5.626c0-6.148 8.237-8.11 31.5-7.5l31.5.826 3-33c3.318-36.5 4.874-37.19 54.029-23.981 24.991 6.716 71.997 44.724 49.392 39.938-9.018-1.91-15.514.742-19.342 7.894-8.331 15.567-35.73 21.069-47.302 9.498-8.465-8.466-7.205-9.35 13.335-9.35 21.173 0 22.558-1.092 20.786-16.389-1.354-11.693-6.718-18.075-18.715-22.27-23.92-8.363-37.635 1.948-35.56 26.738 2.413 28.852-6.908 35.922-47.358 35.922-26.077 0-35.265-2.17-35.265-8.326zm-44.53-117.234c-23.99-1.987-42.522-6.454-43.878-10.575-1.753-5.323 11.152-6.26 50.81-3.691 59.866 3.878 62.543 2.232 79.93-49.174 10.218-30.212 10.659-30.665 34.168-35.057 24.606-4.598 27.07 9.658 3.67 21.23-9.831 4.86-19.716 17.87-26.084 34.33-11.075 28.623-31.505 49.133-47.251 47.437-5.41-.583-28.524-2.608-51.365-4.5zm124.03-4.1c-17.23-7.674-5.322-14.34 25.614-14.34 32.87 0 33.085-.118 29.102-15.987-3.505-13.965-2.571-15.417 7.386-11.483 6.268 2.477 25.573 9.865 42.898 16.417 33.138 12.534 43.152 25.746 15 19.79a5842.73 5842.73 0 0 0-30.574-6.372c-7.741-1.585-17.463-.07-21.606 3.368-8.841 7.338-56.958 13.444-67.82 8.606z" style="fill:#0a0a60" transform="translate(637.588 -2026.23)"/><path d="M-291.337 2534.899c-18-7.16-17.261-12.93 1.067-8.33 19.48 4.89 38.196-1.647 40.688-14.21 1.283-6.472 3.553-7.792 6.193-3.601 10.51 16.687-24.176 35.598-47.948 26.14zm-85.5-34.572c0-6.082 46.465-22.217 91.5-31.774 28.609-6.07 34.515-9.463 34.591-19.866.073-9.92 1.241-10.73 5.582-3.869 8.986 14.203-3.808 30.324-24.065 30.324-9.884 0-34.007 6.75-53.608 15-36.552 15.384-54 18.675-54 10.185zm222-10.446c-21.45-7.752-44.283-15.483-50.738-17.18-6.456-1.696-10.234-4.588-8.395-6.426 7.42-7.42 113.133 26.238 113.133 36.02 0 5.188-14.567 1.839-54-12.414zm-222-84.236c0-9.539 56.372-94.385 58.49-88.033 1.231 3.694-2.082 14.324-7.363 23.623-5.281 9.299-15.57 27.516-22.865 40.483-12.036 21.396-28.262 35.133-28.262 23.927zm61.5-.477c-16.932-6.832-5.54-10.903 25.16-8.99l32.675 2.036 1.832-32.036c1.762-30.798 2.528-32.094 19.833-33.54l18-1.502-13.5 9.734c-9.789 7.059-13.5 15.802-13.5 31.803 0 12.138-3.24 25.309-7.2 29.269-7.067 7.066-48.544 9.18-63.3 3.226zm116.25-14.545c23.682-6.866 26.201-30.268 4.509-41.878-7.833-4.192-13.22-8.643-11.971-9.892 3.093-3.093 50.91 22.139 55.244 29.15 2.056 3.327-3.218 3.94-12.925 1.504-11.908-2.989-15.19-2.162-11.986 3.022 6.71 10.856-8.139 24.68-25.856 24.071-15.124-.519-15.003-.762 2.985-5.977zm-209.75-111.481c-9.423-9.422-.99-10.89 51.542-8.97l55.552 2.029 13.453-27.69c7.399-15.23 13.453-32.703 13.453-38.83 0-10.837 15.126-18.283 37.5-18.457 15.54-.122 12.737 10.055-3.92 14.236-10.479 2.63-19.412 14.287-32.685 42.65l-18.265 39.032h-56.315c-30.974 0-58.115-1.8-60.315-4zm192.892-8.141c37.245-5.424 41.532-8.298 31.108-20.86-4.24-5.109-6.65-10.142-5.355-11.184 1.295-1.043 21.255 5.713 44.355 15.013l42 16.908-36.722-3.555c-24.135-2.337-38.138-1.263-40.854 3.132-2.287 3.7-18.045 6.352-35.279 5.938l-31.145-.748 31.892-4.644z" style="fill:#010232" transform="translate(637.588 -2026.23)"/></svg>