<svg xmlns="http://www.w3.org/2000/svg" width="800" height="700"><path d="m-885.622 512.455-242.95 100.633-242.949-100.633-100.633-242.95 100.633-242.95 242.95-100.633 242.95 100.633 100.632 242.95-100.633 242.95z" style="fill:#fff;fill-opacity:1;stroke:#000;stroke-width:5.00327635;stroke-linecap:butt;stroke-linejoin:miter;stroke-miterlimit:4;stroke-opacity:1;stroke-dasharray:none" transform="scale(.5996) rotate(-22.5 559.088 -4087.123)"/><path d="M-540.766 3142.22c-2.2-2.2-4-21.1-4-42v-38l-25.5-.714c-14.025-.393-39.118-1.068-55.763-1.5-34.003-.882-62.737-16.056-62.737-33.131 0-10.303 4.844-10.857 69.896-7.986 47.65 2.103 68.667 1.096 66.035-3.163-4.733-7.657 9.238-13.505 32.262-13.505 9.744 0 19.61 4.288 22.742 9.883 4.548 8.127 12.385 9.333 44.114 6.786 32.221-2.587 40.955-1.177 52.965 8.548 11.423 9.25 13.053 13.716 7.926 21.714-5.182 8.082-16.167 10.069-55.68 10.069h-49.226l-1.036 34.997c-.797 26.916-3.721 36.962-12.664 43.5-12.602 9.216-23.022 10.815-29.334 4.503zm-113.501-131.5c-1.926-1.926 11.124-18.245 29-36.264 17.876-18.019 32.501-38.128 32.501-44.687 0-16.09 13.691-20.275 34.136-10.436 12.39 5.963 16.932 12.563 17.119 24.878.14 9.22 3.606 18.834 7.703 21.366 9.62 5.945 4.184 19.795-11.648 29.683-10.471 6.539-14.144 6.256-23.017-1.774-9.717-8.794-12.659-8.354-36.925 5.518-25.898 14.804-41.936 18.649-48.869 11.716zm191.466-11.392c-4.891-4.891-9.938-12.027-11.215-15.858-1.636-4.908-8.942-3.822-24.75 3.679-12.336 5.853-24.077 8.994-26.092 6.98-2.015-2.016 3.718-14.819 12.74-28.452 9.14-13.81 15.115-29.714 13.494-35.913-4.148-15.864 16.81-20.92 35.623-8.594 8.347 5.47 13.8 13.531 12.117 17.916-1.682 4.384 4.856 14.037 14.53 21.45 19.847 15.21 21.844 24.572 8.16 38.256-11.813 11.813-23.155 11.989-34.607.536zm-177.731-94.239c-13.626-14.625-16.283-34.538-4.734-35.48 4.125-.336 23.7-1.01 43.5-1.5l36-.888v-21c0-20.812.237-21 26.346-21 26.381 0 31.28 3.645 39.324 29.26 3.048 9.703 7.505 10.732 32.262 7.448 26.436-3.507 30.099-2.377 45.96 14.178 9.478 9.894 16.08 18.966 14.67 20.16-9.635 8.167-42.407 12.97-62.562 9.17-41.242-7.776-109.939-5.82-132.925 3.784-26.603 11.115-23.3 11.476-37.841-4.131z" style="fill:#9ea0ea" transform="translate(939.41 -2633.857)"/><path d="M-538.566 3109.65c-.152-30.033-2.73-41.769-10.7-48.696-13.09-11.378-71.183-18.395-86.118-10.402-16.098 8.615-55.075-8.376-52.114-22.718 1.353-6.548 6.7-10.007 13.962-9.03 6.474.87 36.333 3.267 66.354 5.327 52.247 3.583 54.728 3.195 57.939-9.083 4.387-16.778 40.217-18.229 50.328-2.039 5.748 9.204 12.237 10.263 44.172 7.21 31.289-2.992 39.829-1.696 52.022 7.895 8.023 6.311 12.853 13.192 10.733 15.29-2.12 2.1-28.587 3.817-58.816 3.817h-54.962l2.052 37.5c1.423 26.002-.122 37.5-5.038 37.5-3.9 0-12.158 6.075-18.352 13.5-11.245 13.48-11.263 13.44-11.462-26.07zm-110.179-99.408c-2.189-2.189 10.861-19.539 29-38.555s32.98-38.826 32.98-44.02c0-13.252 25.723-12.116 38.214 1.686 5.541 6.123 8.475 15.3 6.52 20.393-1.954 5.094-.669 11.043 2.856 13.222 11.973 7.4 7.386 22.372-5.59 18.253-8.964-2.845-12.051-1.049-12.2 7.096-.174 9.507-1.7 9.104-11.906-3.144l-11.705-14.048-20.42 12.62c-11.232 6.942-23.755 16.638-27.83 21.548-8.063 9.716-13.741 11.126-19.919 4.949zm177.506-26.423-11.65-18.402-18.939 15.935c-22.168 18.654-24.457 10.215-5.533-20.404 7.373-11.93 12.603-26.423 11.623-32.208-1.235-7.289 2.14-10.52 10.99-10.52 18.438 0 37.41 11.625 33.9 20.772-1.657 4.318 4.788 15.324 14.322 24.458 17.248 16.525 18.364 30.589 1.926 24.281-4.74-1.82-10.157.697-12.035 5.591-5.139 13.392-11.716 10.851-24.604-9.503zm-172.186-84.933c-17.392-24.83-12.67-28.665 35.305-28.665 45.593 0 57.968-5.801 45.2-21.187-12.387-14.924-2.292-26.813 22.766-26.813 26.582 0 37.388 8.393 37.388 29.04 0 14.122 1.143 14.52 32.357 11.3 29.666-3.063 33.681-1.957 48.298 13.3l15.942 16.64-37.717 3.42c-23.837 2.16-39.17 1.067-41.666-2.973-2.58-4.173-25.328-5.363-65.529-3.427-47.807 2.302-63.19 5.172-68.792 12.832-9.44 12.911-12.384 12.478-23.552-3.467z" style="fill:#6467e2" transform="translate(939.41 -2633.857)"/><path d="M-538.848 3105.72c-.15-63.46 2.128-61.5-71.417-61.5-60.286 0-78.5-4.403-78.5-18.98 0-2.518 31.05-2.915 69-.881 59.84 3.207 69 2.466 69-5.578 0-19.571 37.23-22.399 50.245-3.817 8.15 11.637 12.37 12.375 48.614 8.493 27.77-2.974 42.31-2.075 48.415 2.992 17.234 14.303 7.852 17.772-48.064 17.772-48.983 0-57.6 1.516-62.692 11.03-3.246 6.066-4.48 16.47-2.742 23.117 3.933 15.04-8.183 61.853-16.008 61.853-3.173 0-5.806-15.525-5.85-34.5zm30.556-16c-.26-6.324 1.158-9.868 3.151-7.874 1.994 1.994 2.207 7.169.474 11.5-1.915 4.786-3.337 3.365-3.625-3.625zm-112.512-115.81c18.721-18.87 34.038-39.12 34.038-45 0-14.997 25.215-13.922 39.332 1.677 9.596 10.603 9.942 13.186 2.43 18.114-7.447 4.886-7.027 7.072 2.8 14.572 16.831 12.845 6.483 18.46-17.824 9.67-19.945-7.212-22.378-6.54-50.153 13.85-43.801 32.152-49.02 25.822-10.623-12.883zm154.038 7.665c0-21.674-8.73-23.331-29.745-5.648-24.63 20.725-28.617 15.254-9.457-12.98 9.249-13.628 13.995-27.078 11.892-33.703-2.722-8.579-.349-11.023 10.706-11.023 15.924 0 28.604 10.123 28.604 22.836 0 4.64 6.75 13.746 15 20.236 17.97 14.135 19.256 22.928 3.354 22.928-6.405 0-13.314 2.7-15.354 6-6.77 10.953-15 6.21-15-8.646zm-178.556-87.273c-13.26-21.23-8.856-24.081 37.202-24.081 46.861 0 55.805-4.472 45.913-22.957-7.799-14.572 2.326-25.043 24.213-25.043 19.18 0 35.228 13.948 35.228 30.617 0 15.439 12.193 19.55 37.366 12.6 20.958-5.787 29.635-2.507 44.73 16.911 6.287 8.087 1.155 8.607-45 4.56-62.465-5.476-129.592-.724-153.518 10.87-9.582 4.643-17.707 8.442-18.056 8.442-.35 0-3.985-5.364-8.078-11.919z" style="fill:#171bce" transform="translate(939.41 -2633.857)"/><path d="M-538.766 3099.056c0-32.385 1.96-43.19 7.5-41.366 11.547 3.801 12.878 56.108 1.83 71.881-8.804 12.569-9.33 10.848-9.33-30.515zm-144.244-63.535c-12.98-12.854-2.579-14.69 63.244-11.162 59.84 3.207 69 2.466 69-5.578 0-19.517 37.221-22.412 50.185-3.903 8.102 11.567 12.421 12.3 50.196 8.506 32.616-3.276 42.857-2.312 48.57 4.574 6.002 7.23 4.188 9.335-10.596 12.292-21.572 4.314-95.597-1.95-99.601-8.428-1.573-2.546-11.018-.558-20.99 4.416-13.635 6.802-33.754 8.54-81.19 7.013-34.683-1.117-65.652-4.595-68.818-7.73zm62.206-61.61c18.721-18.871 34.038-39.121 34.038-45 0-12.49 23.449-14.842 34.8-3.49 10.578 10.578 8.8 16.8-4.8 16.8-6.6 0-12 2.542-12 5.65 0 7.43-68.908 60.35-78.582 60.35-4.122 0 7.823-15.44 26.544-34.31zm100.038 13.86c0-1.66 6.793-13.027 15.095-25.26 9.034-13.313 13.69-26.668 11.595-33.267-2.722-8.579-.349-11.023 10.706-11.023 13.99 0 28.604 9.81 28.604 19.2 0 2.64-4.05 4.8-9 4.8s-9 2.248-9 4.996c0 2.747-10.8 13.675-24 24.282-13.2 10.608-24 17.93-24 16.271zm62.857-22.002c-5.978-18.834-.081-19.781 18.951-3.045l17.192 15.118-16.095.19c-11.12.13-17.318-3.66-20.048-12.263zm-95.857.452c-4.693-7.594 3.25-7.594 15 0 7.756 5.012 7.598 5.829-1.146 5.908-5.58.051-11.814-2.608-13.854-5.908zm-92.08-73.48c-16.876-16.877-7.422-22.52 37.726-22.52 46.861 0 55.805-4.472 45.913-22.957-12.156-22.713 29.858-35.77 50.068-15.56 12.282 12.283 7.589 19.33-11.48 17.236-12.506-1.373-15.147.886-15.147 12.958 0 17.325-18.727 26.323-54.785 26.323-13.202 0-28.812 2.573-34.69 5.72-7.167 3.835-12.965 3.44-17.606-1.2zm150.213-8.803c-13.741-2.624-23.942-16.908-17.019-23.83 1.978-1.979 7.71-.183 12.737 3.989 6.823 5.663 15.137 6.064 32.794 1.582 20.198-5.127 25.457-4.323 36.004 5.503 6.793 6.328 12.351 12.751 12.351 14.273 0 3.336-57.386 2.204-76.867-1.517z" style="fill:#090da2" transform="translate(939.41 -2633.857)"/><path d="M-538.766 3101.575c0-18.345 2.7-33.354 6-33.354s6 13.34 6 29.646c0 16.305-2.7 31.314-6 33.354-3.725 2.302-6-8.938-6-29.646zm-146.942-68.296c-10.226-10.226 4.471-12.215 65.942-8.92 59.84 3.207 69 2.466 69-5.578 0-19.317 37.188-22.46 49.962-4.222 7.606 10.86 13.866 12.118 52.215 10.5 30.84-1.301 44.34.353 46.198 5.662 4.296 12.272-87.45 10.197-101.249-2.29-10.01-9.06-11.97-9.037-26.246.317-12.532 8.211-28.315 9.872-84.095 8.849-37.768-.693-70.045-2.636-71.727-4.318zm64.904-59.369c18.721-18.87 34.038-39.12 34.038-45 0-13.429 25.273-14.615 36-1.69 6.202 7.473 5.5 9-4.137 9-6.383 0-17.483 7.95-24.666 17.666-12.419 16.797-61.343 54.335-70.816 54.335-2.452 0 10.86-15.44 29.58-34.31zm115.314-11.666c8.904-13.12 13.503-26.418 11.414-33-2.744-8.646-.335-11.023 11.171-11.023 8.069 0 18.031 4.05 22.14 9 5.975 7.2 5.937 9-.19 9-4.213 0-16.904 10.8-28.203 24-25.724 30.053-36.238 31.355-16.332 2.023zm56.604 6.832c-12.364-14.898-.7-18.342 13.62-4.022 10.582 10.582 11.283 13.167 3.568 13.167-5.279 0-13.014-4.115-17.188-9.145zm-200.77-79.746c-1.71-1.71-3.11-6.71-3.11-11.11 0-5.949 11.441-8 44.646-8 46.861 0 55.805-4.471 45.913-22.956-7.68-14.35 2.269-25.077 23.141-24.951 16.358.098 35.041 9.167 29.762 14.446-1.755 1.755-9.776 4.192-17.826 5.417-10.61 1.613-15.46 6.91-17.636 19.255-2.27 12.883-7.382 18.078-21 21.338-25.094 6.006-80.14 10.311-83.89 6.56zm146.172-16.975c-7.27-8.759-6.702-9.394 5.06-5.66 7.285 2.312 22.299 1.704 33.363-1.35 14.217-3.926 23.077-3.392 30.206 1.822 16.647 12.172 11.828 15.054-25.176 15.054-25.402 0-37.555-2.76-43.453-9.866z" style="fill:#0d0d57" transform="translate(939.41 -2633.857)"/><path d="M-538.766 3101.22c0-16.943 2.331-26.267 6-24 3.3 2.04 6 12.84 6 24 0 11.161-2.7 21.961-6 24-3.669 2.269-6-7.055-6-24zm-121.5-67.37c-12.375-1.294-22.5-4.39-22.5-6.877 0-2.489 31.476-3.32 69.946-1.847 60.847 2.329 69.49 1.49 66.442-6.452-2.526-6.584 1.648-10.16 14.967-12.824 14.603-2.92 20.344-1.02 27.42 9.083 8.05 11.494 13.092 12.48 50.222 9.824 22.7-1.624 42.547-.892 44.104 1.627 8.527 13.797-57.917 16.031-83.287 2.8-21.356-11.139-33.509-11.081-48.46.228-11.349 8.583-61.37 10.451-118.854 4.438zm41.676-59.067c17.503-18.51 31.824-38.808 31.824-45.108 0-12.074 7.211-13.655 27-5.92 11.852 4.632 11.846 4.74-.539 8.677-6.897 2.194-15.862 10.018-19.924 17.388-5.951 10.801-52.068 50.203-66.723 57.01-1.905.884 10.858-13.537 28.362-32.047zm114.874-13.227c7.123-10.003 12.95-23.846 12.95-30.761 0-6.948 3.869-12.574 8.646-12.574 13.007 0 16.379 9.68 6.288 18.055-4.913 4.078-8.934 10.823-8.934 14.99 0 4.166-7.177 12.278-15.95 18.026l-15.95 10.451 12.95-18.187zm-144.424-76.71c-9.501-9.5 3.26-13.836 31.04-10.546 16.132 1.91 36.585 1.653 45.45-.572 14.585-3.66 15.757-5.973 12.319-24.301-4.115-21.934 3.297-27.24 31.065-22.238 19.756 3.558 16.485 13.032-4.5 13.032-15.92 0-18 2.04-18 17.646 0 9.705-2.025 18.849-4.5 20.319-8.711 5.175-88.628 10.906-92.874 6.66zm152.453-7.826c-5.104-3.24 3.394-6.368 23.903-8.797 21.703-2.57 34.146-1.421 39.127 3.615 5.77 5.832.752 7.68-23.902 8.797-17.164.777-34.771-.85-39.128-3.615z" style="fill:#000132" transform="translate(939.41 -2633.857)"/></svg>