<svg xmlns="http://www.w3.org/2000/svg" width="800" height="700"><path d="m-885.622 512.455-242.95 100.633-242.949-100.633-100.633-242.95 100.633-242.95 242.95-100.633 242.95 100.633 100.632 242.95-100.633 242.95z" style="fill:#fff;fill-opacity:1;stroke:#000;stroke-width:3.97135067;stroke-linecap:butt;stroke-linejoin:miter;stroke-miterlimit:4;stroke-opacity:1;stroke-dasharray:none" transform="rotate(-22.5 141.76 -2871.665) scale(.75541)"/><path d="M-708.237 1895.709c-22.058-23.006-32.982-30-46.853-30-26.079 0-49.707-20.57-49.707-43.274 0-31.249 32.925-44.309 65.807-26.103 8.212 4.547 23.164 6.842 33.571 5.153 11.12-1.804 26.355.88 37.395 6.59 24.132 12.479 25.227 12.278 25.227-4.632 0-19.436-10.4-26.564-42.046-28.822-25.568-1.824-26.97-2.895-30.227-23.116-5.114-31.738-9.522-35.633-38.882-34.355-20.408.888-28.643-1.595-35.287-10.641-10.753-14.643-6.622-16.689 54.62-27.043 46.748-7.903 72.164-25.023 61.873-41.674-4.495-7.274-8.776-7.509-25.65-1.407-11.139 4.028-23.251 7.324-26.916 7.324-3.664 0 3.584-19.575 16.108-43.5 22.315-42.633 23.235-43.5 46.088-43.5 19.311 0 23.636 2.223 25.162 12.935 1.115 7.825 7.566 14.372 16.327 16.571 20.937 5.255 30.464 25.533 18.308 38.965-15.359 16.972-11.328 19.623 23.266 15.301 27.006-3.374 37.519-1.78 60 9.104 14.99 7.257 27.256 17.141 27.256 21.965 0 4.824-9.75 17.702-21.664 28.618-19.372 17.747-20.902 21.273-14.451 33.326 4.32 8.073 5.619 21.979 3.236 34.677-3.49 18.61-1.675 23.3 14.863 38.407 25.731 23.501 23.165 43.357-5.96 46.12-11.537 1.096-24.244 4.703-28.237 8.017-11.792 9.786-20.62.164-12.208-13.305 8.53-13.658.45-31.458-15.722-34.641-7.298-1.437-9.857 2.517-9.857 15.228 0 25.665-24.297 68.819-47.387 84.163-31.088 20.66-45.355 17.652-78.053-16.451zm64.929-19.5c6.48-17.145 3.22-22.5-13.696-22.5-7.425 0-18.74-3.964-25.146-8.81-6.406-4.844-16.665-8.894-22.798-9-9.184-.157-10.424 2.719-7.032 16.31 6.255 25.061 20.619 37.5 43.306 37.5 15.502 0 21.462-3.172 25.366-13.5zm-115.06-50.643c-5.58-5.579-11.828-8.458-13.887-6.4-5.905 5.906 3.16 16.543 14.098 16.543 9.159 0 9.142-.79-.212-10.143zm199.382-63.357c.104-2.475-3.443-4.5-7.881-4.5-9.969 0-29.348 20.582-24.214 25.716 4.158 4.158 31.798-14.113 32.095-21.216zm-45.641-7.5c2.337-6.092-.303-9-8.17-9s-10.507 2.908-8.17 9c1.9 4.95 5.576 9 8.17 9 2.594 0 6.27-4.05 8.17-9zm-74.17-39c0-6.667-4-12-9-12-10.85 0-11.6 7-1.8 16.8 9.683 9.682 10.8 9.186 10.8-4.8zm106.466-13.217c17.999-14.938 4.306-28.783-28.466-28.783-25.97 0-36 5.914-36 21.224 0 9.655 4.15 14.774 13.5 16.65 16.95 3.401 41.106-.908 50.966-9.091z" style="fill:#a3a4e8" transform="translate(1047.763 -1389.306)"/><path d="M-697.475 1903.209c-27.351-30.243-31.148-36.707-20.658-35.167 5.133.754 12.793 6.1 17.02 11.882 9.132 12.488 41.986 14.847 55.108 3.957 17.685-14.677 10.96-28.306-17.501-35.473-14.69-3.7-29.206-11.187-32.258-16.64-3.38-6.04-9.411-8.43-15.438-6.118-7.44 2.855-8.864 7.914-5.747 20.427 3.736 15 3.162 15.824-5.853 8.397-8.629-7.109-9.995-6.856-9.995 1.854 0 6.48-2.652 8.45-7.414 5.507-4.077-2.52-15.946-3.847-26.375-2.948-35.417 3.051-52.177-43.75-22.606-63.127 13.578-8.896 18.062-9.19 34.5-2.265 10.392 4.377 31.045 8.313 45.895 8.744 14.85.432 33.286 4.297 40.969 8.59 15.928 8.898 31.03 5.339 31.03-7.315 0-11.03-30.396-45.805-40.037-45.805-4.051 0-9.866 4.467-12.921 9.927-9.044 16.16-25.013 5.254-25.24-17.239-.202-19.839-17.077-46.688-29.344-46.688-3.641 0-11.94 3.322-18.442 7.382-9.77 6.102-13.598 5.606-22.061-2.857-5.632-5.632-8.982-11.497-7.445-13.035 1.537-1.537 26.598-7.471 55.69-13.188 41.332-8.12 54.82-13.333 61.71-23.848 7.337-11.198 7.507-15.553 1.01-25.955-9.865-15.797-15.735-15.703-33.009.524-21.054 19.78-21.707 10.766-2.064-28.49 23.636-47.236 28-51.528 50.207-49.372 14.25 1.383 19.413 5.115 20.827 15.055 1.034 7.269 6.753 14.763 12.709 16.653 5.955 1.89 15.758 8.884 21.783 15.541 10.643 11.76 10.6 12.197-1.512 15.365-8.729 2.282-11.566 6.702-9.463 14.742 2.576 9.851 8.657 11.486 42.803 11.505 29.287.017 45.03 3.21 59.597 12.092 18.603 11.343 21.334 23.639 5.349 24.085-3.93.11-13.572 5.552-21.426 12.093-14.266 11.883-14.27 11.919-3.809 39.31 7.7 20.164 8.7 29.186 3.78 34.107-11.151 11.15-7.692 21.09 14.309 41.11 24.532 22.323 27.889 37.138 7.24 31.956-9.059-2.274-19.416.995-30.316 9.57-18.407 14.478-26.018 12.516-16.977-4.377 4.423-8.266 3.07-14.577-5.357-24.984-13.37-16.513-33.29-15.075-31.107 2.246 2.781 22.066-4.876 50.77-13.544 50.77-4.684 0-11.484 5.544-15.11 12.32-7.545 14.097-40.27 35.624-54.207 35.657-5.157.012-16.092-7.402-24.3-16.477zm-59.322-79.5c-6.612-12.354-13.048-14.952-19.948-8.052-5.464 5.464 7.554 20.052 17.894 20.052 6.617 0 7.067-2.632 2.054-12zm184.793-46.88c14.503-11.16 13.168-31.12-2.081-31.12-9.705 0-14.667 7.37-18.245 27.099-3.182 17.55 1.532 18.482 20.326 4.02zm-31.793-24.966c0-9.269-18.749-22.406-24.198-16.956-2.076 2.076-.673 9.57 3.118 16.652 7.239 13.526 21.08 13.725 21.08.304zm-75-39.154c0-11-3.2-15-12-15-13.71 0-14.422 2.263-5.789 18.394 8.675 16.21 17.789 14.47 17.789-3.394zm108.835-9.023 14.165-12.023-18-14.947c-12.01-9.973-25.39-14.958-40.202-14.978-28.252-.038-37.398 13.539-25.118 37.285 7.177 13.88 12.527 16.686 31.81 16.686 14.482 0 28.495-4.512 37.345-12.023z" style="fill:#6063df" transform="translate(1047.763 -1389.306)"/><path d="M-701.375 1900.223c-16.725-17.803-18.883-35.316-2.528-20.515 30.28 27.403 69.62 14.179 65.487-22.014-1.78-15.586-5.514-19.48-22.755-23.728-50.516-12.447-53.374-12.281-68.432 3.966-11.805 12.738-19.062 15.326-39.2 13.977-38.196-2.558-50.044-35.614-19.854-55.395 13.931-9.129 18.651-9.525 34.5-2.894 10.098 4.225 30.51 8.216 45.36 8.87 14.85.652 33.286 4.552 40.969 8.665 7.683 4.113 17.808 6.005 22.5 4.204 9.887-3.794 11.471-25.125 2.287-30.801-3.434-2.123-4.678-8.794-2.764-14.826 5.122-16.136-29.487-23.056-45.017-9-12.474 11.288-26.667 6.645-21.427-7.01 1.852-4.825-.733-16.702-5.745-26.393-9.275-17.936-5.039-23.456 7.997-10.42 3.96 3.96 7.2 4.98 7.2 2.265 0-2.714 4.164-1.478 9.254 2.746 12.214 10.136 21.41.624 16.723-17.298-2.848-10.893-6.358-13.01-16.303-9.837-25.738 8.213-90.342 14.656-95.475 9.523-7.57-7.57-.688-10.36 52.757-21.4 56.117-11.59 68.054-20.215 67.25-48.582-.681-24.041-11.124-26.672-34.206-8.617-8.25 6.453-16.608 11.793-18.572 11.866-4.128.155 27.383-63.795 37.358-75.813 11.234-13.537 34.839-9.82 41.029 6.46 3.034 7.981 12.893 18.106 21.908 22.5 20.205 9.845 25.59 22.987 9.419 22.987-16.1 0-22.65 18.56-9.207 26.083 5.732 3.207 27.388 5.217 48.125 4.465 27.327-.99 42.689 1.579 55.821 9.336 21.706 12.822 23.644 26.116 3.809 26.116-23.268 0-44.97 42.387-25.523 49.85 11.167 4.285 17.027 28.15 6.913 28.15-19.688 0-13.99 19.895 13.442 46.932l28.478 28.068-22.482 1.86c-14.797 1.226-24.612 5.84-28.711 13.5-3.426 6.402-8.93 11.64-12.23 11.64-3.997 0-4-3.738-.006-11.198 8.258-15.431-4.656-48.802-18.886-48.802-16.87 0-32.509 19.98-36.84 47.068-8.204 51.304-64.08 83.615-92.422 53.446zm-54.958-81.647c-3.967-7.413-10.239-11.042-15.556-9.002-12.09 4.64-11.24 18.222 1.592 25.463 14.245 8.037 22.112-1.236 13.964-16.46zm188.778-41.567c17.127-14.41 16.319-37.3-1.317-37.3-14.538 0-25.925 15.638-25.925 35.605 0 14.971 10.674 15.636 27.242 1.695zm-36.242-28.718c0-12.296-15.462-17.991-31.811-11.717-8.787 3.371-8.152 5.383 4.85 15.365 17.59 13.504 26.96 12.236 26.96-3.648zm32.822-43.232c11.499-9.31 12.256-12.615 6.024-26.292-13.38-29.366-89.846-25.436-89.846 4.618 0 27.564 58.021 42.566 83.822 21.674z" style="fill:#161ace" transform="translate(1047.763 -1389.306)"/><path d="M-698.867 1896.736c-14.773-16.324-12.107-19.194 8.351-8.988 25.87 12.906 47.166 6.227 51.65-16.2 1.963-9.811 7.281-17.84 11.819-17.84 12.215 0 10.007 20.149-4.186 38.192-15.355 19.52-51.975 22.14-67.634 4.836zm145.663-47.093c3.5-7.186 4.735-17.31 2.743-22.5-1.99-5.189-.631-9.434 3.022-9.434 3.653 0 6.642-5.4 6.642-12 0-15.254 6.38-15.148 26.19.435 19.357 15.226 20.384 25.05 2.35 22.482-8.841-1.26-19.27 4.26-30.386 16.083-12.724 13.531-15.346 14.756-10.561 4.934zm-244.093-8.755c-12.587-12.72-8.627-33.06 8.64-44.374 13.931-9.129 18.651-9.525 34.5-2.894 10.098 4.225 30.51 8.216 45.36 8.87 14.85.652 33.286 4.552 40.969 8.665 18.3 9.797 32.156 3.994 30.86-12.924-1.886-24.608 6.552-41.21 18.944-37.277 7.196 2.284 12.595.17 14.898-5.832 1.987-5.177 5.966-9.413 8.842-9.413 6.97 0-7.19 31.698-16.887 37.798-4.194 2.639-7.626 14.199-7.626 25.688 0 25.955-11.18 31.2-44.419 20.841-36.968-11.521-58.686-9.977-68.547 4.874-8.918 13.43-33.52 17.338-40.282 6.397-2.375-3.842.482-5.64 7.146-4.5 14.388 2.464 19.295-23.482 5.446-28.796-12.74-4.89-26.21 7.176-28.488 25.516-1.49 11.999-3.333 13.448-9.356 7.361zm193.963-39.716c-5.358-5.358 2.74-13.463 13.452-13.463 5.614 0 17.605-6.86 26.646-15.243l16.439-15.243v14.889c0 8.189-3.019 16.754-6.708 19.034-10.226 6.32-46.28 13.575-49.829 10.026zm-106.072-32.033c-.335-1.337-1.517-12.337-2.628-24.446-1.962-21.385-1.496-21.95 16.224-19.707 14.316 1.811 18.922-.284 21.393-9.73 4.32-16.524 16.201-11.156 18.514 8.365 1.505 12.706-1.573 17.466-15 23.197-9.292 3.966-21.62 11.157-27.394 15.98-5.775 4.824-10.774 7.677-11.109 6.34zm168.609-29.43c0-3.3 1.19-6 2.646-6 1.455 0 4.314 2.7 6.354 6s.849 6-2.646 6-6.354-2.7-6.354-6zm-63-6c-6.6-2.836-19.425-5.347-28.5-5.579-12.36-.316-16.5-3.433-16.5-12.421 0-12.655 8.73-16.147 15-6 5.79 9.37 46.842 7.041 61.907-3.51 9.294-6.51 12.427-13.135 9.931-21-2.555-8.05-.774-11.49 5.946-11.49 24.667 0 9.457 49.643-18.462 60.257-8.307 3.159-15.603 5.553-16.213 5.321-.61-.232-6.51-2.742-13.11-5.578zm-185.491-29.177c-5.258-8.507-.256-10.531 53.447-21.624 49.918-10.31 69.044-21.427 69.044-40.13 0-11.986 14.772-15.146 21.316-4.559 2.213 3.581-.766 15.405-6.62 26.276-10.914 20.265-24.847 25.622-94.622 36.382-12.61 1.944-26.511 4.911-30.893 6.593-4.382 1.681-9.634.36-11.672-2.938zm253.839-33.475c-1.459-1.459-19.923-5.434-41.033-8.833-55.394-8.921-56.913-16.683-3.507-17.922 34.105-.79 50.037 1.59 63.375 9.47 9.8 5.788 17.817 12.642 17.817 15.23 0 4.902-32.01 6.697-36.652 2.055zm-172.37-67.295c22.245-44.1 27.586-50.053 44.905-50.053 9.881 0 16.22 4.75 20.158 15.107 3.159 8.31 12.28 17.593 20.268 20.63 25.448 9.675 25.331 19.26-.21 17.16-17.158-1.41-24.625-5.375-29.032-15.42-6.716-15.309-14.246-14.882-23.638 1.339-7.062 12.194-40.313 44.728-46.001 45.008-1.965.097 4.133-15.1 13.55-33.771z" style="fill:#0609a0" transform="translate(1047.763 -1389.306)"/><path d="m-691.632 1895.676-14.165-12.033 17.766 6.366c24.73 8.86 44.278 2.598 48.859-15.653 4.252-16.943 18.504-16.575 15.4.398-2.662 14.556-25.057 32.51-40.86 32.755-7.06.11-19.21-5.215-27-11.833zm140.95-56.658c.865-14.954 6.357-19.872 11.999-10.743 1.552 2.511-.712 9.398-5.03 15.305-7.197 9.842-7.779 9.46-6.968-4.562zm-218.115 2.337c0-3.495 2.534-4.788 5.631-2.874 3.097 1.914 8.124-.973 11.17-6.417 3.777-6.75 6.869-7.743 9.723-3.126 2.301 3.724 2.515 9.47.476 12.77-4.944 8-27 7.711-27-.353zm-31.523-3.169c-9.898-9.898-3.85-31.508 11.663-41.672 13.931-9.129 18.651-9.525 34.5-2.894 10.098 4.225 30.51 8.216 45.36 8.87 14.85.652 33.286 4.552 40.969 8.665 18.082 9.68 31.03 4.445 31.03-12.544 0-12.782.535-12.94 10.4-3.075 17.242 17.242 3.122 31.55-29.118 29.507-14.455-.917-38.957-2.267-54.449-3-15.492-.734-31.557-4.71-35.7-8.834-14.186-14.126-34.531-8.888-42.637 10.977-4.147 10.163-9.555 16.463-12.018 14zm274.18-22.987c-13.738-10.045-6.604-20.919 7.774-11.85 11.235 7.088 17.243 20.36 9.216 20.36-2.945 0-10.59-3.83-16.99-8.51zm-68.657-20.79c0-2.916 4.725-6.866 10.5-8.78 5.775-1.913 16.575-7.958 24-13.431 12.011-8.855 13.5-8.917 13.5-.561 0 5.165-6 13.594-13.335 18.732-14.518 10.168-34.665 12.516-34.665 4.04zm-26.052-16.752c-7.02-7.02-4.22-12.478 8.052-15.687 6.6-1.726 12-1.021 12 1.566 0 7.44-15.686 18.486-20.052 14.12zm-91.813-28.944c.476-8.248 4.24-14.998 8.365-15 4.125 0 7.5-2.62 7.5-5.816 0-3.196 4.027-4.266 8.95-2.378 5.109 1.961 10.533-.694 12.641-6.188 4.985-12.989 14.409-12.219 14.409 1.178 0 13.59-11.314 25.2-24.558 25.2-5.587 0-11.712 4.05-13.612 9-5.521 14.388-14.641 10.395-13.695-5.996zm94.342-20.17c-31.622-5.908-30.463-18.035 1.38-14.446 30.12 3.395 50.495-5.152 57.88-24.28 4.675-12.108 5.399-12.27 9.484-2.14 6.047 14.997-15.384 42.799-33.814 43.866-7.924.458-23.642-.892-34.93-3zm-171.477-29.957c3.3-3.27 27.558-10.36 53.906-15.754 47.344-9.694 69.094-21.358 69.094-37.053 0-4.439 2.7-8.07 6-8.07 6.614 0 7.987 17.841 2.476 32.2-1.938 5.051-16.113 13.146-31.5 17.99-35.58 11.2-108.344 18.978-99.976 10.687zm216.98-39.188c-48.747-7.95-46.507-15.705 4.52-15.65 26.33.03 41.515 3.361 54.5 11.96l18 11.922-18-.772c-9.9-.424-36.46-3.781-59.02-7.46zm-133.682-57.36c18.787-40.548 27.045-49.251 44.726-47.133 20.098 2.408 23.167 14.451 4.854 19.047-8.055 2.022-20.108 12.934-26.784 24.25-6.676 11.315-17.647 23.521-24.38 27.124-11.887 6.362-11.841 5.69 1.584-23.287zm69.582-3.474c-4.175-5.03-6.23-10.506-4.567-12.168 4.76-4.76 34.687 8.323 34.687 15.164 0 9.44-21.58 7.293-30.12-2.996z" style="fill:#0b0b5b" transform="translate(1047.763 -1389.306)"/><path d="M-678.403 1902.034c-6.273-3.937-3.022-5.932 12-7.363 14.49-1.38 22.364-5.97 26.529-15.462 6.55-14.93 15.077-18 15.077-5.43 0 18.1-37.93 38.092-53.606 28.255zm-123.432-78.387c-4.555-7.37 5.874-21.823 21.96-30.431 7.962-4.262 17.433-2.509 35.078 6.493 17.145 8.747 27.222 10.697 34.67 6.712 7.036-3.766 17.128-2.832 30.603 2.834 28.902 12.153 41.496 10.716 44.254-5.046 2.142-12.247 2.814-12.482 7.238-2.535 3.27 7.356 1.663 14.179-4.886 20.727-8.27 8.27-12.814 8.657-29.746 2.534-10.992-3.974-32.288-7.226-47.324-7.226-16.982 0-30.17-3.41-34.81-9-11.125-13.406-27.621-10.916-41.085 6.2-7.387 9.392-13.484 12.731-15.952 8.738zm230.86-42.67c10.084-8.39 15.593-10.023 17.232-5.107 2.746 8.24-9.693 17.707-23.054 17.547-6.16-.074-4.324-3.998 5.822-12.44zm-137.348-31.768c-.261-6.325 1.157-9.869 3.15-7.875 1.995 1.993 2.208 7.168.475 11.5-1.916 4.786-3.338 3.364-3.625-3.625zm14.101-16.188c-3.135-5.072-1.497-6.183 5.282-3.581 5.955 2.285 12.339-.268 16.205-6.48 5.737-9.218 6.2-9.048 4.59 1.68-2.059 13.724-19.342 19.28-26.077 8.381zm63.425-11.312c-6.482-4.19-.606-5.868 21-6 32.866-.202 39.66-3.064 49.83-21 6.728-11.865 6.807-11.859 6.987.57.1 6.913-4.755 17.038-10.79 22.5-12.072 10.925-52.532 13.297-67.027 3.93zm-153.577-23.066c1.885-3.051 21.686-8.798 44.002-12.772 57.508-10.239 58.793-10.754 67.518-27.057 9.208-17.205 18.42-14.788 13.618 3.573-3.969 15.177-31.086 27.466-71.179 32.255-16.16 1.93-35.683 4.869-43.385 6.529-7.77 1.675-12.477.55-10.574-2.528zm246.577-37.295c-9.9-2.32-30.15-4.729-45-5.351-20.954-.878-24.313-2.286-15-6.288 17.588-7.558 51.427-6.557 71.78 2.125 21.34 9.101 13.492 15.439-11.78 9.514zm-163.094-65.609c14.6-33.085 28.548-43.437 48.787-36.211 10.163 3.628 9.177 5.052-7.534 10.878-10.585 3.69-21.6 12.906-24.505 20.503-2.902 7.59-11.04 18.991-18.083 25.336-12.55 11.305-12.523 10.894 1.335-20.506zm67.094-.03c-4.721-7.64 9.18-7.64 21 0 7.317 4.728 6.541 5.833-4.146 5.908-7.23.051-14.815-2.608-16.854-5.908z" style="fill:#010232" transform="translate(1047.763 -1389.306)"/></svg>