<svg xmlns="http://www.w3.org/2000/svg" width="800" height="700"><path d="m-885.622 512.455-242.95 100.633-242.949-100.633-100.633-242.95 100.633-242.95 242.95-100.633 242.95 100.633 100.632 242.95-100.633 242.95z" style="fill:#fff;fill-opacity:1;stroke:#000;stroke-width:3.97135067;stroke-linecap:butt;stroke-linejoin:miter;stroke-miterlimit:4;stroke-opacity:1;stroke-dasharray:none" transform="rotate(-22.5 141.76 -2871.665) scale(.75541)"/><path d="M-335.711 2556.519c-55.47-14.908-66.31-36.232-42.331-83.265 11.901-23.343 11.901-23.414 0-34.502-15.126-14.092-15.02-23.092.509-42.833 8.128-10.333 20.666-17.123 36.206-19.608 21.892-3.501 23.044-4.606 14.565-13.974-19.76-21.835-5.028-29.763 59.718-32.14 24.398-.895 30.052.852 31.892 9.858 1.23 6.02-2.33 15.993-7.912 22.16-9.67 10.686-9.177 11.619 10.497 19.839 11.354 4.744 27.16 10.642 35.122 13.106 48.81 15.106 87.845 54.159 90.327 90.37 2.092 30.521-5.756 42.63-36.088 55.679-60.802 26.157-131.29 31.762-192.505 15.31zm157.128-44.302c21.734-10.518 25.497-25.221 13.126-51.292-13.435-28.311-42.464-49.741-81.672-60.29l-31.839-8.566-17.775 19.52-17.774 19.52 50.245 4.571c54.73 4.98 66.304 10.557 66.304 31.952 0 21.424-16.567 26.417-74.164 22.353-43.391-3.063-50.697-5.02-44.885-12.021 5.01-6.038 5.121-10.183.398-14.906-11.949-11.95-25.349-.572-25.349 21.522 0 34.07 15.492 40.83 87 37.968 33-1.32 67.373-5.97 76.385-10.33zm-148.88-114.91c-4.546-7.354-16.858-6.445-25.162 1.86-5.226 5.225-5.314 9.156-.34 15.15 5.583 6.727 8.576 6.413 17.716-1.859 6.049-5.474 9.553-12.292 7.786-15.151zm112.621-59.576c1.52-4.56 9.314-9.837 17.319-11.727 21.2-5.005 17.804-19.787-6.445-28.056-47.428-16.174-119.96-3.915-143.234 24.21-10.346 12.502-26.944 12.785-37.031.631-6.614-7.97-1.88-15.14 32.69-49.5 23.458-23.315 41.822-47.106 43.75-56.68 4.225-20.968 24.38-22.199 42.78-2.613 16.143 17.184 16.335 23.172 1.045 32.72-23.534 14.698-12.316 19.392 46.5 19.459 32.175.037 68.444 1.71 80.597 3.72 22.265 3.68 58.903 32.893 58.903 46.963 0 12.678-29.137 21.32-85.323 25.309-44.754 3.176-53.828 2.396-51.55-4.436z" style="fill:#a3a4ea" transform="translate(646.01 -2038.931)"/><path d="M-343.664 2551.144c-49.801-13.696-55.736-26.666-34.06-74.44 10.753-23.702 11.047-27.434 2.868-36.472-21.055-23.265-2.74-60.123 29.874-60.123 24.466 0 31.609-8.978 18.589-23.365-11.382-12.577-7.082-18.635 13.229-18.635 8.142 0 25.157-3.102 37.81-6.893 17.985-5.388 25.011-5.228 32.196.735 12.797 10.62 11.463 18.158-3.214 18.158-10.093 0-11.631 2.515-8.255 13.5 2.283 7.425 4.49 13.649 4.905 13.83.415.183 20.91 8.271 45.545 17.975 51.785 20.397 76.495 39.127 88.025 66.722 15.551 37.22 11.861 45.355-29.316 64.627-32.414 15.172-46.348 17.903-102.739 20.138-40.243 1.595-62.082 4.586-57 7.805 11.991 7.596-2.9 6.217-38.457-3.562zm172.355-41.26c18.37-12.036 19.59-29.734 3.83-55.58-12.637-20.723-44.285-46.618-64.447-52.731-7.127-2.16-16.233-7.874-20.235-12.697-17.918-21.59-62.857 5.94-58.574 35.881 1.58 11.045 7.027 12.67 51.502 15.352 35.17 2.121 51.396 5.636 55.408 12 12.769 20.255 6.942 23.57-39.146 22.27-24.751-.699-45.001.44-45 2.53.004 5.005-25.582 11.614-29.561 7.636-1.699-1.699.493-5.302 4.87-8.008 6.454-3.988 6.021-7.878-2.286-20.556-8.057-12.297-12.528-14.417-20.927-9.922-5.875 3.144-12.187 9.64-14.027 14.436-4.402 11.472 6.387 49.919 15.656 55.79 23.188 14.687 137.613 10.192 162.937-6.4zm-157.631-97.705c15.605-14.122 13.627-20.07-6.674-20.07-19.277 0-27.28 7.719-22.074 21.287 4.408 11.488 15.214 11.03 28.748-1.217zm115.929-74.14c-2.087-3.377 4.468-7.715 14.77-9.776 10.188-2.037 19.842-5.84 21.455-8.449 6.913-11.185-29.183-28.545-73.528-35.364-54.346-8.357-79.625-1.37-105.26 29.096-12.656 15.042-16.63 16.713-25.072 10.54-8.905-6.511-5.276-12.164 32.324-50.366 25.101-25.502 42.354-48.114 42.354-55.51 0-17.859 16.359-21.67 34.59-8.058 21.768 16.252 23.604 25.957 4.91 25.957-16.35 0-17.303 1.678-12.05 21.228 3.05 11.357 7.86 12.213 67.417 12 35.273-.125 71.35 1.796 80.17 4.27 16.756 4.7 52.963 32.187 52.963 40.207 0 2.55-17.346 6.415-38.547 8.587-21.2 2.172-46.175 7.928-55.5 12.792-19.783 10.318-35.695 11.423-40.996 2.845z" style="fill:#6064e0" transform="translate(646.01 -2038.931)"/><path d="M-331.974 2537.703c-24.932-8.308-29.793-8.467-34.614-1.13-4.68 7.123-7.079 6.608-14.494-3.11-11.613-15.222-11.264-20.453 3.608-54.073 11.434-25.849 11.689-29.135 3-38.735-21.906-24.207-.455-60.546 35.74-60.546 22.73 0 26.292-7.949 11.093-24.744-9.04-9.988-8.547-10.911 7.5-14.068 9.445-1.859 28.84-6.077 43.1-9.375 36.79-8.508 52.154 3.39 22.073 17.095-8.25 3.76-15 10.628-15 15.263 0 4.636-5.264 9.806-11.699 11.489-15.222 3.98-35.788 38.004-31.918 52.804 2.648 10.126 8.685 11.536 49.387 11.536 37.303 0 48.312 2.145 56.3 10.972 5.462 6.035 9.93 13.175 9.93 15.866 0 2.692-20.101 3.374-44.67 1.516-34.415-2.603-46.292-1.425-51.735 5.133-3.885 4.682-11.459 8.472-16.83 8.421-7.371-.069-7.87-1.294-2.032-4.998 11.79-7.48-1.266-36.91-16.373-36.91-29.317 0-30.704 57.635-1.843 76.545 12.024 7.879 28.586 10.455 67.22 10.455 57.848 0 100.271-11.272 105.6-28.059 9.765-30.768-22.185-76.886-70.256-101.41-36.428-18.584-24.006-20.035 22.302-2.604 42.502 15.998 76.58 38.16 85.827 55.817 9.399 17.948 14.792 51.201 7.581 46.745-3.57-2.207-13.984 4.163-23.141 14.155-30.727 33.53-132.429 47.018-195.656 25.95zm5.04-127.63c12.056-13.323 11.588-14.75-6.687-20.354-14.832-4.55-29.483 9.562-24.206 23.313 4.832 12.594 17.955 11.336 30.892-2.96zm116.966-76.3a5261.24 5261.24 0 0 1 22.742-8.469c12.088-4.47 12.882-6.712 6.601-18.638-9.839-18.683-16.836-22.359-42.757-22.465-12.327-.05-34.08-3.212-48.338-7.026-23.87-6.384-28.086-5.667-53.205 9.054-15.004 8.793-32.145 21.363-38.091 27.933-5.947 6.571-13.093 11.947-15.882 11.947-12.492 0-2.385-16.777 31.136-51.686 19.913-20.737 39.077-45.941 42.587-56.01 3.51-10.067 8.994-18.304 12.189-18.304 11.093 0 28.78 12.345 35.396 24.705 5.855 10.942 5.229 11.979-5.23 8.659-11.229-3.564-31.148 9.259-31.148 20.05 0 11.76 29.885 19.728 58.98 15.726 44.75-6.154 105.991 2.001 128.236 17.078 29.06 19.695 26.98 25.637-10.516 30.044-18.554 2.18-41.467 7.963-50.919 12.851-9.452 4.888-24.744 8.674-33.983 8.413-9.59-.27-12.936-1.927-7.798-3.861z" style="fill:#161acd" transform="translate(646.01 -2038.931)"/><path d="M-305.968 2542.908c-31.157-6.791-48-17.735-48-31.19 0-11.588.588-11.534 18.503 1.711 15.911 11.764 25.785 13.68 70.5 13.68 59 0 100.978-11.185 106.428-28.357 9.227-29.072-22.757-83.07-57.419-96.938-40.946-16.384-32.147-22.406 9.716-6.649 46 17.315 78.027 39.451 87.657 60.588 8.482 18.616.284 26.948-11.165 11.347-8.118-11.062-8.505-10.132-4.997 12.009 3.216 20.295 1.64 25.956-10.21 36.669-7.707 6.968-23.45 15.833-34.985 19.7-27.051 9.072-99.028 13.314-126.028 7.43zm-76.76-13.96c-9.93-9.93-9.191-16.902 5.254-49.558 11.434-25.849 11.689-29.135 3-38.735-21.906-24.207-.455-60.546 35.74-60.546 22.73 0 26.292-7.949 11.093-24.744-9.04-9.988-8.547-10.911 7.5-14.068 9.445-1.859 29.082-6.142 43.638-9.519 18.032-4.183 28.42-4.184 32.6 0 3.374 3.375 4.965 6.855 3.535 7.735-16.607 10.22-44.209 22.6-50.387 22.6-4.297 0-9.313 6.075-11.145 13.5-10.02 40.616-19.775 58.619-34.553 63.77-13.232 4.613-16.79 11.23-23.432 43.585-10.033 48.878-13.325 55.503-22.843 45.985zm56.092-119.205c9.577-10.584 9.928-13.166 2.43-17.908-14.594-9.232-28.96-6.437-36.17 7.037-5.328 9.955-5.044 13.895 1.289 17.908 12.646 8.014 20.34 6.345 32.45-7.037zm12.998 67.525c4.19-2.662 6.067-11.616 4.382-20.908l-2.947-16.251h46.918c43.604 0 61.317 5.546 61.317 19.2 0 2.64-21.311 4.8-47.358 4.8-36.561 0-48.145 2.052-50.812 9-1.9 4.95-6.913 8.959-11.142 8.908-5.945-.071-6.026-1.148-.358-4.749zm115.67-147.772c14.539-5.33 20.421-10.886 19.12-18.056-2.157-11.876 17.288-11.129 21.266.817 2.97 8.919-29.054 26.009-47.588 25.395-11.079-.366-9.66-1.973 7.202-8.156zm-186-10.377c0-3.845 16.293-23.958 36.206-44.696 19.913-20.737 39.077-45.941 42.587-56.01 7.176-20.584 14.51-22.525 33.872-8.964 17.14 12.005 17.014 20.66-.3 20.66-9.177 0-17.154 6.376-24.396 19.5-5.917 10.725-25.362 30.3-43.21 43.5-17.847 13.2-32.52 26.025-32.604 28.5-.257 7.479-12.155 5.04-12.155-2.49zm273-11.872c-41.955-13.589-113.579-29.187-136.88-29.81l-25.12-.67 30-5.807c62.953-12.186 148.162 7.096 157.538 35.649 2.828 8.615-.643 8.702-25.538.638z" style="fill:#070a9d" transform="translate(646.01 -2038.931)"/><path d="M-331.468 2532.677c-18.118-9.83-23.156-24.573-6-17.56 30.461 12.454 56.496 16.101 93.142 13.05 73.463-6.116 96.604-22.194 85.103-59.125-4.308-13.831-4.246-13.85 8.458-2.503 25.252 22.554 12.43 51.881-29.09 66.53-34.248 12.084-129.068 11.839-151.613-.392zm-55.912-10.48c-4.561-11.885 21.672-78.229 28.308-71.592 4.95 4.95-10.823 66.808-19.382 76.007-3.018 3.244-6.683 1.43-8.926-4.414zm121.912-62.537c-30.472-1.58-40.5-4.26-40.5-10.825 0-12.169 85.357-12.55 95.419-.427 5.33 6.424 4.708 9.136-2.756 12-5.305 2.036-10.098 3.172-10.654 2.526-.555-.647-19.234-2.12-41.509-3.274zm112.16-24.003c-13.013-8.874-37.16-23.816-53.66-33.203-34.056-19.377-15.388-16.1 30.564 5.364 29.4 13.733 55.398 35.33 49.558 41.169-1.542 1.542-13.45-4.456-26.463-13.33zm-202.66.452c-7.165-7.166-4.223-14 6.028-14 5.515 0 14.965-4.469 21-9.93 9.83-8.896 10.972-8.94 10.972-.429 0 18.362-26.81 35.548-38 24.359zm-28-18.869c0-18.685 22.472-37.131 45.234-37.131 22.73 0 26.292-7.949 11.093-24.744-9.04-9.988-8.547-10.911 7.5-14.068 9.445-1.859 29.082-6.142 43.638-9.519 35.62-8.263 46.397 2.05 15.592 14.92-12.387 5.176-27.593 9.41-33.79 9.41-7.107 0-11.267 4.25-11.267 11.51 0 21.146-6.571 31.486-15.37 24.183-14.154-11.746-35.052-3.937-44.63 16.678-9.99 21.5-18 25.4-18 8.761zm186-87.87c11.55-4.304 20.325-10.849 19.5-14.543-1.876-8.404 8.471-8.855 13.578-.592 3.81 6.164-32.05 24.268-46.385 23.417-4.231-.25 1.757-3.978 13.307-8.282zm-186-13.252c0-2.194 16.293-20.957 36.206-41.694 19.913-20.738 39.077-45.942 42.587-56.01 6.885-19.752 11.653-21.7 29.602-12.094 14.673 7.853 15.019 17.789.619 17.789-6.042 0-14.741 7.017-19.331 15.593s-24.348 30.176-43.907 48c-33.185 30.242-45.776 38.058-45.776 28.416zm264-16.918c-27.684-10.207-87.073-20.93-120.361-21.734l-26.639-.642 26.707-5.95c53.429-11.901 150.293 8.173 150.293 31.147 0 7.385-3.111 7.093-30-2.82z" style="fill:#0b0c56" transform="translate(646.01 -2038.931)"/><path d="M-319.468 2535.135c-9.075-3.314-16.5-8.596-16.5-11.737 0-3.253 5.53-2.751 12.846 1.164 16.925 9.057 122.504 4.243 145.065-6.615 9.301-4.476 20.668-15.046 25.26-23.488 6.529-12.004 8.401-12.975 8.589-4.456.466 21.124-12.195 33.77-42.952 42.904-34.551 10.26-106.975 11.48-132.308 2.228zm-64.5-25.019c0-14.354 17.356-54.651 21.677-50.33 4.078 4.077-8.594 46.586-16.402 55.023-3.197 3.454-5.275 1.606-5.275-4.693zm81.83-61.007c-2.735-7.13 1.809-8.986 21.858-8.934 35.049.09 70.312 6.47 70.312 12.719 0 2.868-19.961 5.215-44.358 5.215-33.894 0-45.173-2.123-47.812-9zm135.424-24.989c-14.16-8.536-24.52-16.746-23.02-18.244 3.631-3.632 51.66 23.98 51.72 29.733.061 5.987.74 6.258-28.7-11.489zm-187.254 4.177c0-3.196 3.77-4.365 8.378-2.597 4.624 1.775 12.688-2.94 18-10.523 10.76-15.362 12.99-10.572 3.411 7.326-6.323 11.816-29.789 16.38-29.789 5.794zm-29.866-10.023c-.074-3.76 5.176-13.21 11.667-21 15.356-18.433 15.537-6.773.2 12.835-6.454 8.25-11.794 11.924-11.867 8.165zm53.866-34.523c0-1.297 4.05-3.912 9-5.812 4.95-1.9 9-.838 9 2.358 0 3.197-4.05 5.812-9 5.812s-9-1.061-9-2.358zm4.069-31.913c-3.818-6.178 72.311-23.35 78.054-17.606 1.948 1.948-4.258 6.59-13.79 10.316-25.198 9.85-60.227 13.823-64.264 7.29zm-58.069-35.252c0-2.348 17.446-21.207 38.77-41.91 21.323-20.703 40.516-44.6 42.65-53.104 3.92-15.617 22.169-21.455 29.58-9.463 2.04 3.3.936 6-2.451 6-3.388 0-17.001 14.359-30.252 31.909-21.847 28.937-78.297 76.93-78.297 66.568zm276-19.948c-7.868-4.463-66.662-13.86-132-21.096-11.55-1.279 10.828-1.722 49.728-.984 63.728 1.208 72.026 2.638 83.834 14.446 13.81 13.81 13.343 16.09-1.562 7.634z" style="fill:#000132" transform="translate(646.01 -2038.931)"/></svg>