<svg xmlns="http://www.w3.org/2000/svg" width="800" height="700"><path d="m-885.622 512.455-242.95 100.633-242.949-100.633-100.633-242.95 100.633-242.95 242.95-100.633 242.95 100.633 100.632 242.95-100.633 242.95z" style="fill:#fff;fill-opacity:1;stroke:#000;stroke-width:3.38125634;stroke-linecap:butt;stroke-linejoin:miter;stroke-miterlimit:4;stroke-opacity:1;stroke-dasharray:none" transform="scale(.88724) rotate(-22.5 -24.723 -3638.112)"/><path d="M-171.423 2959.45c-5.064-5.775-13.528-19.036-18.81-29.47-5.282-10.433-16.408-24.322-24.724-30.863-20.574-16.184-19.146-19.167 9.178-19.167 42.347 0 77.702 29.35 77.702 64.502 0 24.345-26.97 33.676-43.346 14.998zm-277.249-10.952c-6.161-6.162-8.97-18.172-8.066-34.5.762-13.776-.695-30.919-3.238-38.095-3.756-10.603-1.512-14.538 11.976-21.003 10.558-5.06 22.812-20.509 33.674-42.452 9.392-18.974 19.879-34.498 23.305-34.498 3.425 0 4.462 4.602 2.304 10.227-7.857 20.476-10.985 102.48-4.606 120.777 5.405 15.505 4.517 20.848-5.6 33.71-13.664 17.37-35.636 19.947-49.749 5.834zm98.992-28.048 38.603-37.5-28.386-1.824c-21.002-1.35-30.758-5.209-37.5-14.835-15.588-22.255-11.631-26.821 20.561-23.728 33.814 3.25 62.544-2.168 57.217-10.788-1.98-3.204-12.795-5.825-24.035-5.825-14.062 0-22.371-3.619-26.646-11.605-10.326-19.296-7.5-21.703 25.29-21.546 17.324.083 31.5-2.549 31.5-5.849 0-3.3-13.285-6-29.52-6-26.427 0-29.948-1.576-33.591-15.038-2.239-8.272-8.53-23.663-13.98-34.202-5.45-10.54-9.91-24.76-9.91-31.602 0-11.879 2.155-12.259 47.862-8.447 41.191 3.435 48.389 2.619 51.642-5.86 5.01-13.055 47.718-13.745 52.666-.85 4.059 10.576 40.092 12.338 49.986 2.444 8.323-8.323 22.772-.857 46.411 23.981l17.567 18.458-23.567 20.575c-22.757 19.868-24.855 20.459-61.067 17.19-32.17-2.903-37.5-1.981-37.5 6.484 0 7.892 6.307 9.886 31.5 9.96 38.078.11 49.207 5.927 43.82 22.902-3.452 10.875-9.494 12.72-46.663 14.25-30.063 1.236-43.519 4.24-45.476 10.152-2.33 7.04 8.941 7.711 69.708 4.157 62.393-3.65 74.618-2.843 87.799 5.793 32.853 21.526 11.234 43.203-31.333 31.416-12.295-3.404-49.027-4.913-81.626-3.352-49.496 2.37-60.29 4.659-65.45 13.878-14.807 26.46-53.387 61.144-75.321 67.716-40.19 12.041-40.264 8.063-.561-30.505zm70.494-186c1.63-8.607-2.417-10.5-22.45-10.5-23.264 0-31.825 8.616-20.156 20.285 8.398 8.398 40.56 1.012 42.606-9.785zm97.11-7.5c0-6.657-6.98-9-26.812-9-21.368 0-26.11 1.828-23.358 9 2.251 5.868 11.584 9 26.811 9 16.763 0 23.358-2.54 23.358-9zm-267.963 44.688c-2.826-14.128-7.619-19.104-20.975-21.775-25.647-5.13-26.572-13.058-2.687-23.038 57.459-24.008 93.461 8.043 52.796 47.003-21.373 20.477-24.65 20.23-29.134-2.19zm98.462-110.505c-14.124-19.425-13.466-21.183 7.94-21.183 14.358 0 17.978-2.324 16.351-10.5-1.73-8.697-7.387-10.155-32.956-8.491-26.015 1.692-31.888.103-37.352-10.106-12.273-22.933-8.494-26.017 26.517-21.643 32.539 4.065 33 3.907 33-11.357 0-22.062 20.089-31.846 39.403-19.19 8.028 5.26 14.597 13.552 14.597 18.426 0 6.178 6.556 8.861 21.65 8.861 20.046 0 21.375-1.102 17.92-14.865-3.073-12.245-1.156-15.512 10.875-18.531 22.698-5.697 36.377-.734 38.473 13.958 1.594 11.174 5.689 13.438 24.3 13.438 23.35 0 36.782 8.386 36.782 22.964 0 6.68-6.711 7.918-30.507 5.632-35.57-3.418-46.438 8.03-24.493 25.8 24.175 19.577 8.845 43.436-18.505 28.799-15.345-8.213-104.792-3.298-114.374 6.285-9.895 9.895-18.055 7.609-29.62-8.297zm112.507-33.194c4.067-6.58-20.92-17.989-39.397-17.989-7.61 0-11.61 4.135-11.61 12 0 9.97 4 12 23.646 12 13.006 0 25.318-2.705 27.361-6.01zm-203.267 23.21c-2.135-10.676-8.165-24.143-13.399-29.927-5.234-5.783-7.742-13.386-5.574-16.893 8.388-13.573 34.073-6.027 58.966 17.324 21.182 19.87 24.198 25.447 18.656 34.5-4.2 6.859-15.394 11.456-30.689 12.603-22.853 1.713-24.275.818-27.96-17.606z" style="fill:#f7a2a0" transform="translate(685.204 -2409.796)"/><path d="M-181.71 2938.45c-7.614-14.025-22.287-32.852-32.605-41.838l-18.762-16.339 19.693-.161c39.59-.325 74.432 23.05 82.49 55.338 3.516 14.085 2.267 16.5-8.532 16.5-6.958 0-12.65 2.7-12.65 6 0 14.89-17.058 3.667-29.634-19.5zm-260.06 12.672c-7.701-4.31-10.307-13.732-10.307-37.27 0-17.326-2.965-34.467-6.59-38.091-4.786-4.787-2.124-8.81 9.729-14.7 9.946-4.944 24.502-23.338 37.28-47.11l20.963-39-4.94 33c-6.202 41.44-6.136 81.288.176 106.5 4.329 17.288 3.475 19.5-7.527 19.5-6.826 0-16.025 5.16-20.444 11.47-6.016 8.589-10.621 10.02-18.34 5.701zm61.693.828c0-3.3 2.309-6 5.13-6 8.739 0 60.87-53.684 60.87-62.683 0-11.044-20.674-17.452-40.364-12.51-9.92 2.49-17.289 1.065-20.475-3.959-11.958-18.856-5.522-22.848 36.84-22.848 33.333 0 42-1.857 42-9 0-9.436-3.618-10.697-33-11.505-14.24-.391-18.424-3.492-20.029-14.84-1.599-11.312.087-13.532 7.977-10.504 15.51 5.951 57.051-2.572 57.051-11.706 0-18.095-45.48-27.992-51.889-11.292-4.457 11.616-20.11.348-20.11-14.476 0-5.42-5.541-20.192-12.313-32.827-6.772-12.635-11.296-26.023-10.054-29.75 1.503-4.51 18.681-6.156 51.313-4.92 41.574 1.576 49.053.408 49.053-7.66 0-13.412 39.412-13.078 46.954.397 4.524 8.084 11.737 9.278 39.036 6.46 31.622-3.263 34.504-2.415 51.749 15.223 21.507 21.998 22.794 28.4 5.708 28.4-6.905 0-19.71 5.63-28.457 12.51-13.338 10.491-20.898 11.885-46.87 8.64-33.53-4.19-39.471-.614-33.966 20.438 3.178 12.152 6.155 13.257 26.816 9.953 28.659-4.582 53.03.983 53.03 12.11 0 6.422-10.85 8.35-47 8.35-25.85 0-48.483 1.483-50.295 3.295-1.813 1.813-.238 9.999 3.5 18.191 6.695 14.674 7.506 14.825 54.795 10.204 73.877-7.22 96.503-5.81 110.53 6.884 6.859 6.207 12.473 12.892 12.477 14.855.004 1.964-14.171 2.502-31.5 1.196-57.262-4.315-151.331-3.704-161.945 1.052-5.74 2.573-14.261 12.023-18.935 21-12.47 23.953-33.808 46.429-57.627 60.697-23.398 14.017-30 15.475-30 6.625zm102-214.556c0-15.38-21.863-26.866-42.504-22.333-16.254 3.57-24.993 14.89-11.496 14.89 3.3 0 6 4.05 6 9 0 6.5 6.667 9 24 9 18.907 0 24-2.241 24-10.557zm95.34-3.647c9.034-10.886-1.335-19.414-30.152-24.798-24.95-4.662-33.037 2.598-23.254 20.877 7.658 14.31 42.652 16.878 53.406 3.92zm-268.273 32.684c-3.99-11.445-10.955-18.207-20.087-19.5-20.617-2.92-17.022-12.324 8.412-22.004 18.316-6.971 25.687-7.157 40.5-1.022 20.68 8.567 23.9 23.654 6.043 28.324-6.636 1.735-13.68 9.583-15.65 17.438-4.814 19.18-11.815 18-19.218-3.236zm102.133-103.68c-11.83-11.83-8.829-24.126 4.83-19.791 14.844 4.711 22.669-11.118 11.907-24.086-8.693-10.475-36.628-11.833-46.214-2.246-9.222 9.222-19.723 1.348-19.723-14.788 0-12.2 2.825-13.379 31.5-13.146 28.893.235 31.387-.831 30.135-12.882-2.632-25.33 43.865-25.466 47.485-.14 2.078 14.535 15.878 19.337 38.94 13.549 12.458-3.127 14.467-6.356 11.445-18.397-3.025-12.05-1.014-15.27 11.493-18.41 17.947-4.503 33.002 5.975 33.002 22.97 0 9.763 2.981 11.396 16.197 8.87 18.497-3.537 43.803 4.355 43.803 13.66 0 4.015-12.735 5.07-35.518 2.941-20.414-1.907-37.055-.831-39.132 2.53-1.988 3.216 4.546 15.14 14.518 26.498 21.186 24.13 22.702 30.326 6.132 25.067-7.047-2.236-12-1.078-12 2.807 0 4.789-3.466 4.76-12.55-.1-21.844-11.692-90.214-10.718-108.376 1.542-18.892 12.753-18.696 12.729-27.874 3.551zm112.042-32.377c7.459-6.344-7.816-20.363-25.881-23.752-31.476-5.905-40.237-.949-31.458 17.795 6.358 13.575 9.597 14.773 31.097 11.508 13.2-2.004 25.009-4.502 26.242-5.55zm-208.041 11.076c-4.255-12.375-8.29-26.446-8.968-31.27-2.283-16.244 17.92-12.927 44.434 7.296 30.565 23.312 34.755 38.46 9.833 35.545-9.075-1.061-16.5.964-16.5 4.5s-4.739 6.43-10.531 6.43c-6.795 0-13.277-7.984-18.268-22.5z" style="fill:#f95f5e" transform="translate(685.204 -2409.796)"/><path d="M-173.525 2946.11c-6.353-11.463-20.193-29.824-30.754-40.803-22.597-23.49-15.938-29.627 21.272-19.607 36.174 9.74 67.503 60.25 37.37 60.25-6.358 0-12.635 4.725-13.948 10.5-1.829 8.04-5.097 5.615-13.94-10.34zm-275.255-1.66c-1.28-4.125-3.593-23.864-5.14-43.866-2.537-32.803-1.556-36.919 10.015-42 7.056-3.098 21.664-21.834 32.462-41.634 19.577-35.896 19.623-35.93 15.698-12-2.164 13.2-7.625 31.291-12.134 40.202-9.37 18.52-10.703 34.798-2.848 34.798 2.942 0 6.98 6.5 8.974 14.443 1.994 7.943 5.287 18.774 7.319 24.068 2.568 6.692 1.085 8.625-4.865 6.341-4.707-1.806-15.947 3.563-24.977 11.932-18.703 17.333-21.27 18.141-24.504 7.716zm94.427-12.089c27.632-23.603 46.34-51.263 42.117-62.268-3.82-9.957-49.84-11.257-49.84-1.408 0 4.653-2.782 4.426-9-.735-18.551-15.395-9.855-21.828 31.028-22.955 22.016-.606 41.163-2.236 42.548-3.621 1.386-1.386.682-8.306-1.563-15.38-3.356-10.573-7.961-12.52-25.898-10.952-16.569 1.45-22.296-.504-23.815-8.121-1.494-7.497 1.102-9.219 10.279-6.82 6.753 1.767 21.927 1.401 33.722-.811 17.606-3.303 21.108-6.342 19.57-16.981-2.722-18.845-36.834-27.873-52.329-13.85-10.898 9.863-11.645 9.356-18.617-12.617-3.995-12.59-11.182-29.131-15.972-36.758-15.022-23.916-8.137-27.967 44.164-25.985 39.563 1.5 48.878.124 51.865-7.66 4.907-12.788 37.75-12.475 44.97.428 4.512 8.062 11.734 9.278 38.61 6.505 31.66-3.268 33.903-2.544 52.926 17.083l19.865 20.495H-135.6c-8.886 0-18.466 4.625-21.752 10.5-4.684 8.374-14.588 10.628-48.906 11.129-29.727.433-44.67 3.216-48.333 9-7.721 12.194-6.674 17.371 3.515 17.371 4.95 0 9 2.7 9 6 0 3.385 17 6 39 6s39 2.616 39 6c0 3.488-19.6 6-46.8 6-28.4 0-49.63 2.831-54 7.2-8.672 8.673-9.713 31.062-1.2 25.8 3.3-2.04 6-.718 6 2.937 0 4.721 21.377 5.456 73.874 2.54 70.329-3.908 100.108.325 100.135 14.235.004 2.358-42.92 3.431-95.386 2.384-103.964-2.075-100.419-3.106-120.018 34.904-10.893 21.126-55.475 60.077-68.571 59.911-3.869-.049 3.192-8.824 15.69-19.5zm77.883-195.905c1.653-6.321.078-14.421-3.5-18-7.05-7.048-39.303-8.74-54.616-2.864-12.06 4.628-12.439 20.358-.49 20.358 4.95 0 9 2.7 9 6s10.484 6 23.3 6c17.912 0 23.995-2.657 26.306-11.494zm90.903 1.852c13.023-4.997 11.92-18.635-2.115-26.146-15.562-8.329-58.633-7.916-63.903.612-10.265 16.609 39.31 35.783 66.018 25.535zm-261.226 30.99c-1.847-14.275-6.172-18.655-22.6-22.884-27.25-7.015-16.63-17.27 21.696-20.952 22.209-2.134 31.038-.443 37.34 7.15 7.217 8.696 6.584 10.382-5.033 13.42-7.308 1.911-16.85 11.9-21.204 22.197l-7.916 18.721-2.283-17.653zm6.716-119.013c0-7.515-4.409-19.96-9.797-27.652-7.578-10.819-8.107-15.033-2.336-18.6 11.155-6.894 26.354-1.091 47.333 18.07 22.299 20.366 24.002 29.178 4.935 25.533-8.086-1.546-17.144 1.302-21.734 6.832-11.132 13.413-18.4 11.761-18.4-4.183zm91.5 9.692c-12.906-5.208-8.19-14.027 7.5-14.027 11.794 0 15-3.049 15-14.265 0-22.61-14.441-30.84-40.229-22.926-23.527 7.221-31.77 5.185-31.77-7.85 0-5.82 9.492-8.878 31.5-10.145 26.262-1.512 31.504-3.703 31.53-13.179.076-28.418 39.687-26.794 43.929 1.8 1.713 11.547 5.112 12.981 27 11.388 23.191-1.688 24.957-3.04 23.914-18.302-.901-13.173 1.995-17.263 14.433-20.385 16.003-4.016 31.693 8.861 31.693 26.011 0 5.143 8.162 7.853 23.646 7.853 13.006 0 25.575 3.121 27.933 6.936 3.136 5.076-4.629 6.016-28.951 3.505-47.603-4.913-63.08 13.254-28.628 33.605 19.297 11.399 25.464 26.61 7.5 18.496-17.308-7.816-116.582-2.464-130.115 7.015-12.804 8.968-14.157 9.202-25.885 4.47zm111.284-28.81c2.085-2.086.91-8.388-2.614-14.004-4.381-6.985-16.166-10.786-37.288-12.026-25.722-1.51-30.882-.118-30.882 8.338 0 16.753 18.776 27.055 43.996 24.141 12.647-1.461 24.702-4.363 26.788-6.449z" style="fill:#eb0f0f" transform="translate(685.204 -2409.796)"/><path d="M-348.787 2926.45c14.826-14.025 29.848-30.877 33.383-37.45 3.535-6.572 8.583-9.794 11.218-7.16 7.837 7.838-11.402 35.5-37 53.195-35.047 24.23-38.348 20.502-7.6-8.585zm167.588 10.03c-3.783-8.302-6.878-17.998-6.878-21.547 0-10.199 16.214 5.539 19.789 19.208 4.655 17.802-5.063 19.563-12.911 2.339zm-270.96-19.03c-.045-15.675-1.525-33.9-3.289-40.5-2.291-8.572.731-13.713 10.582-18 7.584-3.3 22.606-22.2 33.383-42 24.21-44.483 20.046-17.958-5.876 37.427-9.634 20.585-15.795 40.212-13.69 43.617 4.854 7.855-8.1 47.956-15.493 47.956-3.044 0-5.571-12.825-5.617-28.5zm264.082-10.872c-28.318-14.195-36.296-20.63-29.129-23.49 23.61-9.421 77.13 18.471 77.13 40.197 0 6.674-4.45 5.125-48-16.707zm-189.525-44.128c-7.672-7.75-.819-18.811 11.025-17.793 38.88 3.34 70.5-1.012 70.5-9.707 0-11.7 11.362-11.645 15.86.076 6.706 17.476-9.193 25.903-52.722 27.945-23.204 1.088-43.302.854-44.663-.521zm123.187-12.708c-6.977-4.313 67.295-11.792 117.097-11.792 17.021 0 35.562 3.375 41.201 7.5 8.397 6.142-4.427 7.569-70.813 7.88-44.587.208-83.955-1.407-87.485-3.588zm-93.175-35.292c-7.427-7.466-1.104-17.014 9.442-14.257 19.09 4.992 54.071-3.75 54.071-13.515 0-4.8 4.05-8.728 9-8.728 10.396 0 12.566 27.089 2.661 33.21-7.093 4.384-71.29 7.194-75.174 3.29zm105.513-18.5c-6.265-4.049 4.325-5.844 34.854-5.908 27.73-.058 42.491 2.115 40.146 5.908-4.742 7.674-63.126 7.674-75 0zm-203.052-30c0-8.25 1.362-11.625 3.026-7.5 1.665 4.125 1.665 10.875 0 15-1.664 4.125-3.026.75-3.026-7.5zm91.494-3.579c-2.138-6.281-9.271-23.037-15.851-37.234-6.58-14.197-10.175-27.602-7.99-29.788 2.187-2.186 25.073-3.176 50.859-2.199 38.31 1.452 47.548.042 50.523-7.711 4.907-12.788 37.75-12.475 44.97.428 4.514 8.064 11.734 9.278 38.655 6.5 30.837-3.183 34.254-2.218 49.871 14.083 15.903 16.6 16.109 17.5 3.998 17.5-7.023 0-14.287-2.456-16.142-5.458-1.855-3.002-22.468-8.871-45.806-13.042-32.837-5.868-46.837-5.99-61.907-.541-10.71 3.873-34.648 7.041-53.194 7.041-36.284 0-44.418 5.333-34.994 22.941 4.584 8.566 13.619 11.438 38.544 12.253 28.106.918 32.989-.594 35.727-11.065 4.396-16.809 16.295-15.248 16.295 2.137 0 22.68-12.047 28.507-45.599 22.056-24.408-4.693-30.646-4.025-36.736 3.934-6.615 8.645-7.716 8.465-11.223-1.835zm122.058-12.557c-18.033-4.712-11.456-13.755 7.28-10.008 23.583 4.717 48.22-1.91 48.22-12.97 0-10.58 9.523-11.749 15.6-1.914 11.046 17.87-35.548 34.183-71.1 24.892zm-251.953-14.793c8.984-9.005 63.155-10.668 67.453-2.07 1.804 3.608-12.546 6.724-36 7.816-31.366 1.461-37.523.337-31.453-5.746zm43.653-86.236c-.11-6.69-4.609-18.46-9.997-26.153-7.812-11.153-8.226-14.959-2.044-18.78 9.304-5.75 21.217-1.814 43.341 14.322 20 14.586 21.262 23.287 3 20.694-7.933-1.127-17.747 3.03-23.8 10.082-10.293 11.992-10.3 11.991-10.5-.165zm83.8 3.165c0-3.3 6.75-6 15-6 11 0 15-3.2 15-12 0-14.178 10.834-16.021 15.941-2.711 2.058 5.361-1.193 12.89-7.688 17.809-12.99 9.836-38.253 11.753-38.253 2.902zm63.043-11.93c-2.106-3.408.316-4.404 5.69-2.342 15.208 5.836 51.267-3.308 51.267-13 0-10.42 9.556-11.536 15.563-1.817 2.349 3.8-.708 10.55-6.793 15-12.802 9.36-60.311 10.921-65.727 2.158zm89.71-.469c-6.535-10.575.355-12.058 12.685-2.73 10.152 7.68 10.324 8.771 1.416 8.939-5.58.105-11.925-2.69-14.1-6.209zm-194.753-37.587c0-7.093 7.697-9.83 31.5-11.2 26.263-1.512 31.505-3.703 31.53-13.179.044-15.888 18.057-26.411 31.113-18.175 14.935 9.42 16.59 20.54 3.057 20.54-6.754 0-13.142 5.132-14.938 12-2.526 9.66-8.223 12.016-29.2 12.082-14.334.045-32.137 1.71-39.562 3.7-9.788 2.623-13.5 1.038-13.5-5.768zm123-2.158c-23.532-5.923-19.998-10.856 7.78-10.856 27.05 0 28.174-.683 27.094-16.479-.901-13.173 1.995-17.263 14.433-20.385 15.872-3.983 31.693 8.829 31.693 25.666 0 4.473 10.309 8.437 25.5 9.805l25.5 2.297-28.688 1.048c-20.678.756-29.653-1.465-32.142-7.952-4.852-12.643-10.356-11.207-17.247 4.5-6.032 13.75-28.203 18.83-53.923 12.356z" style="fill:#9e0404" transform="translate(685.204 -2409.796)"/><path d="M-340.919 2919.108c14.763-14.763 26.842-29.613 26.842-33 0-3.387 2.7-6.158 6-6.158 12.84 0 4.844 15.165-21.105 40.029-35.86 34.36-46.2 33.593-11.737-.87zm-111.049-3.158c-.15-14.85-1.716-32.4-3.48-39-2.291-8.572.731-13.713 10.582-18 7.584-3.3 21.362-19.5 30.617-36 17.551-31.29 16.291-18.348-2.483 25.5-6.005 14.025-13.951 25.5-17.659 25.5-4.464 0-5.459 7.6-2.945 22.5 2.642 15.666 1.038 26.145-5.282 34.5-8.543 11.294-9.093 10.411-9.35-15zm258.911-16.476c-33.314-11.493-25.253-23.28 9.518-13.917 26.748 7.202 47.574 24.975 27.697 23.637-6.179-.416-22.926-4.79-37.215-9.72zm-187.02-46.53c0-4.336 14.725-7.251 40.166-7.952 22.092-.61 42.004-4.08 44.25-7.715 2.914-4.715 5.353-4.555 8.512.556 8.357 13.522-9.465 21.003-51.17 21.48-27.559.315-41.758-1.85-41.758-6.368zm201-2.719c-75.88-3.186-76.858-3.396-36-7.732 51.096-5.423 100.7-5.816 113.51-.9 9.297 3.567 13.848 15.544 4.99 13.132-2.475-.673-39.6-2.698-82.5-4.5zm-170.981-44.752c.01-3.825 12.523-6.544 30.25-6.574 20.204-.034 32.056-3.002 35.732-8.95 3.666-5.932 7.5-6.898 11.5-2.898 3.546 3.546 3.863 9.456.775 14.454-6.431 10.406-78.286 14.05-78.257 3.968zm116.981-9.523c-8.395-3.607-.286-5.255 27-5.486 27.272-.23 36.294 1.42 30 5.486-10.913 7.053-40.587 7.053-57 0zm-123-42c0-3.3 1.191-6 2.646-6 1.456 0 4.315 2.7 6.354 6 2.04 3.3.85 6-2.646 6-3.494 0-6.354-2.7-6.354-6zm36 .158c-6.696-4.445-2.472-5.997 16.5-6.066 18.626-.067 25.5-2.518 25.5-9.092 0-4.95 2.888-9 6.418-9 3.53 0 5.554 6.075 4.5 13.5-1.518 10.688-6.292 13.827-22.918 15.066-11.55.862-25.05-1.122-30-4.408zm109.918-11.781c15.905-2.212 31.093-7.54 33.75-11.84 3.397-5.495 6.052-5.845 8.936-1.177 8.035 13-3.787 18.63-37.458 17.839l-34.146-.802 28.918-4.02zm-271.985-8.709c8.511-8.512 66.067-12.372 66.067-4.431 0 7.751 1.117 7.507-40.214 8.809-18.331.577-29.002-1.23-25.853-4.378zm103.671-26.142c-5.277-13.753 3.437-16.16 51.856-14.326 38.31 1.452 47.548.042 50.523-7.712 4.907-12.787 37.75-12.474 44.97.429 4.516 8.067 11.735 9.278 38.717 6.494 30.205-3.118 34.423-2.042 47.248 12.044 12.706 13.956 12.91 15.004 2.082 10.73-22.967-9.068-102.08-21.413-114-17.79-6.6 2.006-35.92 6.916-65.154 10.91-43.928 6.003-53.691 5.868-56.242-.78zm22.396-55.526c0-3.3 6.75-6 15-6 9.334 0 15-3.4 15-9 0-4.95 2.7-9 6-9 10.525 0 6.438 17.344-5.605 23.79-14.747 7.891-30.395 8-30.395.21zm-83.526-8.5c-.26-6.325 1.158-9.868 3.151-7.875 1.994 1.994 2.207 7.17.474 11.5-1.915 4.787-3.337 3.365-3.625-3.625zm163.151-1.125c1.994-1.993 7.17-2.207 11.5-.473 4.787 1.915 3.365 3.337-3.625 3.625-6.325.26-9.868-1.158-7.875-3.152zm28.375-6.748c4.95-1.884 10.879-6.318 13.174-9.853 5.393-8.303 13.303-.634 8.073 7.827-2.175 3.52-9.87 6.186-17.1 5.926-8.947-.323-10.272-1.568-4.147-3.9zm-168-7.627c-4.95-3.199-14.915-5.857-22.146-5.908-15.638-.109-24.478-11.526-13.958-18.027 10.96-6.773 27.286-.838 42.635 15.5 13.68 14.561 10.1 19.183-6.53 8.435zm18-27.567c0-5.186 10.572-8.414 31.5-9.619 26.263-1.512 31.505-3.703 31.53-13.179.04-14.18 16.015-24.82 29.498-19.646 8.69 3.334 7.287 6.829-9.684 24.14-16.25 16.577-25.549 20.774-51.344 23.176-23.36 2.176-31.5.917-31.5-4.872zm135-7.784c21.67-3.294 23.891-5.249 22.874-20.128-.892-13.046 2.012-17.267 13.939-20.26 18.218-4.573 33.822 7.186 17.731 13.361-5.755 2.208-12.89 10.397-15.855 18.197-4.702 12.368-9.054 14.073-34.04 13.33l-28.649-.852 24-3.648zm82.43-4.771c5.737-1.502 16.537-1.556 24-.121 7.464 1.435 2.77 2.664-10.43 2.73-13.2.067-19.306-1.107-13.57-2.61z" style="fill:#590c0b" transform="translate(685.204 -2409.796)"/><path d="M-346.022 2926.534c10.387-7.38 23.102-20.204 28.256-28.5 6.854-11.034 9.413-12.381 9.53-5.02.161 10.183-39.478 46.936-50.623 46.936-3.327 0 2.45-6.037 12.837-13.416zm-105.457.27c.33-4.32 2.76-14.604 5.402-22.854 4.588-14.324 4.831-14.138 5.402 4.146.33 10.53-2.102 20.815-5.402 22.854-3.3 2.04-5.73.174-5.402-4.145zm257.402-31.854-21-8.087 18.354-.456c10.094-.251 23.594 3.507 30 8.353 15.047 11.381 1.943 11.472-27.354.19zm-261.026-21.042c-2.054-3.323 1.162-7.765 7.146-9.87 5.984-2.105 15.545-9.51 21.247-16.457 14.834-18.073 13.131-2.424-1.802 16.56-13.247 16.84-20.56 19.526-26.59 9.767zm75.04-22.458c.008-2.475 20.26-4.5 45.005-4.5s44.989 2.025 44.986 4.5c-.003 2.475-20.255 4.5-45.005 4.5-24.75 0-44.993-2.025-44.986-4.5zm194.608-8.837c36.352-3.044 70.72-3.22 77.051-.395 7.06 3.15-18.03 5.25-65.621 5.495l-77.052.395 65.622-5.495zm-230.622-16.308c0-3.106 2.67-7.296 5.932-9.312 3.4-2.102 4.407.306 2.358 5.646-3.989 10.394-8.29 12.296-8.29 3.666zm65.997-22.568c-.002-2.633 13.576-3.846 30.173-2.696 19.265 1.335 33.722-.835 39.98-6 8.34-6.884 9.362-6.749 6.85.91-2.108 6.427-13.534 9.51-39.976 10.786-20.363.982-37.025-.368-37.027-3zm127.396-12.074c9.016-1.369 25.216-1.396 36-.06 10.784 1.335 3.407 2.455-16.393 2.488-19.8.034-28.623-1.058-19.607-2.428zm-73.393-35.97c4.95-1.82 13.725-7.425 19.5-12.455 5.775-5.031 10.5-6.569 10.5-3.417 0 9.912-13.905 20.149-26.7 19.656-8.65-.333-9.63-1.456-3.3-3.783zm93-11.948c9.9-1.57 21.814-5.992 26.476-9.825 6.703-5.512 7.861-5.087 5.536 2.03-1.88 5.76-11.415 9.298-26.475 9.826-17.78.624-19.134.127-5.537-2.03zm-264-13.795c16.773-7.207 45-7.207 45 0 0 3.3-12.825 5.81-28.5 5.579-21.443-.318-25.529-1.699-16.5-5.579zm93-26.728c0-6.443 9.962-7.454 47.863-4.856 40.78 2.795 48.422 1.823 51.642-6.568 4.108-10.705 38.495-14.142 38.495-3.848 0 3.3-5.577 6-12.394 6s-16.942 2.372-22.5 5.271c-5.558 2.9-31.03 6.816-56.606 8.705-36.829 2.719-46.5 1.74-46.5-4.704zm207.509 3.377c-20.482-3.181-22.263-4.661-13.902-11.55 8.014-6.603 12.121-6.243 24.992 2.19 8.47 5.55 15.401 11.131 15.401 12.402 0 1.27-.675 1.926-1.5 1.458-.825-.468-12.07-2.493-24.991-4.5zm-186.509-54.649c-2.071-3.352 2.538-6 10.446-6 7.785 0 16.776-2.025 19.981-4.5 3.205-2.475.746.225-5.464 6-12.832 11.932-19.614 13.155-24.963 4.5zm-76.5-31.816c-12.375-3.465-22.5-8.524-22.5-11.242 0-8.953 20.726-4.89 36 7.058 8.25 6.454 13.65 11.452 12 11.109-1.65-.344-13.125-3.46-25.5-6.925zm31.5-22.184c0-6.943 20.318-6.943 42 0 12.226 3.916 9.73 4.915-13.5 5.402-15.675.33-28.5-2.102-28.5-5.402zm64.64-17.457c2.453-16.704 14.632-25.192 29.14-20.306 5.262 1.772-23.522 37.763-30.202 37.763-.825 0-.346-7.855 1.063-17.457zm75.24 13.064c20.82-2.162 22.71-3.826 21-18.491-1.61-13.806.574-16.396 15.242-18.074l17.122-1.959-17.122 21.459c-14.256 17.866-20.637 21.29-38.122 20.45l-21-1.009 22.88-2.376zm80.506-5.542c4.062-1.644 12.162-1.744 18-.222 5.838 1.52 2.514 2.865-7.386 2.988-9.9.122-14.676-1.123-10.614-2.766z" style="fill:#3a0000" transform="translate(685.204 -2409.796)"/></svg>