<svg xmlns="http://www.w3.org/2000/svg" width="800" height="700"><path d="m-885.622 512.455-242.95 100.633-242.949-100.633-100.633-242.95 100.633-242.95 242.95-100.633 242.95 100.633 100.632 242.95-100.633 242.95z" style="fill:#fff;fill-opacity:1;stroke:#000;stroke-width:3.97135067;stroke-linecap:butt;stroke-linejoin:miter;stroke-miterlimit:4;stroke-opacity:1;stroke-dasharray:none" transform="rotate(-22.5 141.76 -2871.665) scale(.75541)"/><path d="M-120.898 2899.263c-25.649-31.117-24.206-38.115 7.063-34.26 29.677 3.658 33.666 1.493 54.74-29.71 33.348-49.38 17.34-60.936-76.904-55.518-36.485 2.098-73.557 5.45-82.384 7.448-14.514 3.286-16.642 1.485-22.253-18.836-4.344-15.734-4.271-26.081.243-34.516 4.007-7.487 5.522-39.825 4.004-85.436l-2.444-73.39 89.23-4.302c87.43-4.216 89.521-4.028 103.749 9.338 23.553 22.127 18.911 29.549-18.48 29.549-29 0-33 1.454-33 12 0 9.313 4 12 17.861 12 12.346 0 20.843 4.55 27.517 14.736 13.602 20.76 5.964 29.332-22.132 24.84-29.878-4.778-30.572 5.72-.747 11.293 28.498 5.326 37.5 12.832 37.5 31.27 0 11.097-2.556 13.95-10.5 11.713-36.54-10.288-49.5-10.636-49.5-1.329 0 7.652 7.42 9.477 38.539 9.477 35.035 0 40.217 1.678 57 18.461 26.794 26.794 24.988 49.369-7.469 93.379-31.221 42.335-66.343 74.16-81.842 74.16-6.244 0-19.65-10.065-29.79-22.367zm-37.937-161.415c7.425-1.99 13.5-7.268 13.5-11.73 0-4.575-3.746-6.674-8.594-4.814-5.424 2.082-12.064-3.412-18-14.89-12.656-24.474-12.505-24.784 12.094-24.784 24.539 0 26.16-13.63 2.03-17.075-7.991-1.141-17.905-4.847-22.03-8.235-5.882-4.831-7.5 3.702-7.5 39.575 0 47.899.973 49.33 28.5 41.953zm19.5-115.518c0-6.647-5.559-12.79-13.5-14.918-23.331-6.253-28.5-4.219-28.5 11.218 0 13.143 2.6 15 21 15 16.567 0 21-2.386 21-11.3zm-144.816 233.202c-5.399-3.153-11.632-15.413-13.852-27.244-2.22-11.83-5.516-25.369-7.325-30.084-6.334-16.505 26.206-9.439 45.532 9.887 21.141 21.142 23.634 38.348 6.856 47.328-14.05 7.519-18.502 7.535-31.211.113zm51.998-29.543-15.384-30.36h17.641c23.16 0 55.827 27.112 53.374 44.298-1.345 9.425-6.771 13.183-21.03 14.562-17.697 1.712-20.433-.542-34.6-28.5zm72.552 24.828c-1.636-2.648-6.88-16.148-11.652-30-7.909-22.955-7.795-25.187 1.285-25.187 12.837 0 34.848 15.454 42.575 29.89 4.481 8.374 3.61 13.7-3.382 20.693-10.152 10.152-24.027 12.368-28.826 4.604zm54.268-12.08c-12.19-13.47-20.197-49.107-11.034-49.107 15.482 0 37.602 15.18 40.823 28.015 7.374 29.377-10.706 42.178-29.79 21.091z" style="fill:#f7a19f" transform="translate(544.654 -2394.97)"/><path d="M-119.942 2899.13c-23.203-33.51-23.194-33.687 1.518-29.677 28.064 4.554 40.538-1.762 59.975-30.366 20.818-30.636 19.32-44.825-6.842-64.78l-21.956-16.747-62.108 5.976c-48.654 4.68-63.844 8.35-70.127 16.943-14.39 19.68-18.034-1.136-18.451-105.422l-.402-100.162 87-2.474c88.791-2.524 108.08 1.125 116.075 21.962 2.438 6.351-4.19 7.373-31.673 4.881-22.375-2.029-36.233-.76-38.903 3.56-7.239 11.712 6.557 27.02 30.373 33.701 13.116 3.68 23.857 10.74 24.947 16.399 1.624 8.434-2.297 9.473-25.929 6.875-26.414-2.905-27.74-2.347-25.865 10.884 1.596 11.268 6.585 14.563 25.975 17.157 30.572 4.09 39 9.466 39 24.879 0 9.134-1.966 10.792-7.5 6.324-4.125-3.331-18.975-7.949-33-10.262-24.514-4.043-25.5-3.606-25.5 11.321 0 15.093 1.08 15.528 38.573 15.528 35.554 0 40.25 1.581 60 20.208 26.492 24.985 26.878 38.041 1.927 65.093-10.725 11.628-28.95 31.617-40.5 44.42-24.758 27.445-51.842 50.279-59.637 50.279-3.05 0-10.687-7.425-16.97-16.5zm-25.393-169.5c0-8-4-12-12-12-6.6 0-12.036-2.025-12.081-4.5-.045-2.475-1.71-10.57-3.698-17.99-3.315-12.372-2.067-13.18 15.082-9.75 16.237 3.248 18.697 2.062 18.697-9.01 0-7.384-3.821-12.75-9.081-12.75-4.995 0-14.087-3.126-20.205-6.947-6.118-3.82-15.836-5.139-21.595-2.929-8.478 3.253-9.073 5.702-3.124 12.869 4.061 4.894 5.72 15.33 3.708 23.343-2 7.97-1.964 22.856.08 33.078 3.275 16.376 6.126 18.586 23.967 18.586 16.25 0 20.25-2.37 20.25-12zm4.927-103.857c3.02-15.677-9.963-28.143-29.307-28.143-19.273 0-25.371 6.454-19.804 20.96 7.923 20.648 45.46 26.138 49.111 7.183zm-147.313 222.357c-3.221-4.125-8.665-18.975-12.097-33-5.651-23.093-5.188-25.5 4.913-25.5 6.134 0 20.697 8.38 32.362 18.621 23.68 20.791 28.738 38.577 9.208 32.379-8.515-2.703-12-1.078-12 5.596 0 11.245-14.152 12.45-22.386 1.904zm72.32.542c-11.098-13.872-26.957-48.018-23.778-51.198 6.097-6.096 46.056 11.427 54.99 24.115 8.374 11.893 8.257 13.235-1.332 15.24-5.783 1.21-13.424 6.18-16.98 11.043-5.366 7.339-7.558 7.475-12.9.8zm53.108-9.542c-2.96-5.775-7.123-17.79-9.251-26.702-3.773-15.798-3.417-16.043 14.297-9.869 23.969 8.356 39.899 35.07 20.912 35.07-4.95 0-9 2.7-9 6 0 9.79-11.152 6.832-16.958-4.5zm50.039-17.233c-11.407-27.3-11.377-32.267.192-32.267 12.355 0 38.727 26.873 38.727 39.462 0 8.215-1.611 8.67-9 2.538-7.37-6.118-9-5.708-9 2.265 0 17.082-11.533 10.467-20.919-11.998z" style="fill:#fc5f5e" transform="translate(544.654 -2394.97)"/><path d="M-116.846 2898.304c-21.485-25.532-21.034-32.626 1.755-27.62 23.929 5.255 42.677-7.25 63.091-42.084 10.705-18.267 14.335-30.521 11.122-37.544-2.624-5.734-4.931-14.402-5.127-19.262-.594-14.71-47.956-19.767-111.33-11.887-37.723 4.69-59.515 10.26-64.438 16.467-4.09 5.16-9.156 7.661-11.256 5.561-2.1-2.1-4.153-49.635-4.562-105.632l-.744-101.814 84-2.07c66.024-1.627 87.532-.158 100.5 6.864 23.979 12.983 20.25 18.631-9.6 14.54-30.667-4.204-51.9 4.95-51.9 22.372 0 6.679 2.7 10.474 6 8.435 3.3-2.04 6-.88 6 2.575 0 3.456 10.634 7.983 23.63 10.062 12.996 2.078 25.109 7.632 26.916 12.343 2.576 6.713-2.282 8.276-22.484 7.23-28.161-1.458-40.062 3.147-40.062 15.502 0 10.024 13.277 15.288 38.561 15.288 11.216 0 23.744 4.602 29.329 10.773 9.301 10.277 7.964 10.659-29.07 8.3-35.7-2.273-38.82-1.502-38.82 9.586 0 15.039 10.853 19.34 48.79 19.34 32.936 0 61.55 11.952 71.033 29.669 7.547 14.103 8.143 32.255.91 27.785-2.896-1.79-15.721 14.626-28.5 36.48-21.766 37.229-52.058 68.067-66.859 68.067-3.571 0-7.372 4.56-8.445 10.135-1.542 8.005-5.417 6.017-18.44-9.46zm-26.924-168.01c3.764-14.394-4.495-29.97-9.461-17.843-2.591 6.326-5.474 5.54-12.727-3.468-14.504-18.015-11.613-25.603 8.623-22.633 14.858 2.18 18 .556 18-9.304 0-16.776-12.632-25.364-39.722-27.005l-23.278-1.411-1.8 38.04c-1.204 25.444.286 36.75 4.5 34.145 3.621-2.238 6.3 1.36 6.3 8.46 0 10.352 3.778 12.355 23.3 12.355 17.8 0 24-2.676 26.265-11.336zm1.435-114.664c0-18.354-2.041-21.236-16.203-22.87-18.15-2.095-40.797 7.83-40.797 17.877 0 12.146 26.207 29.582 41.74 27.772 13.102-1.527 15.26-4.75 15.26-22.78zm-152.684 211.5c-9.405-33.866-8.343-38.924 7.184-34.215 17.171 5.207 40.5 26.382 40.5 36.76 0 4.375-5.4 7.955-12 7.955s-12 2.7-12 6-3.923 6-8.718 6c-4.963 0-11.409-9.69-14.966-22.5zm66.792-3c-6.24-14.025-10.573-26.444-9.629-27.598 4.426-5.407 45.294 13.33 50.568 23.184 8.322 15.55 7.44 19.768-3.274 15.657-5.25-2.015-10.699.294-12.642 5.358-5.748 14.98-13.158 10.063-25.023-16.601zm69.894 22.5c-2.044-3.3-6.422-15.886-9.729-27.968l-6.012-21.968 15.994 5.575c8.796 3.066 19.335 10.927 23.42 17.468 6.444 10.319 5.89 11.893-4.184 11.893-6.386 0-12.547 4.725-13.691 10.5-1.145 5.775-3.754 7.8-5.798 4.5zm46.317-29.149c-5.512-12.731-8.764-24.405-7.228-25.942 1.537-1.537 11.145 1.524 21.352 6.803 18.95 9.799 25.395 27.288 10.057 27.288-4.675 0-9.773 3.375-11.33 7.5-1.556 4.125-7.34-2.917-12.851-15.649z" style="fill:#e11" transform="translate(544.654 -2394.97)"/><path d="M-129.432 2882.818c-6.022-15.693-5.164-16.419 14.341-12.135 12.261 2.693 22.992.897 32.721-5.478 18.896-12.381 47.28-61.07 42.645-73.15-4.517-11.771 8.237-8.352 16.253 4.357 6.894 10.93-6.478 41.826-30.617 70.74-12.925 15.482-22.204 20.285-43.914 22.732-22.188 2.501-28.284 1.13-31.43-7.066zm-161.943-43.636c-1.579-2.554-4.821-15.043-7.206-27.753-4.178-22.275-3.819-22.955 9.956-18.838 16.713 4.996 45.327 31.002 39.986 36.343-2.017 2.018-9.3.654-16.182-3.03-10.058-5.382-12.514-4.958-12.514 2.16 0 10.228-9.796 17.985-14.04 11.118zm60.249-22.552c-5.508-11.55-7.761-21-5.007-21 14.945 0 43.91 14.867 49.571 25.444 5.945 11.108 5.142 11.835-9.127 8.254-9.194-2.308-15.646-1.406-15.646 2.188 0 12.899-10.2 5.227-19.791-14.886zm67.791 18.896c0-.536-2.445-9.503-5.435-19.927-5.4-18.83-5.327-18.913 11.52-13.04 22.493 7.84 25.831 18.88 8.222 27.19-7.869 3.714-14.307 6.313-14.307 5.777zm48.308-23.592c-8.136-23.34-5.602-25.35 17.135-13.592 22.345 11.554 23.051 16.16 3.846 25.065-13.368 6.198-15.163 5.216-20.98-11.473zm-120.699-40.304c-.316-8.25-1.032-55.98-1.592-106.066l-1.017-91.065 84-2.14c71.659-1.825 86.645-.6 102 8.343l18 10.482-36 .913c-19.8.502-49.5.488-66-.03s-40.8.58-54 2.438l-24 3.381 2.109 46.372c2.13 46.845-6.993 117.177-17.317 133.504-4.38 6.927-5.734 5.585-6.183-6.133zm221.67-3.024c-8.648-4.7-32.92-10.666-53.94-13.26-21.018-2.594-38.243-7.416-38.277-10.716-.034-3.3 15.344-6.806 34.173-7.792 37.589-1.967 66.02 8.715 76.799 28.854 7.476 13.97 2.898 14.68-18.756 2.914zm-180.779-12.402c-9.931-10.095-3.23-14.574 21.8-14.574 21.255 0 26.903-2.302 29.439-12 3.63-13.884 13.509-15.828 18.207-3.583 5.764 15.02-10.728 28.696-38.31 31.766-14.65 1.63-28.66.906-31.136-1.61zm23.391-54.683c-9.944-9.944-2.778-17.65 14.11-15.17 15.339 2.25 18 .692 18-10.54 0-7.862 3.026-12.184 7.5-10.711 10.398 3.424 13.108 28.032 3.42 31.056-21.079 6.578-39.517 8.877-43.03 5.365zm81.61-.126c-22.083-4.253-15.335-13.765 9.765-13.765 13.36 0 26.445 3.831 30.734 9 6.36 7.664 4.91 8.879-9.765 8.183-9.479-.45-23.31-1.987-30.735-3.418zm-88.191-57.788c-10.81-7.913-9.906-8.498 12-7.767 20.287.676 23.966-1.15 25.608-12.71 1.054-7.425 5.95-13.5 10.88-13.5 6.498 0 8.446 5.363 7.083 19.5-1.69 17.522-4.01 19.68-22.88 21.267-11.55.972-26.261-2.084-32.69-6.79zm74.69-1.677c0-7.13 3.576-8.742 13.5-6.082 7.425 1.99 18.225 3.655 24 3.7 5.775.045 10.5 2.782 10.5 6.082s-10.8 6-24 6c-18.102 0-24-2.384-24-9.7z" style="fill:#a20303" transform="translate(544.654 -2394.97)"/><path d="M-129.335 2881.63c-9.444-9.445-2.659-14.66 14.244-10.947 24.742 5.435 43.348-7.76 65.404-46.379 13.107-22.949 18.762-28.589 21.502-21.447 4.337 11.3-8.129 37.508-30.465 64.054-13.08 15.544-20.07 18.719-41.218 18.719-14.007 0-27.267-1.8-29.467-4zm-168.218-63.5c-6.601-24.633-4.698-29.583 9.718-25.277 7.425 2.217 18.9 9.477 25.5 16.132l12 12.102-16.5-3.843c-12.445-2.898-16.5-1.603-16.5 5.272 0 13.957-10.14 10.829-14.218-4.386zm84.716 3.202c-15.994-2.423-36.387-25.702-22.516-25.702 12.556 0 48.018 17.498 48.018 23.694 0 3.468-2.025 5.901-4.5 5.407-2.475-.495-11.926-2.024-21.002-3.399zm42.218-9.74c-2.645-13.834-1.816-14.327 14.512-8.635 19.228 6.703 19.542 18.679.563 21.49-8.956 1.327-13.028-2.145-15.075-12.854zm53.31-4.86c-4.633-17.722-2.685-18.968 16.2-10.364 15.31 6.976 21.426 17.262 10.265 17.262-3.03 0-9.425 1.503-14.211 3.34-5.582 2.141-9.976-1.53-12.253-10.239zm-118.274-44.102c-.394-3.3-1.175-47.172-1.735-97.493l-1.017-91.493 72-.089c39.6-.049 77.555-1.58 84.345-3.404 7.308-1.963 17.948 1.222 26.08 7.807 13.56 10.98 12.886 11.111-52.035 10.21-36.174-.501-75.924.747-88.333 2.775l-22.56 3.687 1.054 66.09c.762 47.699-1.468 71.91-8.013 87-4.987 11.5-9.39 18.21-9.786 14.91zm220.227-1.022c-2.212-2.211-22.237-5.586-44.5-7.5-22.263-1.913-40.479-6.178-40.479-9.478 0-8.842 56.037-10.855 75.679-2.72 21.057 8.723 35.002 23.72 22.056 23.72-4.804 0-10.544-1.81-12.756-4.022zm-173.574-5.574c-9.68-9.679-3.251-14.404 19.595-14.404 17.334 0 24-2.5 24-9 0-9.717 9.304-12.217 14.454-3.884 9.026 14.604-45.229 40.109-58.05 27.288zm17.88-60.12c-8.712-8.712-3.803-12.135 13.715-9.564 13.655 2.004 18 .305 18-7.04 0-5.324 2.888-9.68 6.418-9.68 3.53 0 5.554 6.075 4.5 13.5-1.437 10.113-6.488 13.948-20.133 15.284-10.019.982-20.144-.143-22.5-2.5zm73.715-2.284c0-3.3 9.291-6 20.646-6 11.356 0 22.315 2.7 24.354 6 2.24 3.624-5.937 6-20.645 6-13.395 0-24.355-2.7-24.355-6zm-70.5-48.187c-18.727-7.528-16.86-10.228 4.87-7.039 14.982 2.2 18.995.303 21.764-10.284 3.401-13.006 14.237-14.378 18.26-2.311 2.633 7.9-14.633 25.962-24.322 25.44-3.89-.209-13.147-2.822-20.572-5.806zm67.757.602c-1.899-3.072-1.383-6.801 1.146-8.286 7.421-4.359 43.597 2.738 43.597 8.552 0 7.096-40.341 6.856-44.743-.266z" style="fill:#5a0d0d" transform="translate(544.654 -2394.97)"/><path d="M-125.835 2881.656c-15.48-6.246-6.73-13.147 12.678-9.997 27.887 4.525 42.848-5.268 63.765-41.74 11.565-20.164 17.957-27.023 17.979-19.29.042 15.123-20.975 50.74-37.983 64.368-12.317 9.868-40.302 13.17-56.439 6.66zm-170.675-69.526c-3.638-18.995 8.245-22.117 27.822-7.31 11.2 8.472 11.046 8.81-4 8.81-8.606 0-16.775 3.375-18.154 7.5-1.379 4.125-3.93.075-5.668-9zm69.822-1.31c-11.457-8.665-11.445-8.812.707-9 6.794-.104 17.594 3.774 24 8.62 11.456 8.665 11.445 8.811-.707 9-6.794.104-17.594-3.774-24-8.62zm57.353-.19c0-11.357 6.513-11.416 21.354-.19 11.155 8.437 10.95 8.816-4.854 9-10.751.123-16.5-2.946-16.5-8.81zm54-6.642c0-6.327 3.263-8.39 9.491-6 5.22 2.003 10.78 3.642 12.354 3.642 1.575 0 1.195 2.7-.845 6-5.908 9.56-21 6.943-21-3.642zm60.786-50.834c-50.911-6.6-53.667-11.568-6.286-11.333 24.3.12 42.796 3.44 50.147 9 13.001 9.833 13.704 9.796-43.861 2.333zm-183.148-10.024c2.706-5.775 6.545-40.2 8.53-76.5l3.608-66 1.112 67.01c1.13 68.065-1.407 85.99-12.171 85.99-3.59 0-4.023-4.22-1.08-10.5zm68.362 3.418c11.55-3.3 24.375-8.787 28.5-12.194 4.125-3.406 7.5-3.703 7.5-.659 0 11.64-15.229 19.914-35.7 19.394l-21.3-.541 21-6zm-3-52.918c-2.09-3.383 2.775-6 11.156-6 8.174 0 19.809-1.856 25.854-4.124 9.675-3.63 10.005-2.911 2.756 6-9.017 11.085-33.87 13.662-39.766 4.124zm81 0c0-6.869 8.553-6.869 30 0 13.387 4.287 12.58 4.868-7.5 5.402-12.375.329-22.5-2.102-22.5-5.402zm0-48c-6.83-4.414-4.297-5.839 10.5-5.908 10.725-.051 19.5 2.608 19.5 5.908 0 7.621-18.207 7.621-30 0zm-66-3.997c8.25-1.568 18.618-7.386 23.04-12.928 7.36-9.226 7.863-9.064 5.95 1.925-1.58 9.08-7.186 12.226-23.039 12.928-13.537.6-15.643-.081-5.95-1.925zm-78-51.554c0-7.179 16.435-9.65 87.665-13.177 60.672-3.006 89.677-2.33 94.2 2.193 4.714 4.713-1.743 6.657-23.165 6.973-87.072 1.284-138.823 4.169-148.2 8.262-7.32 3.196-10.5 1.91-10.5-4.251z" style="fill:#3c0000" transform="translate(544.654 -2394.97)"/></svg>