<svg xmlns="http://www.w3.org/2000/svg" width="800" height="700"><path d="m-885.622 512.455-242.95 100.633-242.949-100.633-100.633-242.95 100.633-242.95 242.95-100.633 242.95 100.633 100.632 242.95-100.633 242.95z" style="fill:#fff;fill-opacity:1;stroke:#000;stroke-width:5.00327635;stroke-linecap:butt;stroke-linejoin:miter;stroke-miterlimit:4;stroke-opacity:1;stroke-dasharray:none" transform="scale(.5996) rotate(-22.5 559.088 -4087.123)"/><path d="M-396.272 2515c0-4.782 9.45-15.903 21-24.712 29.322-22.366 26.92-28.966-8.993-24.713-28.55 3.381-30.426 2.715-39-13.866-13.37-25.854-11.359-30.015 14.502-30.015 12.93 0 27.78-1.639 33-3.642 12.807-4.914 12.513-45.175-.53-72.662-12.386-26.1-6.05-38.757 22.3-44.556 22.562-4.614 31.834-14.568 48.103-51.64 13.087-29.818 26.15-32.65 49.742-10.786 17.457 16.179 21.359 39.286 6.633 39.286-9.348 0-44.048 21.952-52.165 33-13.106 17.839-5.399 17.708 73.042-1.239l38.634-9.331 14.146 16.445c18.045 20.979 14.98 29.669-11.259 31.92-15.6 1.34-23.49 6.15-31.036 18.927-16.178 27.386-13.456 30.278 28.49 30.278 52.747 0 69.39 6.992 69.39 29.152 0 23.469-9.808 25.382-106.5 20.776-77.986-3.716-88.707-1.536-72.441 14.73 10.154 10.155-8.949 29.704-46.058 47.134-34.444 16.178-51 17.968-51 5.514zm121.778-117.877c3.294-5.264 4.19-16.74 1.991-25.5-3.2-12.753-7.54-15.929-21.77-15.929-13.81 0-18.585 3.246-21.427 14.567-6.105 24.324 2.225 40.4 19.838 38.282 8.458-1.017 18.074-6.156 21.368-11.42zm46.012 101.613c-30.817-36.995-30.628-43.638 1.103-38.739 45.372 7.006 70.167 33.78 49.978 53.97-15.49 15.488-28.796 11.521-51.08-15.23z" style="fill:#faa3a2" transform="translate(679.83 -2035.425)"/><path d="M-372.272 2493.202c24.67-21.912 26.102-24.658 16.593-31.837-5.724-4.321-8.649-9.615-6.5-11.764 2.149-2.149-4.51-3.907-14.795-3.907-11.542 0-20.983 4.02-24.66 10.5-5.293 9.327-6.95 9.495-14.827 1.5-4.877-4.95-9.755-14.256-10.84-20.68-1.666-9.871 2.214-12.049 25.029-14.048 37.681-3.302 43.253-9.469 38.578-42.696-2.133-15.167-7.606-33.51-12.161-40.761-10.816-17.22-5.005-31.102 14.745-35.224 27.018-5.639 33.287-11.317 51.332-46.49 9.622-18.755 21.305-34.1 25.962-34.1s17.034 8.63 27.505 19.18l19.039 19.18-19.984 4.16c-26.55 5.529-54.663 32.535-50.488 48.501 2.804 10.721 6.287 11.62 30.817 7.946 15.21-2.277 39.414-8.13 53.786-13.007 25.017-8.487 26.745-8.29 40.5 4.633 19.528 18.345 18.156 22.206-7.89 22.206-27.976 0-45.524 18.624-39.872 42.316 5.895 24.708 6.266 24.884 52.285 24.884 42.979 0 57.846 5.76 57.846 22.413 0 6.406-18.561 7.69-92.605 6.405-50.933-.884-94.758.545-97.388 3.175-2.63 2.63-.233 12.708 5.326 22.395 9.71 16.92 9.648 17.612-1.598 17.612-6.44 0-24.861 9.45-40.938 21-42.027 30.194-59.892 27.678-24.797-3.492zm100.809-108.115c1.483-17.716-.998-23.447-13.774-31.818-9.384-6.148-20.497-8.65-27.938-6.288-10.091 3.203-11.69 7.247-8.726 22.067 1.996 9.98 3.629 23.372 3.629 29.759 0 9.75 3.609 11.313 22.5 9.75 21.093-1.746 22.613-3.213 24.309-23.47zm40.603 107.463c-11.86-13.856-19.227-27.44-16.41-30.258 2.818-2.818 19.678-.284 37.556 5.644 25.827 8.565 32.855 13.683 34.47 25.103 1.58 11.18-.125 13.518-7.727 10.601-5.827-2.236-11.13-.16-13.17 5.156-5.294 13.794-11.486 10.897-34.72-16.246z" style="fill:#fd6160" transform="translate(679.83 -2035.425)"/><path d="M-390.272 2512c0-3.132 9.248-12.749 20.551-21.37 15.875-12.109 20.133-19.345 18.714-31.806-1.684-14.78-3.78-15.979-25.052-14.328-12.767.99-26.374 5.938-30.237 10.995-6.176 8.084-7.806 7.733-13.5-2.907-10.631-19.865-7.924-22.956 25.024-28.564l31.5-5.362-.738-30.306c-.406-16.668-4.76-38.26-9.677-47.982-10.59-20.94-7.848-32.676 7.632-32.676 23.921 0 41.562-14.367 58.117-47.332 17.957-35.758 28.921-40.086 51.166-20.196 13.706 12.255 13.319 19.528-1.04 19.528-13.017 0-45.562 25.374-54.882 42.79-4.492 8.392-3.97 13.675 1.932 19.578 6.778 6.778 14.7 6.723 49.055-.342 22.534-4.634 45.608-10.907 51.275-13.94 7.035-3.765 14.406-2.642 23.232 3.54 18.158 12.719 16.079 20.374-5.534 20.374-20.991 0-53.568 28.038-53.491 46.039.067 15.681 26.812 25.961 67.543 25.961 35.904 0 58.41 7.285 58.41 18.907 0 4.369-23 5.96-70.5 4.877-96.787-2.206-111.447-1.132-124.853 9.141-11.396 8.733-11.323 9.183 3.353 20.867 12.045 9.59 12.955 11.968 4.621 12.075-5.708.073-24.608 10.922-42 24.108-32.428 24.586-40.621 28.283-40.621 18.33zm120.106-114.503c4.803-8.975 4.54-17.695-.995-33-6.686-18.49-9.922-20.803-29.117-20.803-11.877 0-24.834 3.24-28.794 7.2-9.061 9.061-9.783 43.105-.796 37.55 3.526-2.179 7.884 1.707 9.7 8.647 4.593 17.564 40.662 17.857 50.002.406zm38.731 92.607-23.248-28.371 29.267 4.011c38.017 5.211 71.405 33.95 39.442 33.95-6.436 0-14.067 4.226-16.957 9.391-4.29 7.666-9.524 4.181-28.504-18.98z" style="fill:#ec0f0f" transform="translate(679.83 -2035.425)"/><path d="M-390.272 2513.123c0-8.134 49.46-49.234 55.074-45.765 3.218 1.989 1.242 8.462-4.528 14.838-12.133 13.407-50.546 36.91-50.546 30.927zm178.88-25.324c-8.867-2.675-17.208-3.776-18.537-2.447-1.33 1.329-7.575-3.405-13.88-10.519l-11.463-12.935 29.912 3.977c17.541 2.332 34.842 8.907 41.833 15.898 11.833 11.833 11.834 11.918.088 11.406-6.508-.284-19.087-2.705-27.954-5.38zm-211.708-40.932c-9.816-9.816.46-18.103 28.328-22.847l31.5-5.362-.738-30.305c-.406-16.669-4.76-38.26-9.677-47.983-10.59-20.94-7.848-32.676 7.632-32.676 23.921 0 41.562-14.367 58.117-47.332 18.377-36.593 29.65-40.504 52.5-18.212 11.742 11.456 11.692 11.544-6.452 11.544-15.338 0-22.078 5.349-41.833 33.198-15.812 22.292-28.97 34.366-40.05 36.75-19.055 4.103-19.68 6.581-7.536 29.867 9.689 18.577 11.916 60.356 3.892 73.006-5.246 8.272-70.276 25.759-75.683 20.352zm98.828-29.831c0-8.777 4.144-10.263 23.478-8.42 19.15 1.827 24.742-.121 30.332-10.568 3.77-7.044 5.072-18.424 2.892-25.29-2.845-8.966-1.671-11.73 4.168-9.807 4.58 1.508 8.912 13.127 9.921 26.614 1.556 20.786-.259 24.872-13.782 31.034-8.566 3.902-24.897 7.095-36.292 7.095-15.848 0-20.717-2.505-20.717-10.658zm108.031 5.097c-8.232-2.18-15.931-8.965-17.108-15.077-1.602-8.318.4-10.138 7.959-7.237 5.555 2.131 26.753 3.917 47.108 3.967 35.252.087 58.905 7.013 50.99 14.93-5.452 5.45-71.665 7.994-88.949 3.417zm-82.531-82.673c-7.425-1.43-13.5-5.272-13.5-8.537 0-3.265 2.025-4.721 4.5-3.236 5.676 3.407 83.526-12.514 97.34-19.907 7.127-3.814 14.621-2.491 24.302 4.29 13.792 9.66 13.343 9.963-30.572 20.615-44.33 10.753-56.289 11.74-82.07 6.775z" style="fill:#9a0202" transform="translate(679.83 -2035.425)"/><path d="M-369.272 2490.558c24.838-21.408 33-25.102 33-14.939 0 6.081-44.087 36.255-52.381 35.85-2.54-.124 6.18-9.534 19.38-20.91zm142.93-10.82c-31.648-11.69-31.223-18.035.927-13.818 32.778 4.3 60.374 22.165 32.928 21.318-8.132-.251-23.366-3.626-33.855-7.5zm-199.93-42.129c0-5.242 11.428-10.177 31.5-13.6l31.5-5.375-1.245-35.415c-1.541-43.843 10.447-37.75 14.797 7.521 2.536 26.393 1.255 30.757-11.347 38.645-20.95 13.115-65.205 18.696-65.205 8.224zm112.404-13.51c-9.4-9.4-3.534-14.405 16.885-14.405 18 0 22.466-2.797 28.9-18.1 4.186-9.955 9.456-16.255 11.71-14 6.464 6.463 4.8 22.896-3.4 33.576-8.21 10.695-47.047 19.977-54.095 12.929zm93.096-6.378c-4.125-1.665-7.505-6.177-7.511-10.027-.011-7.077 58.189-7.341 89.698-.407 11.63 2.56 12.879 4.376 6 8.728-9.036 5.717-75.081 6.994-88.187 1.706zm-79.5-85.943c4.95-3.154 21.15-7.495 36-9.647 14.85-2.153 35.566-7.407 46.036-11.675 15.716-6.408 20.95-6.354 30 .31 12.144 8.94 13.707 7.943-31.732 20.243-31.166 8.437-93.275 9.031-80.304.769zm-79.587-3.67c-6.639-6.64 2.772-20.414 13.946-20.414 23.777 0 41.451-14.429 57.975-47.332 17.69-35.227 29.695-40.373 49.451-21.196 7.66 7.435 6.726 8.528-7.288 8.528-10.57 0-18.504 4.624-23.166 13.5-13.192 25.115-43.182 55.463-61.806 62.544-22.607 8.595-24.589 8.893-29.112 4.37z" style="fill:#570a0a" transform="translate(679.83 -2035.425)"/><path d="M-378.272 2503.442c0-1.612 8.1-8.698 18-15.748 9.9-7.049 18-10.515 18-7.702 0 2.813-8.1 9.9-18 15.748-9.9 5.848-18 9.314-18 7.702zm160.99-23.877c-29.702-9.273-37.277-18.317-10.99-13.124 33.861 6.69 42 9.724 42 15.658 0 6.628-2.25 6.444-31.01-2.534zm-205.876-38.757c-8.134-8.134-1.193-13.114 18.28-13.114 32.937 0 44.52-8.906 45.147-34.71l.541-22.29 5.643 19.55c8.295 28.733-.82 40.693-36.371 47.722-16.57 3.276-31.527 4.555-33.24 2.842zm113.886-22.063c3.3-1.1 13.198-3.582 21.996-5.514 10.253-2.251 18.16-9.44 22.026-20.024l6.03-16.513.474 15.3c.649 20.95-10.004 29.788-35.226 29.227-11.715-.26-18.6-1.375-15.3-2.476zm89.42-6.025c-10.295-7.792-7.281-8.654 30.58-8.743 23.1-.054 46.05 2.518 51 5.717 4.95 3.2 6.3 5.962 3 6.14-3.3.176-21.11 1.494-39.58 2.926-23.348 1.811-37.057-.029-45-6.04zm-80.42-77.322c0-5.985 109.859-28.245 114.835-23.268 3.354 3.353-10.764 9.444-36.018 15.54-38.275 9.238-78.817 13.213-78.817 7.728zm-76.765-14.689c1.02-5.298 10.598-11.33 21.547-13.569 26.178-5.354 40.684-19.41 52.817-51.18 9.75-25.531 26.294-35.001 35.4-20.266 2.04 3.3.016 6-4.496 6-4.513 0-18.566 16.01-31.23 35.577-19.03 29.408-27.605 37.085-49.449 44.277-23.849 7.851-26.246 7.77-24.589-.839z" style="fill:#3c0000" transform="translate(679.83 -2035.425)"/></svg>