<svg xmlns="http://www.w3.org/2000/svg" width="800" height="700"><path d="m-885.622 512.455-242.95 100.633-242.949-100.633-100.633-242.95 100.633-242.95 242.95-100.633 242.95 100.633 100.632 242.95-100.633 242.95z" style="fill:#fff;fill-opacity:1;stroke:#000;stroke-width:3.97135067;stroke-linecap:butt;stroke-linejoin:miter;stroke-miterlimit:4;stroke-opacity:1;stroke-dasharray:none" transform="rotate(-22.5 141.76 -2871.665) scale(.75541)"/><path d="M-317.903 2961.806c-3.702-3.702-6.73-16.653-6.73-28.78 0-12.128-1.688-30.488-3.75-40.8l-3.75-18.75h-131.113l-9.045-21.65c-10.315-24.686-8.298-29.96 8.102-21.184 6.31 3.377 38.94 8.032 72.514 10.344l61.041 4.205v-16.046c0-20.678-11.584-24.71-46.056-16.03-30.414 7.659-37.672 3.555-37.852-21.402-.05-7.019-8.382-33.294-18.514-58.389-10.133-25.095-16.724-48.377-14.646-51.738 2.077-3.36 23.192-6.38 46.922-6.709 83.038-1.151 100.764-20.124 19.43-20.796-47-.388-47.826-.659-54.92-18-3.962-9.683-6.281-19.102-5.155-20.932 1.127-1.829 25.475-.923 54.108 2.012 61.765 6.333 68.881 2.788 57.512-28.655-9.745-26.947-5.45-33.03 23.314-33.03 28.352 0 37.01 12.242 31.72 44.849l-3.658 22.537 38.398-4.766c63.81-7.92 67.29-7.413 73.78 10.762 3.219 9.01 4.08 18.155 1.914 20.32-3.465 3.465-70.312 3.785-103.297.494-8.399-.838-12 2.404-12 10.803 0 15.034 25.737 19.076 58.657 9.213 29.938-8.97 42.192-4.412 55.731 20.728 11.027 20.476 11.005 20.875-2.123 38.631-7.295 9.868-13.265 25.787-13.265 35.376 0 9.589-5.16 23.995-11.469 32.015-10.574 13.442-14.342 14.306-48.255 11.063-20.232-1.934-38.02-2.281-39.53-.771-1.51 1.51-2.746 10.508-2.746 19.995v17.25l46.5-4.099c25.575-2.254 52.983-6.505 60.905-9.445 11.327-4.204 17.418-2.517 28.5 7.894 7.753 7.283 14.095 18.171 14.095 24.196 0 10.03-6.452 10.958-76.5 11.001l-76.5.047-1.158 31.184c-.637 17.152-2.64 37.083-4.448 44.292-3.938 15.686-17.328 22.096-26.663 12.761zm-12.73-196.33c0-9.715-4-12-21-12s-21 2.285-21 12c0 9.713 4 12 21 12s21-2.287 21-12zm106.062 2.394c5.052-13.166-8.912-20.627-34.063-18.2-16.088 1.552-21.448 5.04-22.917 14.915-1.725 11.597.853 12.89 25.688 12.89 19.777 0 28.651-2.724 31.292-9.605zm-107.047-47.41c1.357-1.357.868-6.634-1.086-11.726-2.377-6.195-11.44-9.259-27.387-9.259-25.378 0-33.865 6.687-27.975 22.038 2.875 7.492 8.878 8.625 28.807 5.438 13.846-2.214 26.285-5.135 27.641-6.492zm114.984-6.293c0-9.564-13.783-14.692-39.49-14.692-18.885 0-27.12 9.39-17.059 19.451 6.93 6.93 56.55 2.753 56.55-4.76z" style="fill:#f7a4a2" transform="translate(705.626 -2410.809)"/><path d="M-320.852 2949.975c-1.99-7.425-3.655-26.172-3.7-41.66-.112-38.46-12.78-46.84-70.811-46.84-24.233 0-49.013 2.651-55.067 5.891-9.31 4.982-12.394 2.437-20-16.5-4.945-12.315-8.316-23.114-7.49-23.998.825-.884 9.328 2.474 18.894 7.463 12.032 6.275 35.423 9.082 75.892 9.107 51.764.033 58.49-1.172 58.408-10.463-.154-17.658-9.11-26.133-33.411-31.613-17.627-3.976-25.582-3.145-32.85 3.433-13.567 12.277-15.66 11.145-19.998-10.82-2.119-10.725-10.819-37.794-19.334-60.153-8.514-22.36-13.953-44.634-12.086-49.5 2.646-6.895 15.39-8.847 57.771-8.847 43.55 0 55.087-1.85 57.941-9.288 2.058-5.361-1.193-12.89-7.688-17.81-13.969-10.577-69.167-11.551-79.457-1.402-6.094 6.011-9.31 5.188-16.2-4.147-17.225-23.338-11.782-25.847 49.16-22.66l57.757 3.021-3.268-20.357a8488.565 8488.565 0 0 0-5.257-32.357c-1.644-9.924 1.806-12.316 19.942-13.828 28.79-2.4 42.565 14.694 34.502 42.811-2.988 10.416-5.432 19.63-5.432 20.477 0 4.246 59.781.754 78.04-4.558 18.306-5.327 22.29-4.483 31.46 6.664 5.775 7.02 10.506 14.49 10.514 16.599.007 2.11-25.897 2.969-57.566 1.91-71.012-2.374-76.028-.902-66.545 19.535 6.23 13.428 10.8 15.302 37.397 15.343 16.665.026 33.467-3.12 37.338-6.99 10.461-10.462 34.753 2.586 46.267 24.852 9.297 17.978 9.17 18.453-6.474 24.401-13.788 5.243-15.546 8.696-12.945 25.425 1.656 10.648.839 24.76-1.816 31.36-2.654 6.6-5.016 9.778-5.248 7.064-.232-2.715-7.515.643-16.184 7.462-13.148 10.343-20.974 11.786-47.194 8.705-36.426-4.282-41.562.241-31.354 27.612l7.31 19.602 48-3.917c26.4-2.154 55.722-4.504 65.16-5.223 11.744-.894 19.843 2.685 25.665 11.341 8.493 12.628 8.393 12.649-67.68 13.777-41.903.621-78.17 2.356-80.595 3.854-2.424 1.498-2.98 13.36-1.237 26.36 3.718 27.72-2.152 56.405-10.489 51.253-3.203-1.98-5.824 1.96-5.824 8.755 0 16.54-9.687 15.76-14.218-1.146zm-4.741-180.78c2.69-14.176-8.564-21.51-33.187-21.628-22.651-.109-26.242 4.149-19.207 22.774 4.396 11.638 8.852 13.566 27.745 12 16.396-1.36 23.09-4.93 24.649-13.147zm100.819-.796c5.997-15.628-9.627-26.924-37.24-26.924-29.381 0-33.327 3.4-26.109 22.5 4.265 11.283 9.6 13.5 32.484 13.5 18.907 0 28.46-2.81 30.865-9.076zm-106.387-47.288c10.633-12.812-7.905-27.654-34.401-27.544-31.636.132-39.135 6.292-27.639 22.705 10.823 15.452 50.653 18.559 62.04 4.839zm105.033-19.74c-11.673-8.534-62.506-11.01-62.506-3.043 0 13.884 17.286 24.735 42 26.366 29.906 1.973 39.765-9.24 20.506-23.322z" style="fill:#fc5a5a" transform="translate(705.626 -2410.809)"/><path d="M-320.87 2943.908c-1.98-7.388-3.637-25.927-3.682-41.198-.045-15.271-3.457-30.427-7.582-33.68-11.691-9.22-115.036-14.619-123.217-6.437-5.116 5.115-8.446 2.604-13.228-9.973-7.73-20.33-4.99-24.209 11.037-15.631 6.666 3.567 39.297 6.486 72.514 6.486 59.947 0 60.394-.108 60.394-14.571 0-8.015-4.243-18.815-9.428-24-12.37-12.37-49.702-12.075-63.6.501-10.3 9.322-10.972 9.155-10.972-2.727 0-6.961-6.97-31.005-15.488-53.43-23.61-62.154-24.103-66.69-7.658-70.478 7.78-1.792 34.368-3.942 59.083-4.777 46.626-1.575 55.667-7.677 42.257-28.518-7.207-11.2-83.964-10.079-91.015 1.33-2.98 4.82-6.624 1.65-10.834-9.424-3.49-9.178-6.345-17.311-6.345-18.074 0-.762 25.65-.265 57 1.107l57 2.493v-20.516c0-11.284-3.352-23.868-7.45-27.966-5.933-5.933-5.627-8.602 1.5-13.108 15.488-9.791 41.067-6.703 47.74 5.764 8.294 15.5 7.856 18.394-2.79 18.394-8.393 0-11.05 5.847-7.5 16.5a4.757 4.757 0 0 0 6 3c2.475-.825 4.5 2.55 4.5 7.5 0 7.085 7.98 8.91 37.5 8.578 20.625-.232 42.9-2.598 49.5-5.258 12.656-5.101 27.005 2.296 26.994 13.915-.004 4.506-19.892 7.059-59.569 7.645-61.452.907-72.425 3.401-72.425 16.46 0 19.374 63.917 28.29 96.511 13.462 11.61-5.281 32.851 11.712 38.372 30.698 3.118 10.72 1.522 13.5-7.75 13.5-12.162 0-21.175 16.77-28.245 52.55-5.033 25.47-21.334 33.733-57.168 28.98-21.906-2.907-30.835-1.557-38.159 5.766-12.471 12.472-12.052 15.146 4.889 31.204 11.644 11.038 21.074 13.5 51.7 13.5 20.602 0 47.716-3.073 60.253-6.83 19.01-5.695 24.356-5.268 32.196 2.572 5.17 5.17 9.388 11.619 9.37 14.33-.016 2.71-33.091 4.928-73.5 4.928-40.407 0-78.194 2.12-83.969 4.711-8.531 3.828-10.5 12.48-10.5 46.146 0 41.542-7.492 59.738-14.236 34.576zm-5.62-170.248c6.783-17.679-6.787-29.226-33.667-28.65-34.267.735-44.16 11.51-24.477 26.656 18.792 14.46 52.91 15.63 58.144 1.994zm93.356 3.897c13.003-.101 14.396-25.38 1.966-35.695-4.772-3.96-21.277-6.268-37.446-5.235-21.858 1.397-29.398 4.407-30.904 12.339-3.448 18.16 21.66 36.044 43.884 31.258 6.6-1.422 16.725-2.622 22.5-2.667zm-97.406-57.194c6.189-7.458 5.608-11.272-3.196-21-5.916-6.538-16.686-11.888-23.932-11.888-19.121 0-50.966 12.138-50.966 19.426 0 20.584 63.149 31.47 78.094 13.462zm113.906-5.677c0-18.142-15.465-27.21-46.405-27.21-21.15 0-37.595 8.091-37.595 18.5 0 5.271 20.59 12.37 51 17.583 13.2 2.262 26.025 4.52 28.5 5.015 2.475.496 4.5-5.754 4.5-13.888z" style="fill:#eb1313" transform="translate(705.626 -2410.809)"/><path d="M-320.584 2943.046c-5.952-15.51-4.935-69.57 1.308-69.57 12.059 0 16.76 44.335 7.27 68.56-4.203 10.729-4.821 10.802-8.578 1.01zm-150.477-96.309c-4.078-15.457-1.126-17.586 13.519-9.748 6.666 3.567 39.297 6.486 72.514 6.486h60.394v-15c0-19.625 10.686-19.325 15.647.44 6.516 25.962-3.784 29.56-84.612 29.56-68.756 0-74.598-.885-77.462-11.738zm182.427 6.126c0-1.863-.46-5.183-1.024-7.377-.564-2.193 18.117-3.37 41.513-2.613 23.395.757 53.376-1.872 66.623-5.84 20.436-6.123 25.511-5.792 33.487 2.184 5.17 5.17 9.401 10.42 9.401 11.665 0 1.245-33.75 2.962-75 3.816-41.25.854-75 .028-75-1.835zm-131.01-89.475c-7.704-23.602-17.056-50.497-20.782-59.766-9.464-23.551.063-27.943 60.854-28.055 44.975-.083 50.38-1.311 53.2-12.092 3.714-14.204 12.697-15.696 17.598-2.923 6.445 16.796-9.615 26.923-42.699 26.923-24.616 0-63.665 7.815-73.473 14.704-.722.507 5.289 16.98 13.357 36.609 8.069 19.628 14.735 41.603 14.813 48.833.297 27.378-9.358 17.147-22.867-24.233zm42.51 28.113c-16.003-6.457-6.231-11.763 21-11.403 25.332.335 28.718-1.162 30.463-13.469 2.201-15.53 14.957-14.73 18.033 1.132 3.38 17.43-10.722 27.747-37.23 27.24-13.621-.26-28.14-1.835-32.266-3.5zm85.297-8.355c-2.501-4.047 3.32-5.822 16.146-4.922 42.607 2.99 51.476.2 54.828-17.249 1.743-9.075 1.892-17.79.331-19.368-1.56-1.577-16.634-4.277-33.495-6-16.861-1.723-31.763-6.483-33.114-10.578-1.76-5.334 3.213-6.526 17.525-4.2 54.353 8.83 52.982 8.92 52.982-3.504 0-6.904 4.041-11.85 9.681-11.85 7.717 0 8.896 3.958 5.81 19.5-2.129 10.725-3.783 25.97-3.675 33.879.324 23.865-10.31 30.621-48.196 30.621-19.201 0-36.672-2.848-38.823-6.33zm-104.8-49.17c-.003-5.265 8.822-6.89 29.604-5.449 24.832 1.722 30.872.029 37.447-10.5 10.362-16.592 16.952-15.89 16.952 1.806 0 17.6-9.615 21.642-51.49 21.642-22.006 0-32.51-2.423-32.513-7.5zm217.381-39.623c-4.192-2.605-25.745-5.236-47.897-5.846-59.002-1.626-73.188-9.066-25.48-13.364 21.45-1.933 43.28-5.467 48.51-7.853 11.116-5.072 38.426 14.476 34.841 24.938-1.342 3.915-5.625 4.828-9.974 2.125zm-256.315-65.869c-1.684-4.395-3.063-8.57-3.063-9.277 0-.708 25.65-.165 57 1.206l57 2.493v-20.515c0-11.284-3.352-23.868-7.45-27.966-10.267-10.268 4.638-19.594 27.988-17.513 21.776 1.94 27.219 14.89 8.26 19.648-12.302 3.088-13.775 6.478-11.802 27.17 2.728 28.602 2.826 28.558-69.433 30.927-41.944 1.376-56.183-.127-58.5-6.173zm149.937-1.009c-2.324-3.761 11.535-6.157 37.146-6.422 22.47-.232 46.254-2.598 52.854-5.258 11.934-4.81 27 2.117 27 12.415 0 7.348-112.44 6.642-117-.735z" style="fill:#9e0202" transform="translate(705.626 -2410.809)"/><path d="M-320.134 2942.032c-2.475-2.506-4.5-18.147-4.5-34.757 0-21.282 1.88-28.32 6.363-23.837 3.5 3.5 5.525 19.14 4.5 34.757-1.024 15.617-3.888 26.344-6.363 23.837zm-151.221-96.995c-4.973-12.96-.373-15.64 13.813-8.048 6.666 3.567 39.11 6.486 72.097 6.486 57.498 0 60.074-.558 62.338-13.5 2.072-11.842 2.939-12.21 7.06-3 2.583 5.775 3.11 14.638 1.168 19.696-5.24 13.655-151.194 12.132-156.476-1.633zm188.721 4.438c-6.26-4.046 4.484-5.844 35.304-5.908 24.367-.05 54.955-3.283 67.972-7.183 19.582-5.867 24.592-5.608 29.02 1.5 4.218 6.77-.016 9.45-19.972 12.646-38.198 6.117-102.155 5.516-112.324-1.055zm-130.92-73.5c-5.693-22.756-5.45-24.247 2.27-13.853 7.648 10.296 12.358 39.353 6.38 39.353-1.248 0-5.14-11.475-8.65-25.5zm57.42 15.13c-12.375-1.295-22.5-4.288-22.5-6.65 0-2.364 10.783-3.269 23.962-2.012 20.685 1.973 24.705.353 29.399-11.841 4.803-12.479 5.936-12.893 9.71-3.55 4.046 10.018-6.168 29.594-14.305 27.414-2.071-.554-13.89-2.067-26.266-3.362zm73.5-7.76c-6.864-4.534-4.728-5.675 9-4.81 39.45 2.487 51-.551 51-13.414 0-6.795 2.7-10.685 6-8.646 9.366 5.788 7.044 25.316-3.49 29.358-14.684 5.635-52.492 4.13-62.51-2.487zm-105.187-48.172c-2.01-3.254 7.366-5.698 21.86-5.698 14.612 0 29.786-3.985 35.76-9.39 10.592-9.588 20.101-4.14 12.671 7.26-5.475 8.4-65.786 15.116-70.29 7.828zm139.94.753c-41.183-5.753-43.696-14.411-3.253-11.202 26.107 2.072 34.5.794 34.5-5.255 0-8.398 7.354-10.64 13.79-4.205 4.513 4.514-6.334 26.562-12.5 25.41-2.36-.441-17.001-2.578-32.537-4.748zm-192.846-28.544c-7.337-7.337-3.924-24.616 5.584-28.265 5.22-2.003 30.736-3.642 56.702-3.642 37.382 0 48.35-2.034 52.679-9.77 4.245-7.586 6.53-8.054 10.215-2.09 5.367 8.685-13.463 25.572-22.374 20.065-8.985-5.554-85.14 10.435-92.306 19.38-3.626 4.526-8.351 6.47-10.5 4.322zm182.093-25.907-27-4.198 31.895-.9c17.542-.496 37.117-3.697 43.5-7.113 12.409-6.641 35.605 1.452 35.605 12.422 0 6.4-42.16 6.294-84-.21zm-176.949-52.99c-1.678-4.395-3.05-8.57-3.05-9.278 0-.708 25.65-.165 57 1.207l57 2.492v-20.515c0-11.284-3.353-23.868-7.45-27.966-10.336-10.336 4.676-19.577 28.45-17.513 20.904 1.815 22.033 12.068 1.853 16.838-11.908 2.815-13.854 7.029-13.854 30v26.725l-58.449 3c-45.288 2.325-59.136 1.2-61.5-4.99zm158.95-.609c-6.65-4.593.694-6.241 28.109-6.309 20.41-.05 43.94-2.689 52.287-5.863 14.519-5.52 27.913 1.462 19.31 10.065-6.594 6.593-90.641 8.37-99.707 2.107z" style="fill:#580a0a" transform="translate(705.626 -2410.809)"/><path d="M-317.12 2918.475c-.067-13.2 1.107-19.306 2.609-13.57 1.502 5.737 1.556 16.537.12 24-1.434 7.464-2.663 2.77-2.73-10.43zm-113.476-67.428c-26.935-1.542-37.96-4.715-40.638-11.693-2.768-7.214-1.79-8.027 3.963-3.296 4.2 3.454 38.012 8.234 75.137 10.62l67.5 4.34v-13.971c0-10.583 1.685-12.287 6.946-7.026 5.261 5.26 5.083 9.19-.735 16.2-7.784 9.379-21.98 9.99-112.173 4.826zm174.962-1.335c9.9-2.65 29.3-5.137 43.11-5.527 13.81-.39 31.94-3.307 40.287-6.48 10.059-3.825 16.465-3.69 18.992.399 2.097 3.393 2.868 6.985 1.712 7.983-1.155.997-29.1 3.305-62.1 5.128-34.482 1.905-52.345 1.265-42-1.503zm-85.5-64.534c9.514-1.442 16.5-6.292 16.5-11.455 0-4.926 2.582-7.36 5.738-5.41 12.137 7.5-1.256 21.15-19.88 20.263-18.137-.865-18.227-.995-2.358-3.398zm80.886.362c4.062-1.644 12.162-1.744 18-.223 5.838 1.521 2.514 2.866-7.386 2.988-9.9.123-14.676-1.122-10.614-2.766zm37.735-11.21c4.174-5.03 8.825-7.91 10.335-6.4 4.161 4.162-4.293 15.545-11.544 15.545-3.979 0-3.524-3.443 1.209-9.145zm-114.12-46.937c16.467-8.678 21.319-8.143 15.246 1.683-2.175 3.52-9.87 6.36-17.1 6.31-12.608-.084-12.533-.411 1.853-7.993zm114 3.709c4.95-1.885 10.983-6.396 13.407-10.027 2.72-4.07 4.444-2.577 4.5 3.9.062 7.054-4.338 10.345-13.408 10.026-9.02-.316-10.513-1.61-4.5-3.9zm-222-40.627c0-7.016 7.606-8.887 34.5-8.49l34.5.51-33 8.236c-18.15 4.53-33.676 8.35-34.5 8.49-.826.14-1.5-3.796-1.5-8.746zm216.906-8.143c-5.745-3.761-1.6-6.517 14.281-9.496 13.559-2.544 24.904-1.669 28.794 2.22 4.558 4.559 3.896 6.443-2.282 6.501-4.785.045-14.1 1.43-20.7 3.078s-15.642.612-20.093-2.303zm-117.926-5.297c9.89-1.454 19.973-5.774 22.408-9.601 2.874-4.518 4.46-3.275 4.52 3.541.072 8.308-4.607 10.312-22.409 9.601-20.406-.815-20.826-1.145-4.52-3.541zm-86.98-49.489c0-3.339 12.6-6.07 28-6.07 33.32 0 32.445 2.882-2.5 8.235-15.773 2.416-25.5 1.59-25.5-2.165zm103.5-.551c5.774-3.364 10.813-12.057 11.195-19.318.558-10.585 1.251-11.064 3.496-2.414 3.074 11.848-7.753 28.318-18.426 28.03-3.721-.1-2.04-2.935 3.734-6.298zm89-1.707c6.909-6.045 65.5-9.64 65.5-4.02 0 3.546-14.58 6.207-34 6.207-18.7 0-32.876-.984-31.5-2.187zm-87.36-50.672c-8.156-8.156-1.248-13.14 18.213-13.14 11.745 0 19.885 2.377 18.09 5.283-3.893 6.297-31.819 12.341-36.303 7.857z" style="fill:#3b0000" transform="translate(705.626 -2410.809)"/></svg>