<svg xmlns="http://www.w3.org/2000/svg" width="800" height="700"><path d="m-885.622 512.455-242.95 100.633-242.949-100.633-100.633-242.95 100.633-242.95 242.95-100.633 242.95 100.633 100.632 242.95-100.633 242.95z" style="fill:#fff;fill-opacity:1;stroke:#000;stroke-width:3.97135067;stroke-linecap:butt;stroke-linejoin:miter;stroke-miterlimit:4;stroke-opacity:1;stroke-dasharray:none" transform="rotate(-22.5 141.76 -2871.665) scale(.75541)"/><path d="M31.566 2448.154c-5.41-28.835-15.613-35.534-47.467-31.168-33.654 4.613-40.575-4.7-10.732-14.44 20.864-6.812 70.448-36.488 91.555-54.798 20.715-17.97 25.06-27.617 18.205-40.424-9.201-17.193-24.205-15.857-24.205 2.156 0 7.997-6.531 22.302-14.514 31.788-23.488 27.914-117.486 68.58-117.486 50.827 0-3.49 6.075-8.234 13.5-10.542 23.29-7.238 77.528-45.985 72.045-51.467-2.928-2.928-18.988-1.1-36.793 4.187-17.378 5.16-38.832 8.547-47.674 7.525-13.037-1.506-6.997-5.663 31.922-21.972 26.4-11.063 51.375-22.869 55.5-26.235 14.758-12.043 7.665-18.253-17.06-14.937l-24.558 3.294-14.991-32.744c-8.245-18.009-13.62-36.314-11.946-40.677 2.138-5.572 21.173-8.806 63.94-10.866 63.044-3.036 83.757-11.363 76.34-30.69-7.133-18.589-37.109-17.777-76.426 2.071-47.294 23.874-57.59 15.77-17.753-13.972 16.475-12.3 29.954-27.17 29.954-33.046 0-27.948 39.425-34.204 63.545-10.084 11.453 11.453 21.241 15 41.387 15 20.466 0 28.483 2.993 35.728 13.335 12.393 17.694 11.806 21.468-3.69 23.748-7.167 1.055-14.2 5.468-15.63 9.807-1.973 5.988 2.488 6.936 18.498 3.933 18.49-3.47 23.944-1.35 44.119 17.138l23.02 21.097-14.117 15.027c-7.765 8.265-12.46 17.71-10.434 20.987 5.85 9.466-14.575 26.263-25.7 21.136-5.35-2.466-25.251-5.561-44.226-6.878-35.896-2.492-40.146.976-30.858 25.18 4.956 12.916 14 11.919 30.236-3.335 12.181-11.443 15.617-12.011 31.887-5.272 10.307 4.27 18.235 12.035 18.235 17.862 0 11.138-23.088 24.235-42.722 24.235-8.318 0-11.545 3.317-10.218 10.5 2.584 13.987 52.65 37.32 89.42 41.676 16.236 1.923 29.52 5.765 29.52 8.538 0 7.85-45.787 29.286-62.552 29.286-8.267 0-24.256-8.1-35.532-18-11.275-9.9-21.868-18-23.54-18-1.673 0-4.817 9.469-6.988 21.042-5.664 30.188-44 68.958-68.187 68.958-16.536 0-19.1-2.363-22.557-20.786zm40.603-34.714c5.248-4.125 11.346-13.575 13.551-21 6.27-21.108-17.609-17.125-50.153 8.366-4.155 3.254 12.565 20.134 19.943 20.134 3.915 0 11.412-3.375 16.66-7.5zm-44.304-174.515c2.36-12.165-15.19-20.138-24.292-11.036-4.723 4.724-4.36 9.172 1.304 15.997 9.37 11.29 20.294 8.932 22.988-4.96zm61.057-9.343c0-9.16-10.603-18.642-20.849-18.642-4.296 0-8.921 19.518-5.817 24.542 6.427 10.398 26.666 5.92 26.666-5.9zm70.75-7.416c1.195-6.312-3.667-11.159-13.726-13.683-19.233-4.827-27.024-.448-27.024 15.192 0 9.948 3.36 11.7 19.45 10.146 12.198-1.18 20.141-5.526 21.3-11.655z" style="fill:#f6a19f" transform="translate(313.646 -1932.94)"/><path d="M34.922 2452.087c0-29.603-12.225-39.218-48.638-38.255l-32.362.856 42-20.097c67.94-32.51 109.863-76.52 86.59-90.903-3.524-2.179-4.89-7.916-3.036-12.75 2.547-6.637-.656-8.324-13.091-6.893-14.564 1.677-16.288 4.145-14.94 21.395.97 12.435-1.203 19.507-6 19.518-4.138.01-12.892 8.03-19.455 17.825-13.738 20.504-61.03 48.23-81.88 48.003-10.92-.119-7.278-3.684 15.812-15.479 30.772-15.719 57-36.614 57-45.412 0-7.77-26.04-5.82-54 4.045-56.345 19.88-53.873 7.653 3-14.838 19.8-7.83 42.161-18.186 49.692-23.015 12.93-8.29 13.128-9.4 3.57-19.962-10.717-11.842-32.262-15.305-32.262-5.185 0 13.746-12.578 4.39-23.878-17.76-21.616-42.372-18.707-46.685 34.378-50.965 71.479-5.764 84.86-8.868 91.47-21.218 4.88-9.12 3.024-14.517-9.2-26.741-8.424-8.424-19.284-15.316-24.135-15.316-4.851 0-23.47 9.728-41.377 21.617-37.456 24.87-58.68 25.316-22.842.481 22.215-15.395 31.733-28.196 39.851-53.598 5.103-15.967 30.677-12.787 53.024 6.592 15.822 13.722 23.955 16.573 41.237 14.457 14.825-1.814 24.634.47 31.5 7.337 14.245 14.245 12.34 19.903-5.55 16.483-13.557-2.591-15.266-1.156-13.5 11.332 1.59 11.243 5.87 14.447 20.022 14.991 29.743 1.143 31.382 1.722 50.556 17.855 19.64 16.526 19.494 26.453-.387 26.453-10.347 0-11.544 2.636-8.17 17.995 3.248 14.792 2.275 17.35-5.473 14.377-5.613-2.154-10.901.23-13.075 5.896-2.561 6.673-6.606 7.963-13.551 4.32-20.468-10.737-57.6-13.343-69.194-4.855-10.821 7.921-10.855 8.936-.81 24.267 11.452 17.478 31.458 21.27 36.934 7 4.128-10.758 32.81-11.96 42.97-1.8 11.238 11.238 8.556 16.8-8.098 16.8-8.414 0-23.31 4.143-33.1 9.207-15.339 7.931-16.9 10.893-11.281 21.394 6.948 12.983 50.868 34.342 80.679 39.235 38.274 6.283 45.37 8.712 41.891 14.34-1.98 3.204-16.94 5.824-33.245 5.824-16.306 0-29.646 2.7-29.646 6 0 11.795-17.272 5.694-33.972-12-9.344-9.9-19.714-18-23.044-18-3.33 0-12.355 13.734-20.055 30.519-9.193 20.04-21.027 34.664-34.465 42.593-11.255 6.64-20.464 14.507-20.464 17.481 0 2.974-4.05 5.407-9 5.407-5.864 0-9-5.872-9-16.853zm38.509-34.789c5.22-2.003 9.49-8.593 9.49-14.645 0-6.053 2.721-12.686 6.047-14.741 3.72-2.3 2.406-7.376-3.416-13.199-8.616-8.616-11.662-7.91-34.071 7.883-13.536 9.54-25.849 21.095-27.363 25.68-1.58 4.785-.042 6.66 3.61 4.402 3.5-2.164 8.06-1.19 10.133 2.164 4.214 6.818 21.156 7.987 35.57 2.456zm-40.346-174.225c2.318-6.042-.526-13.021-7.335-18-12.947-9.467-15.07-9.697-25.948-2.804-6.333 4.013-6.616 7.953-1.289 17.908 8.097 15.128 29.2 16.896 34.572 2.896zm59.696-5.209c4.893-12.75-9.395-27.848-24.334-25.713-8.825 1.26-11.905 5.334-10.426 13.79 3.587 20.494 28.228 28.947 34.76 11.923zm67.914-8.5c5.056-9.448 3.29-13.862-9.598-24-18.346-14.432-28.083-15.584-37.347-4.422-4.88 5.88-4.677 12.232.765 23.954 9.122 19.645 36.633 22.306 46.18 4.468z" style="fill:#fc5e5e" transform="translate(313.646 -1932.94)"/><path d="M38.929 2464.222c-1.337-2.355-4.258-14.407-6.491-26.782-4.131-22.895-1.156-26.52 13.931-16.968 12.697 8.038 34.978-4.667 39.959-22.784 6.81-24.777 7.071-36.748.8-36.748-7.285 0-45.67 23.372-60.006 36.535-9.892 9.083-62.92 20.745-68.583 15.083-1.332-1.332 7.885-5.767 20.48-9.856 27.024-8.772 77.421-40.96 97.356-62.18 9.408-10.014 12.978-19.285 10.732-27.872-1.85-7.077-1.854-16.803-.008-21.614 2.731-7.117 5.907-6.35 17.05 4.118l13.694 12.865 12.54-12.54c14.736-14.736 29.729-15.955 45.892-3.73 11.492 8.693 11.488 8.814-.353 9.132-16.656.448-63 22.159-63 29.513 0 13.883 55.58 38.547 117 51.92l18 3.92-15 5.845c-8.25 3.216-26.475 4.327-40.5 2.469-16.633-2.203-25.5-1.076-25.5 3.242 0 4.449-2.952 4.17-9-.85-4.95-4.108-9-10.9-9-15.092 0-7.63-12.733-14.908-26.083-14.908-3.905 0-11.875 13.443-17.71 29.872-6.001 16.896-17.286 34.488-25.98 40.5-8.454 5.846-20.415 15.255-26.58 20.91-6.165 5.654-12.303 8.354-13.64 6zm-79.007-88.279c39.74-20.917 61.85-42.552 52.77-51.633-5.059-5.058-17.137-3.547-47.285 5.916-22.27 6.99-41.544 11.656-42.832 10.368-1.288-1.288 16.039-9.44 38.503-18.114 22.464-8.675 47.594-21.157 55.844-27.738l15-11.965-14.165-11.919c-17.313-14.567-28.437-15.138-35.877-1.842-4.698 8.394-7.751 5.703-18.299-16.127-21.544-44.593-20.256-46.118 42.84-50.74 30.526-2.237 60.229-5.406 66.007-7.044 15.68-4.443 24.997-24.92 16.175-35.548-3.933-4.74-5.14-8.617-2.681-8.617 2.458 0 1.108-4.05-3-9-12.353-14.883-33.59-10.315-69.728 15-35.409 24.804-61.225 33.918-29.272 10.335 27.186-20.066 45-40.876 45-52.569 0-10.396 11.317-17.766 27.282-17.766 4.565 0 17.17 7.692 28.009 17.092 15.822 13.722 23.955 16.573 41.237 14.457 15.467-1.893 24.657.475 32.639 8.408 10.804 10.74 10.573 11.096-8.373 12.95-21.08 2.061-31.705 17.036-18.169 25.607 4.606 2.917 19.486 5.344 33.066 5.395 15.783.059 30.394 4.578 40.5 12.527 18.793 14.783 20.27 23.564 3.963 23.564-7.169 0-15.63 7.316-21.427 18.528-9.24 17.87-10.803 18.457-43.987 16.545-26.744-1.54-38.342.681-52.074 9.973-9.716 6.575-23.023 13.416-29.57 15.202-7.493 2.044-15.981 14.227-22.903 32.871-6.05 16.293-13.978 33.212-17.618 37.598-10.23 12.326-53.544 36.033-73.575 40.27-13.843 2.928-11.072.16 12-11.984zm72-137.349c0-17.8-17.066-25.372-36.859-16.354l-16.79 7.65 14.824 11.525c18.322 14.242 38.825 12.753 38.825-2.82zm60.65-.185c4.157-10.832-7.697-33.469-17.526-33.469-4.1 0-13.806 4.45-21.569 9.887l-14.114 9.886 14.28 10.98c17.165 13.2 34.444 14.405 38.93 2.716zm68.371-9.509c5.281-9.867 3.745-14.74-8.516-27-17.548-17.548-25.596-18.547-40.533-5.03-13.635 12.34-13.706 17.076-.472 31.57 14.248 15.605 41.281 15.856 49.521.46z" style="fill:#e91212" transform="translate(313.646 -1932.94)"/><path d="M33.229 2442.838c-3.58-23.508-.29-29.603 12.209-22.609 14.259 7.98 34.093-3.275 41.813-23.728 8.642-22.896 22.537-23.8 16.839-1.094-5.306 21.139-11.302 28.074-42.444 49.091l-25.54 17.237-2.877-18.898zm-67.718-33.233c1.814-2.934 10.297-7.092 18.853-9.24 33.445-8.393 104.487-63.073 104.65-80.546.05-5.433 2.544-13.755 5.542-18.493 4.408-6.966 7.184-7.176 14.507-1.098 7.431 6.167 11.28 5.29 21.457-4.886 12.824-12.824 22.59-15.022 38.911-8.76 11.98 4.598 12.396 14.358.612 14.358-22.173 0-57.23 20.195-68.646 39.543-6.639 11.251-15.05 20.457-18.692 20.457-3.642 0-18.581 8.23-33.199 18.286-14.618 10.058-39.404 22.178-55.081 26.935-33.872 10.279-33.08 10.184-28.914 3.444zm-5.59-33.581c16.5-8.542 37.426-23.573 46.5-33.402 9.076-9.829 16.5-14.294 16.5-9.923 0 13.023-13.514 26.623-39 39.246-36.573 18.116-58.222 21.795-24 4.079zm201 3.157c-11.55-6.458-25.724-13.519-31.5-15.69-10.347-3.893-14.761-14.577-6-14.523 2.476.015 20.7 6.701 40.5 14.858 19.8 8.156 43.266 14.894 52.147 14.972 8.88.078 17.814 2.842 19.854 6.142 6.916 11.192-52.898 6.598-75-5.76zm-228-43.795c0-1.56 15.809-8.602 35.13-15.646 19.32-7.045 42.571-19.706 51.667-28.137 18.953-17.564 23.363-16.356 18.02 4.934-3.228 12.861-9.93 16.51-46.775 25.465-23.653 5.75-46.39 11.751-50.524 13.338-4.134 1.586-7.517 1.607-7.517.047zm76.5-73.877c-21.499-11.664-20.891-15.147 1.848-10.6 15.09 3.019 18.913 1.507 21.534-8.516 2.923-11.176 4.511-11.496 19.153-3.857 22.42 11.698 37.561 10.422 41.194-3.469 2.83-10.821 4.228-11.087 15.773-3 20.306 14.223 45.124 11.359 53.09-6.127 7.807-17.133 14.07-19.053 19.13-5.863 1.955 5.093-2.005 14.648-8.95 21.592-10.334 10.334-16.906 11.789-38.579 8.539-19.37-2.905-30.063-1.336-41.364 6.069-9.428 6.177-20.839 8.581-29.917 6.303-8.072-2.026-16.35-.974-18.398 2.338-5.064 8.194-14.919 7.22-34.513-3.41zm-49.028-15.427c-18.687-37.459-16.087-39.71 51.36-44.493 62.322-4.418 83.169-13.306 83.169-35.46 0-5.368 3.518-7.462 9-5.358 4.95 1.9 9 8.146 9 13.881 0 21.487-30.248 35.347-84 38.49-22.499 1.316-60 9.37-60 12.885 0 1.173 2.597 8.962 5.77 17.31 8.597 22.612-3.254 24.886-14.3 2.745zm212.876-44.688c-39.687-12.447-43.946-20.454-10.882-20.454 21.081 0 31.964 3.606 44.7 14.81 14.866 13.08 15.431 14.764 4.835 14.408-6.6-.222-23.994-4.166-38.653-8.764zm-189.347-34.12c27.186-20.065 45-40.875 45-52.568 0-10.396 11.317-17.766 27.282-17.766 4.565 0 17.377 7.97 28.47 17.71 14.028 12.316 24.113 16.68 33.113 14.326 15.69-4.103 43.135 2.076 43.135 9.711 0 3.035-11.682 7.27-25.96 9.411-21.853 3.277-29.579 1.437-48.837-11.632-28.214-19.147-30.117-19.157-49.011-.263-16.356 16.356-58.955 44.86-66.573 44.547-2.54-.104 3.48-6.168 13.38-13.475z" style="fill:#a00404" transform="translate(313.646 -1932.94)"/><path d="M34.922 2435.563c0-11.226 2.834-14.965 10.5-13.85 18.756 2.728 36.223-6.87 40.018-21.988 4.243-16.908 15.549-20.064 15.348-4.285-.19 15.017-17.595 34.27-41.288 45.672-25.74 12.388-24.578 12.65-24.578-5.549zm-25.737-45.52c35.557-19.849 79.737-57.986 79.737-68.83 0-13.898 15.089-26.784 22.585-19.287 4.286 4.286 10.24 2.19 19.184-6.755 7.372-7.372 18.636-12.162 26.1-11.1 21.503 3.061 15.09 11.476-18.215 23.9-20.968 7.822-33.88 16.853-39 27.278-4.21 8.571-13.044 18.534-19.63 22.138-6.588 3.604-21.843 13.992-33.902 23.084-12.06 9.091-30.97 18.138-42.024 20.102l-20.098 3.573 25.263-14.103zm160.737-8.027c-19.434-9.127-39-23.46-39-28.567 0-1.743 15.525 3.215 34.5 11.019 18.975 7.803 42.084 14.252 51.354 14.33 9.68.082 15.276 2.696 13.146 6.142-5.321 8.61-38.93 6.972-60-2.924zm-198.574-10.928c6.284-3.931 20.909-15.247 32.5-25.147 11.59-9.9 19.732-13.95 18.093-9-3.252 9.818-46.336 41.695-56.02 41.447-3.3-.084-.858-3.37 5.427-7.3zm8.482-55.264c10.949-4.756 27.824-14.284 37.5-21.174 17.402-12.392 17.592-12.397 17.592-.544 0 9.336-7.162 14.065-32.424 21.409-39.981 11.623-49 11.746-22.668.309zm31.092-56.884c-7.31-4.724-6.522-5.833 4.202-5.908 7.26-.05 15.854-4.817 19.096-10.592 5.557-9.899 6.14-9.864 10.173.606 6.737 17.492-15.015 27.822-33.471 15.894zm55.5 1.677c-14.716-5.252-8.012-18.11 7.86-15.076 12.11 2.315 16.096.127 18.833-10.34 2.613-9.992 4.727-11.295 8.547-5.268 2.792 4.404 5.117 9.963 5.168 12.353.143 6.748-32.004 21.33-40.408 18.331zm68.992-18.016c11.757-1.46 22.097-7.287 26.056-14.684 4.643-8.676 8.433-10.395 12.953-5.875 11.82 11.819-6.736 24.985-33.736 23.938-22.12-.857-22.683-1.218-5.273-3.38zm-184.492-22.18c0-14.124 1.66-14.637 61.073-18.849 54.628-3.873 62.55-5.922 75.06-19.421 15.49-16.715 23.08-14.786 17.015 4.323-2.263 7.129-10.821 13.798-20.048 15.623-8.855 1.752-23.722 5.648-33.038 8.658-9.315 3.01-20.884 3.959-25.707 2.108-10.897-4.182-62.355 9.73-62.355 16.857 0 2.871-2.7 5.22-6 5.22s-6-6.533-6-14.519zm222-22.491c-32.26-9.108-35.909-16.99-7.865-16.99 15.596 0 29.696 4.3 38.7 11.8 13.242 11.033 13.383 11.779 2.165 11.46-6.6-.188-21.45-3.01-33-6.27zm-166.5-49.076c12.375-12.37 22.5-27.472 22.5-33.56 0-10.914 11.059-18.354 27.282-18.354 4.565 0 17.17 7.692 28.009 17.092 15.439 13.39 24.259 16.599 40.709 14.815 19.061-2.067 42.738 5.825 35.826 11.942-1.554 1.375-14.636 4.01-29.07 5.855-22.311 2.851-28.421 1.177-40.773-11.175-18.35-18.35-36.102-18.448-55.655-.305-8.43 7.822-23.428 19.164-33.328 25.202-16.695 10.183-16.369 9.348 4.5-11.512z" style="fill:#5b0909" transform="translate(313.646 -1932.94)"/><path d="M40.922 2430.129c0-5.388 3.515-7.463 9.046-5.34 11.285 4.33 38.954-13.167 38.954-24.633 0-4.679 2.989-10.355 6.643-12.613 12.646-7.816-1.174 23.998-16.463 37.897-16.822 15.294-38.18 17.916-38.18 4.689zm-30-35.563c0-1.306 13.901-11.295 30.891-22.198s37.96-30.969 46.6-44.592c8.722-13.753 19.19-23.608 23.537-22.16 4.306 1.436 14.345-3.51 22.308-10.991 11.571-10.87 17.13-12.418 27.692-7.705 11.76 5.247 9.177 7.17-23.443 17.458-30.8 9.715-37.167 14.103-39.852 27.468-2.31 11.498-12.38 21.161-36.338 34.868-18.228 10.43-34.708 21.496-36.623 24.594-3.391 5.488-14.772 7.998-14.772 3.258zm170.39-11.582c-10.235-3.874-25.085-11.642-33-17.263-13.741-9.758 3.204-4.534 63.61 19.61 12 4.797 12 4.797 0 4.747-6.6-.028-20.374-3.22-30.61-7.094zm-182.39-30.402c0-1.297 4.19-3.966 9.311-5.93 5.34-2.05 7.748-1.044 5.646 2.357-3.523 5.701-14.957 8.433-14.957 3.573zm14.756-51.425c9.766-6.438 19.211-10.249 20.99-8.47 4.593 4.592-18.192 20.261-29.393 20.214-5.63-.024-2.284-4.7 8.403-11.744zm16.507-50.587c4.255-4.604 9.806-7.117 12.335-5.585 6.86 4.155-.997 13.955-11.189 13.955-7.296 0-7.5-1.495-1.146-8.37zm34.737 3.051c0-2.925 8.517-6.569 18.926-8.096 17.093-2.51 17.854-1.994 7.853 5.319-12.602 9.215-26.78 10.685-26.78 2.777zm74.716-11.095c9.743-1.44 21.132-7.11 25.309-12.601 6.994-9.197 7.608-9.207 7.784-.127.224 11.582-12.452 17.498-34.8 16.243-15.562-.873-15.514-.972 1.707-3.515zm-188.716-27.935c0-7.972 7.564-9.665 43.5-9.732 23.925-.046 50.25-1.794 58.5-3.886 8.25-2.093 13.19-1.82 10.977.604-2.212 2.424-21.112 6.589-42 9.253-20.887 2.665-45.402 6.773-54.477 9.128-12.936 3.358-16.5 2.199-16.5-5.367zm229.218-18.153c-14.18-3.814-23.855-8.861-21.5-11.216 7.744-7.743 24.712-4.482 39.117 7.519 7.79 6.49 12.815 11.537 11.165 11.216-1.65-.321-14.602-3.705-28.782-7.519zm-97.027-1.498c.105-2.75 4.367-10.4 9.472-17 9.09-11.752 9.24-11.7 7.309 2.53-1.78 13.113-17.238 26.443-16.781 14.47zm-68.29-50.181c7.095-8.15 13.868-20.219 15.051-26.819 2.483-13.855 28.579-19.355 45.395-9.566 8.957 5.215 7.619 6.23-8.412 6.384-12.363.118-22.922 4.928-30.039 13.682-6.036 7.425-16.357 17.469-22.935 22.319-10.717 7.9-10.62 7.277.94-6zm81.327-7.319c-4.898-5.885.945-7.046 27.139-5.394 22.269 1.405 30.593 3.871 25.006 7.409-12.405 7.855-44.98 6.596-52.145-2.015z" style="fill:#3b0000" transform="translate(313.646 -1932.94)"/></svg>