<svg xmlns="http://www.w3.org/2000/svg" width="800" height="700"><path d="m-885.622 512.455-242.95 100.633-242.949-100.633-100.633-242.95 100.633-242.95 242.95-100.633 242.95 100.633 100.632 242.95-100.633 242.95z" style="fill:#fff;fill-opacity:1;stroke:#000;stroke-width:5.00327635;stroke-linecap:butt;stroke-linejoin:miter;stroke-miterlimit:4;stroke-opacity:1;stroke-dasharray:none" transform="scale(.5996) rotate(-22.5 559.088 -4087.124)"/><path d="M-1082.4 1097.812c-22.144-28.151-15.46-35.86 29.39-33.898 47.62 2.082 52.012-.704 54.71-34.7 2.144-27 2.144-27-54.509-27-56.652 0-56.652 0-70.5-20.387-19.794-29.143-20.954-28.477 59.653-34.302 76.217-5.507 102.819-35.544 58.791-66.382-23.14-16.209-.736-43.929 35.505-43.929 36.748 0 48.204 12.935 48.204 54.428 0 35.748 0 35.748 41.347 34.16 45.875-1.762 66.653 9.055 66.653 34.7 0 17.826-9.668 20.712-69.377 20.712-56.21 0-59.905 3.236-55.565 48.67 1.936 20.272 2.023 20.325 30.417 18.532 23.761-1.5 30.962.69 43.5 13.228 30.436 30.436 12.772 46.338-50.124 45.126-25.218-.486-70.384 1.08-100.368 3.477-54.516 4.361-54.516 4.361-67.728-12.435z" style="fill:#fb9e9d" transform="translate(1373.856 -624.954)"/><path d="M-1086.002 1089.512c-5.035-9.736-9.154-19.073-9.154-20.748 0-1.675 20.906-3.834 46.459-4.797 51.39-1.939 75.307-38.967 46.05-71.295-12.736-14.073-72.068-11.068-84.247 4.267-9.407 11.845-23.63 4.727-37.487-18.76-14.984-25.395-12.98-26.954 34.725-27.017 101.012-.133 133.003-23.445 90.5-65.948-33.768-33.768 23.742-65.808 62.873-35.028 14.919 11.735 16.14 15.538 12.803 39.879-5.132 37.444.816 42.37 46.715 38.686 33.213-2.666 39.721-1.425 50.848 9.703 21.705 21.704 15.965 24.76-46.505 24.76-67.219 0-72.287 2.85-69.376 39 1.064 13.2 2.093 30.075 2.288 37.5.319 12.177 3.333 13.5 30.748 13.5 35.41 0 53.606 7.95 53.606 23.42 0 10.096-7.97 11.227-97.17 13.798-66.418 1.914-97.907 5.013-99.5 9.791-4.487 13.461-25.001 7.032-34.176-10.71z" style="fill:#fc5e5d" transform="translate(1373.856 -624.954)"/><path d="M-1088.257 1083.214c-6.275-18-6.275-18 38.059-18 51.036 0 51.919-.782 54.73-48.465 2.357-39.967-82.077-58.205-105.847-22.864-4.287 6.374-13.09-.48-25.317-19.71-10.198-16.04-10.198-16.04 30.139-19.724 120.37-10.99 109.337-7.28 109.337-36.775 0-19.862-2.958-28.208-12-33.854-28.016-17.497 5.305-51.668 42.43-43.513 24.154 5.305 47.655 38.905 27.212 38.905-7.862 0-15.642 12.182-15.642 24.49 0 3.03 4.05 5.51 9 5.51s9 3.761 9 8.358c0 12.267 13.806 15.573 48.084 11.514 32.348-3.832 59.916 5.436 59.916 20.142 0 6.088-13.55 7.986-57 7.986-49 0-58.684 1.684-69 12-12.245 12.245-17.578 60-6.7 60 2.915 0 6.712 5.4 8.438 12 2.653 10.144 8.184 12 35.77 12 29.64 0 52.492 10.895 52.492 25.028 0 1.696-46.57 4.842-103.488 6.99-60.52 2.285-104.323 6.414-105.5 9.945-4.118 12.354-18.045 5.444-24.113-11.963z" style="fill:#f30a0a" transform="translate(1373.856 -624.954)"/><path d="M-1090.867 1077.319c-2.784-10.645.82-11.77 42.835-13.364 45.876-1.74 45.876-1.74 51.492-33.369 7.074-39.84 18.47-37.478 18.125 3.757-.4 47.978-101.082 86.456-112.452 42.976zm153.21-4.079c-23.796-9.602-6.561-22.968 26.993-20.933 33.189 2.013 49.508 8.487 49.508 19.642 0 5.494-63.431 6.565-76.5 1.291zm-191.852-103.618c-6.745-10.801-4.728-11.727 33.085-15.178 121.564-11.096 110.58-7.051 108.303-39.885-2.069-29.832.793-35.315 11.403-21.845 16.234 20.61 12.788 59.028-6.415 71.521-3.4 2.212-32.02 5.796-63.602 7.966-31.582 2.17-61.51 5.065-66.506 6.434-4.997 1.37-12.317-2.687-16.268-9.013zm203.553-25.608c-11.993-11.993-9.112-24.246 4.044-17.204 6.193 3.314 25.184 4.367 42.273 2.343 30.127-3.568 60.483 5.002 60.483 17.075 0 8.024-98.606 5.98-106.8-2.214zm-85.2-76.646c0-15.913 32.238-32.399 53.112-27.16 36.521 9.166 42.334 29.995 6.69 23.973-17.54-2.964-28.21-1.458-38.789 5.472-18.757 12.29-21.013 12.045-21.013-2.285z" style="fill:#a00101" transform="translate(1373.856 -624.954)"/><path d="M-1091.24 1075.955c-2.316-8.911 3.357-10.487 43.209-12 45.875-1.74 45.875-1.74 51.38-30.24 8.037-41.604 18.323-38.647 15.652 4.5-2.519 40.7-100.729 74.322-110.24 37.74zm152.084-13.74c0-6.885 7.585-9 32.265-9 21.36 0 34.79 3.04 39.735 9 6.511 7.845 2.374 9-32.266 9-31.32 0-39.734-1.907-39.734-9zm-191.846-95.815c-5.562-6.701.537-8.833 34.035-11.898 120.23-11 108.935-7.41 111.177-35.34 2.002-24.948 2.002-24.948 9.515-7.539 11.387 26.387 2.04 47.31-23.322 52.207-48.62 9.39-124.514 10.874-131.405 2.57zm214.346-21.42c-18.431-11.168-11.507-14.727 31.85-16.369 30.246-1.145 46.037.996 55.324 7.5 12.423 8.702 11.78 9.103-14.59 9.103-15.171 0-35.347 1.38-44.834 3.065-9.488 1.685-21.975.201-27.75-3.298zm-94.5-80.612c0-23.806 60.753-32.935 78.32-11.768 6.067 7.31 2.096 8.614-26.231 8.614-18.36 0-35.05 2.7-37.09 6-5.566 9.007-15 7.218-15-2.846z" style="fill:#560b0b" transform="translate(1373.856 -624.954)"/><path d="M-1089.156 1075.331c0-5.903 8.83-7.244 35.16-5.34 45.593 3.299 60.84-4.63 60.84-31.634 0-11.239 3.11-22.357 6.913-24.707 13.39-8.276.892 47.592-13.2 59.003-16.368 13.254-89.713 15.444-89.713 2.678zm157.5-8.09c-15.167-6.12-6.794-11.013 18.011-10.526 40.653.798 47.43 2.123 43.489 8.5-3.769 6.097-47.813 7.548-61.5 2.025zm-195.932-101.709c-1.861-4.85 17.651-8.205 64.888-11.156 78.358-4.896 84.076-7.185 80.408-32.18-1.481-10.092-.481-16.981 2.221-15.31 7.716 4.767 5.744 42.174-2.585 49.052-11.581 9.562-141.64 18.172-144.932 9.594zm206.432-26.318c0-10.539 82.051-10.348 92.614.215 3.714 3.714-11.831 5.785-43.414 5.785-28.8 0-49.2-2.488-49.2-6zm-81.31-83.345c9.054-10.247 17.063-12.826 35.533-11.442 30.661 2.298 34.808 13.6 5.277 14.383-12.375.328-29.25 2.776-37.5 5.442-15 4.846-15 4.846-3.31-8.383z" style="fill:#3c0000" transform="translate(1373.856 -624.954)"/></svg>