<svg xmlns="http://www.w3.org/2000/svg" width="800" height="700"><path d="m-885.622 512.455-242.95 100.633-242.949-100.633-100.633-242.95 100.633-242.95 242.95-100.633 242.95 100.633 100.632 242.95-100.633 242.95z" style="fill:#fff;fill-opacity:1;stroke:#000;stroke-width:3.97135067;stroke-linecap:butt;stroke-linejoin:miter;stroke-miterlimit:4;stroke-opacity:1;stroke-dasharray:none" transform="rotate(-22.5 141.76 -2871.665) scale(.75541)"/><path d="M-119.74 2819.054c-25.892-12.103-36.846-33.067-41.316-79.066-2.245-23.1-5.867-47.703-8.05-54.673-5.99-19.13 17.752-22.92 45.586-7.276 34.752 19.532 112.456 9.673 98.736-12.528-2.411-3.9-25.34-6.523-57.036-6.523h-53.004l-9.036-22.5c-4.97-12.375-8.533-23.05-7.92-23.721.614-.672 37.13-1.632 81.147-2.132l80.03-.91 17.88 17.879c17.81 17.81 17.837 17.942 6.98 34.512-5.994 9.148-11.003 27.712-11.131 41.252l-.234 24.62-67.5-2.196-67.5-2.197v15.032c0 8.268 4.943 21.136 10.985 28.597 12.36 15.265 35.763 17.42 103.816 9.557 49.732-5.746 62.131-16.317 67.614-57.65 5.428-40.915 15.523-36.695 29.547 12.349 19.873 69.501 19.731 73.412-2.98 82.577-28.605 11.543-194.428 15.368-216.615 4.997zm-124.368-208.141c0-3.342 14.781-12.613 32.846-20.602 40.387-17.86 59.364-44.141 53.92-74.67l-3.627-20.348 25.02 3.356c13.819 1.853 31.39 9.338 39.245 16.718 13.356 12.548 17.8 13.135 72.91 9.626 87.644-5.58 119.2 6.023 125.725 46.231l3.53 21.75-26.46-3.627c-17.642-2.418-33.855-.537-48.653 5.646-24.161 10.096-38.594 2.248-20.372-11.076 22.855-16.712 10.586-20.93-60.584-20.825-66.645.098-71.25.895-84.214 14.569-7.543 7.955-25.27 20.059-39.395 26.896-26.763 12.956-69.89 16.878-69.89 6.356z" style="fill:#f8a19f" transform="translate(444.42 -2318.196)"/><path d="M-121.108 2815.316c-23.17-9.484-31.657-26.564-37.426-75.328-3.123-26.4-6.78-52.05-8.126-57-3.905-14.357 29.271-15.226 44.677-1.17 11.196 10.214 18.346 11.252 54.811 7.958 46.746-4.222 55.784-14.068 33.433-36.419-15.612-15.612-76.543-18.109-82.199-3.369-1.9 4.95-5.795 9-8.657 9-5.235 0-23.513-31.254-23.512-40.202 0-2.639 36.375-4.798 80.831-4.798 74.903 0 81.784.954 93.833 13 12.338 12.336 12.386 37.066.058 29.447-7.872-4.865-22.492 14.461-14.76 19.51 3.404 2.224 8.007 11.468 10.228 20.543 4.643 18.974 7.924 18.326-84.047 16.595-30.838-.58-56.46 1.562-58.519 4.894-2.014 3.26 1.538 18.061 7.895 32.891 14.011 32.687 28.496 37.396 95.709 31.118 69.686-6.51 90.771-22.545 90.771-69.034 0-27.509 10.843-26.69 17.931 1.355 3.57 14.125 10.732 37.32 15.916 51.546 5.183 14.225 8.463 26.567 7.289 27.426-10.951 8.006-79.895 15.71-140.593 15.71-45.695 0-74.543 2.321-74.543 6 0 7.005-4.512 7.075-21 .327zm-119.584-203.656c-1.811-2.93 11.494-11.33 29.567-18.665 40.395-16.395 60.278-43.589 55.118-75.386-2.361-14.552-1.072-20.62 4.381-20.62 12.915 0 47.93 13.192 57.99 21.849 6.91 5.945 30.165 8.15 85.962 8.15h76.49l17.538 17.539c19.182 19.182 24.65 41.037 7.924 31.677-13.232-7.405-54.191.938-68.594 13.973-14.983 13.56-23.15 6.677-9.706-8.178 17.935-19.818-2.167-28.907-72.967-32.988l-61.88-3.567-25.12 22.994c-39.024 35.723-87.85 57.546-96.703 43.222z" style="fill:#fb5f5e" transform="translate(444.42 -2318.196)"/><path d="M-143.34 2795.488c-4.209-7.425-10.607-33.75-14.218-58.5-3.61-24.75-7.686-48.986-9.057-53.857-3.997-14.204 24.023-14.758 42.838-.847 14.397 10.644 22.169 11.833 56.45 8.632 29.505-2.756 41.235-6.482 45.502-14.456 3.668-6.852 3.666-12.031-.004-14.3-3.165-1.956-4.37-7.165-2.677-11.575 1.844-4.806-2.469-9.48-10.762-11.662-21.52-5.664-79.045 2.495-86.902 12.326-5.968 7.467-8.525 6.008-16.5-9.414-5.19-10.038-9.437-20.41-9.435-23.049 0-2.639 36.186-4.78 80.412-4.76 70.527.033 81.956 1.438 92.997 11.43 15.593 14.111 16.046 21.532 1.316 21.532-6.96 0-14.233 7.15-19.015 18.694-6.755 16.31-6.466 19.408 2.272 24.298 5.509 3.082 10.015 9.092 10.015 13.354 0 5.857-11.357 7.208-46.5 5.533-61.823-2.947-99.727 3.962-102.564 18.695-1.193 6.193 2.159 13.681 7.448 16.64 5.289 2.96 9.616 9.145 9.616 13.744 0 13.846 25.11 27.042 51.455 27.042 13.632 0 41.523-1.75 61.981-3.887 46.332-4.843 72.512-25.388 72.656-57.02.05-11.051 2.565-24.002 5.588-28.78 4.233-6.69 6.33-4.621 9.124 9 1.996 9.728 7.581 31.425 12.412 48.215 4.832 16.79 8.784 32.045 8.784 33.901 0 12.874-161.708 26.97-202.535 17.657-14.913-3.403-26.916-3.592-28.854-.456-5.606 9.07-13.825 6.012-21.842-8.13zm-91.753-184.477c-1.876-3.035 10.239-11.39 26.922-18.568 37.534-16.146 62.624-51.94 53.405-76.188-3.123-8.212-4.33-16.28-2.682-17.927 4.95-4.95 56.59 11.527 63.961 20.408 5.165 6.224 25.907 8.252 84.387 8.252 74.324 0 78.148.61 92.265 14.728 22.108 22.107 19.221 31.018-9.17 28.31-19.104-1.821-27.677.903-42.753 13.589-10.37 8.726-20.538 14.185-22.594 12.13-2.055-2.056 1.02-7.216 6.835-11.468 9.341-6.83 11.66-28.039 3.911-35.787-1.544-1.544-34.725-3.392-73.736-4.108l-70.93-1.301-19.568 21.36c-26.524 28.953-83.1 58.145-90.253 46.57z" style="fill:#ee1212" transform="translate(444.42 -2318.196)"/><path d="M-104.773 2793.648c-7.334-5.137-13.335-14.783-13.335-21.435 0-12.041.071-12.04 15.81.34 17.035 13.4 39.484 15.252 103.626 8.548 45.073-4.712 72.564-25.56 72.564-55.03 0-23.157 6.312-40.287 11.657-31.638 7.182 11.62-2.836 71.494-14.033 83.866-21.619 23.889-148.344 34.922-176.289 15.35zm-41.48-4.16c-2.67-4.125-7.783-27.75-11.362-52.5-3.58-24.75-7.63-48.986-9-53.857-3.997-14.204 24.023-14.758 42.838-.847 14.422 10.662 22.148 11.835 56.73 8.605 34.31-3.204 40.951-5.751 46.45-17.82 3.528-7.744 8.682-14.08 11.452-14.08 7.716 0 5.984 32.652-2.163 40.8-8.855 8.855-110.418 9.907-115.8 1.2-9.952-16.104-13.384-1.384-10.49 45 3.1 49.701 1.28 58.85-8.655 43.5zm4.79-153.295c-3.654-6.829-6.644-14.618-6.642-17.31 0-2.692 36.057-4.877 80.125-4.855 58.857.029 82.744 2.214 89.998 8.234 5.43 4.508 9.874 9.99 9.874 12.182s-35.412 2.883-78.694 1.534c-58.901-1.835-79.866-.555-83.355 5.09-3.42 5.535-6.428 4.239-11.306-4.875zm-96.645-28.038c0-1.558 13.561-8.667 30.136-15.797 37.333-16.06 62.401-51.917 53.206-76.103-3.123-8.212-4.33-16.28-2.682-17.927 4.95-4.95 56.59 11.527 63.961 20.408 5.165 6.224 25.907 8.252 84.387 8.252 75.196 0 78.002.464 92.901 15.364 8.45 8.45 13.984 16.744 12.297 18.431-1.687 1.687-15.568-1.177-30.846-6.364-18.145-6.16-49.158-9.43-89.422-9.43-44.913 0-64.805-2.392-73.29-8.81-16.43-12.427-31.185-11.251-35.658 2.842-6.865 21.628-33.4 47.587-61.226 59.896-26.13 11.559-43.764 15.28-43.764 9.238zm246-14.31c0-3.978 4.05-8.787 9-10.687 4.95-1.9 9-7.215 9-11.812 0-4.597 2.7-8.358 6-8.358 10.166 0 6.696 9.255-9 24-8.25 7.75-15 10.837-15 6.858z" style="fill:#9b0303" transform="translate(444.42 -2318.196)"/><path d="M-92.608 2796.095c-7.425-3.817-13.5-10.673-13.5-15.235 0-6.34 2.733-6.831 11.606-2.083 13.353 7.146 42.845 7.862 95.83 2.324 46.332-4.843 72.512-25.388 72.656-57.02.05-11.051 2.705-24.143 5.898-29.093 3.916-6.069 4.786 3.593 2.671 29.672-3.499 43.155-8.908 52.529-37.117 64.32-26.689 11.156-120.753 16.004-138.044 7.115zm-65.516-60.607c-3.287-23.925-7.103-47.486-8.48-52.357-4.034-14.271 24.03-14.745 42.991-.725 14.463 10.692 22.242 11.94 54.684 8.775 28.406-2.773 40.402-6.865 48.188-16.442l10.367-12.75.133 16.648c.1 12.415-3.78 18.136-15.257 22.5-24.506 9.317-82.096 7.142-97.553-3.684-19.672-13.778-32.567-7.219-24.99 12.712 7.22 18.987 7.88 68.823.913 68.823-2.761 0-7.71-19.575-10.996-43.5zm13.482-105.034c-13.23-13.23 1.78-16.458 76.037-16.35 73.686.109 94.52 3.138 94.482 13.738-.018 5.009-165.586 7.545-170.519 2.612zm-93.466-22.299c0-1.558 13.561-8.667 30.136-15.797 37.333-16.06 62.401-51.917 53.206-76.103-3.123-8.212-4.33-16.28-2.682-17.927 4.95-4.95 56.59 11.527 63.961 20.408 5.157 6.215 25.765 8.252 83.45 8.252 68.86 0 78.031 1.254 90.765 12.403l14.164 12.402-18-3.236c-9.9-1.78-51.623-5.106-92.717-7.39-42.295-2.352-81.35-7.615-90-12.13-20.449-10.67-30.283-10.105-30.283 1.743 0 21.317-24.984 49.802-56.939 64.92-30.971 14.651-45.06 18.546-45.06 12.455zm249-21.167c2.04-3.3 6.409-6 9.709-6s4.33 2.7 2.291 6c-2.04 3.3-6.408 6-9.708 6s-4.331-2.7-2.292-6z" style="fill:#570b0a" transform="translate(444.42 -2318.196)"/><path d="M-61.108 2799.89c-3.3-1.019-13.425-3.49-22.5-5.491-9.075-2.002-16.5-6.221-16.5-9.376 0-3.55 6.158-3.396 16.151.403 22.406 8.518 120.974-4.2 139.222-17.964 7.539-5.687 15.887-19.594 18.553-30.906l4.846-20.568.614 22.072c.972 34.927-20.128 50.68-75.255 56.181-19.322 1.928-40.53 4.405-47.13 5.504-6.6 1.098-14.7 1.164-18 .145zm-91.202-56.902c0-18.15 1.125-25.575 2.5-16.5s1.375 23.925 0 33-2.5 1.65-2.5-16.5zm30.962-48.39c-2.173-3.514-12.23-5.539-22.35-4.5-19.455 1.999-29.409-9.14-13.592-15.21 10.759-4.128 39.182 7.274 39.182 15.72 0 3.283 18.963 4.734 44.82 3.429 35.994-1.818 46.591-4.606 53.81-14.156 7.056-9.335 9.03-9.893 9.18-2.593.105 5.115-3.05 12.54-7.01 16.5-9.08 9.081-98.499 9.778-104.04.81zm-20.76-73.278c0-6.35 5.342-7.561 21.546-4.887 11.85 1.955 44.663 2.205 72.917.555 31.623-1.846 54.718-.549 60.077 3.376 6.335 4.638-13.533 6.787-72.916 7.887-66.876 1.239-81.624-.013-81.624-6.93zm-65.392-25.668c39.08-17.93 63.419-51.805 56.636-78.83-3.766-15.002-3.168-15.392 18.292-11.909 12.202 1.98 27.995 9.058 35.096 15.729 11.737 11.026 19.812 12.002 88.817 10.738 51.697-.948 78.156.85 82.957 5.636 10.487 10.454-156.224 3.178-168.406-7.35-4.95-4.278-17.1-8.656-27-9.728-16.09-1.743-18.208-.04-19.964 16.05-3.31 30.338-37.534 58.869-85.558 71.327-7.963 2.066.646-3.183 19.13-11.663z" style="fill:#3b0000" transform="translate(444.42 -2318.196)"/></svg>